<svg width="35" height="28" viewBox="0 0 35 28" fill="none" xmlns="http://www.w3.org/2000/svg">
<path fill-rule="evenodd" clip-rule="evenodd" d="M30.0367 2.26524H17.1685V8.37516H14.1333C14.1333 7.55173 14.1333 6.74248 14.1333 5.93477C14.1333 4.24224 14.1504 2.54888 14.1162 0.856346C14.1042 0.242549 14.3825 -0.00298812 15.2435 2.74124e-05C21.3812 0.0187602 27.5189 0.00825158 33.6576 0.00980504C34.6905 0.00980504 34.8522 0.124304 34.8522 0.875902C34.8522 7.99986 34.8522 15.1236 34.8522 22.2471C34.8522 23.0048 34.6874 23.1223 33.6747 23.1275C33.4386 23.1275 33.2005 23.1125 32.9714 23.1275C32.245 23.1791 31.7497 23.0272 31.8361 22.2712C30.094 23.3416 28.4864 24.3305 26.8769 25.3186C25.625 26.0874 24.3842 26.8667 23.1103 27.6138C22.7225 27.778 22.3101 27.9077 21.8815 27.9999L21.8815 27.1317C21.8815 20.7777 21.8772 14.4235 21.8685 8.06894C21.8301 7.63526 22.0915 7.21692 22.5617 6.95959C25.0132 5.45494 27.4255 3.91062 30.0367 2.26524ZM23.9323 17.0167C24.4467 17.4104 24.8074 17.915 25.1761 17.921C25.8995 17.9262 25.9658 17.3356 25.9407 16.9164C25.9166 16.5301 25.8402 15.9387 25.1158 16.0271C24.7179 16.0728 24.4226 16.584 23.9323 17.0167Z" fill="#345FB4"/>
<path fill-rule="evenodd" clip-rule="evenodd" d="M11.8062 9.63634C13.9271 9.63634 15.9255 9.63259 17.9268 9.63634C19.4449 9.63634 20.1452 10.1604 20.1512 11.2742C20.158 12.3511 20.158 13.4281 20.1512 14.5051C20.2359 14.95 20.0352 15.3987 19.6092 15.7168C19.1832 16.035 18.5815 16.1856 17.9841 16.1235C15.9566 16.1288 13.9281 16.1235 11.8052 16.1235C11.8052 16.432 11.8193 16.6685 11.8052 16.9043C11.7369 17.8872 11.0969 18.1709 9.95756 17.682C7.61159 16.6745 5.2847 15.6414 2.9518 14.613C2.19125 14.2791 1.42065 13.9548 0.6842 13.5934C-0.220023 13.1442 -0.239125 12.5662 0.693245 12.1486C3.79709 10.7597 6.91602 9.38952 10.05 8.03811C11.0427 7.6099 11.6987 7.8951 11.8022 8.74109C11.8333 9.00902 11.8062 9.27255 11.8062 9.63634Z" fill="#345FB4"/>
<path fill-rule="evenodd" clip-rule="evenodd" d="M14.1315 17.3522H17.1306V18.3425C17.1306 19.681 17.1215 21.0187 17.1356 22.3571C17.1416 22.9021 16.8633 23.1416 16.0847 23.1364C14.1315 23.1237 14.1315 23.1446 14.1315 21.6594C14.1315 20.2387 14.1315 18.8179 14.1315 17.3522Z" fill="#345FB4"/>
</svg>
