<svg width="19" height="5" viewBox="0 0 19 5" fill="none" xmlns="http://www.w3.org/2000/svg">
<path fill-rule="evenodd" clip-rule="evenodd" d="M18.6706 0.529352C14.9733 0.35693 11.2769 0.13962 7.57541 0.0467734C5.79508 0.0018837 4.00453 -0.039947 2.2252 0.0692222C1.71507 0.0998284 0.120432 0.0396356 0.00722345 0.783394C-0.094839 1.4486 0.916258 2.35866 1.29985 2.79023C1.95183 3.53707 2.64534 4.2466 3.37709 4.91544C3.67805 5.1868 4.12497 4.74197 3.82295 4.46956C3.25161 3.95943 2.71596 3.39523 2.19051 2.83716C1.88445 2.5066 1.57839 2.16992 1.29375 1.81691C1.157 1.65061 1.02237 1.48227 0.900939 1.30678C0.833126 1.1608 0.750741 1.02203 0.655093 0.892571C0.515294 0.776257 0.693825 0.957863 0.594876 0.956843C0.557078 0.956843 0.642825 0.94256 0.625452 0.94052C0.806661 0.914685 0.984756 0.87059 1.157 0.808902C1.70386 0.728985 2.25521 0.684002 2.80781 0.674233C6.40621 0.532418 10.0291 0.740544 13.6224 0.910926C15.3048 0.990508 16.9893 1.08437 18.6706 1.16293C19.0788 1.1813 19.0788 0.550781 18.6706 0.532418" fill="#003849"/>
</svg>
