<svg width="19" height="19" viewBox="0 0 19 19" fill="none" xmlns="http://www.w3.org/2000/svg">
<path fill-rule="evenodd" clip-rule="evenodd" d="M2.11191 4.16468C-0.364472 6.78013 -0.551229 11.101 0.969574 14.242C3.14105 18.154 7.80291 19.9488 12.0371 18.503C15.7231 17.0426 18.3181 13.6866 18.804 9.75169C19.0109 5.81826 16.6863 2.1909 13.0263 0.735567C11.2316 -0.0547816 9.22203 -0.213573 7.32561 0.285116C5.17172 0.955529 3.31357 2.34558 2.06225 4.2225C1.82682 4.5502 2.36653 4.8647 2.60406 4.53904C4.71734 1.5969 8.11388 -0.0902551 11.7185 0.930358C15.1935 1.8694 17.7534 4.81962 18.1933 8.39221C18.2844 11.934 16.4699 15.2528 13.4392 17.0877C11.5813 18.3196 9.28891 18.7081 7.12882 18.1571C5.14955 17.6928 3.38527 16.5735 2.12206 14.9806C0.0565966 12.0476 0.0199389 7.28739 2.5523 4.61208C2.8302 4.31888 2.38684 3.87452 2.10894 4.16772" fill="#003849"/>
</svg>
