<svg width="18" height="8" viewBox="0 0 18 8" fill="none" xmlns="http://www.w3.org/2000/svg">
<path fill-rule="evenodd" clip-rule="evenodd" d="M0.218765 3.7305C3.23127 4.88326 6.2814 5.94541 9.34183 6.95862C11.0035 7.63082 12.7767 7.98409 14.5693 7.99995C15.5064 7.94788 17.5287 7.64382 17.8453 6.55667C18.2618 5.12588 15.8834 4.13766 14.9368 3.7128C12.6269 2.73031 10.241 1.93698 7.80272 1.34066C5.85836 0.776603 3.88185 0.33011 1.88385 0.00359895C1.47873 -0.0526456 1.30369 0.567987 1.71186 0.628383C3.20699 0.870605 4.68839 1.19038 6.15022 1.58641C8.43931 2.13134 10.6971 2.80016 12.9135 3.58993C13.8816 3.92799 14.8216 4.34127 15.7252 4.82598C16.2134 5.09776 16.9747 5.48721 17.1902 6.04954C17.5245 6.9128 15.5658 7.23457 14.9952 7.31787C13.2476 7.42961 11.4978 7.13633 9.88232 6.46085C6.6958 5.41224 3.52071 4.30634 0.388464 3.10674C0.00114404 2.95887 -0.166648 3.58055 0.216732 3.73153" fill="#003849"/>
</svg>
