<svg width="339" height="151" viewBox="0 0 339 151" fill="none" xmlns="http://www.w3.org/2000/svg">
<path fill-rule="evenodd" clip-rule="evenodd" d="M0 22.4799V11.3036C0 8.21742 3.04573 5.58317 9.13719 3.40088C15.2286 1.21859 22.5817 0.127441 31.1963 0.127441H307.804C316.418 0.127441 323.771 1.21859 329.863 3.40088C335.954 5.58317 339 8.21742 339 11.3036V139.457C339 142.544 335.954 145.178 329.863 147.36C323.771 149.543 316.418 150.634 307.804 150.634H31.1963C22.5817 150.634 15.2286 149.543 9.13719 147.36C3.04573 145.178 0 142.544 0 139.457V22.4799Z" fill="white"/>
<path fill-rule="evenodd" clip-rule="evenodd" d="M1.03992 22.1073V11.3037C1.03992 8.32032 3.98412 5.77387 9.87253 3.66432C15.7609 1.55477 22.8689 0.5 31.1964 0.5H307.804C316.131 0.5 323.239 1.55477 329.128 3.66432C335.016 5.77387 337.96 8.32032 337.96 11.3037V139.458C337.96 142.441 335.016 144.987 329.128 147.097C323.239 149.206 316.131 150.261 307.804 150.261H31.1964C22.8689 150.261 15.7609 149.206 9.87253 147.097C3.98412 144.987 1.03992 142.441 1.03992 139.458V22.1073Z" stroke="#5278C1"/>
</svg>
