<svg width="12" height="14" viewBox="0 0 12 14" fill="none" xmlns="http://www.w3.org/2000/svg">
<path fill-rule="evenodd" clip-rule="evenodd" d="M11.6064 10.498C10.8503 7.09319 8.11107 -0.126601 3.76408 0.00168731C-1.33265 0.15521 0.138421 9.72832 0.385514 12.7504C0.521191 14.4097 3.11946 14.4234 2.98597 12.7504C2.95233 12.3298 2.81666 10.9807 2.73566 9.39604C3.03949 9.60039 3.42521 9.63983 3.76408 9.50119C5.19203 8.99225 6.67157 8.72516 8.06589 8.1342C8.50847 9.11913 8.8546 10.1446 9.09951 11.1962C9.46335 12.8324 11.9702 12.1426 11.6064 10.5043M3.07325 6.99014C2.92859 7.04254 2.79387 7.11897 2.67469 7.21622C2.67469 4.74933 2.94386 2.44228 4.00592 2.58949C5.25621 2.763 6.26044 4.52431 6.92605 5.80717C5.69681 6.34766 4.33612 6.54324 3.07325 6.98909" fill="#D67676"/>
</svg>
