<svg width="12" height="21" viewBox="0 0 12 21" fill="none" xmlns="http://www.w3.org/2000/svg">
<path fill-rule="evenodd" clip-rule="evenodd" d="M9.53701 20.0831L0.2922 10.9463C0.105303 10.7629 0 10.5121 0 10.2503C0 9.98846 0.105303 9.73764 0.2922 9.55429L9.53701 0.417487C10.1035 -0.139157 11.0115 -0.139157 11.578 0.417487C11.8479 0.683427 11.9999 1.04652 11.9999 1.42546C11.9999 1.80439 11.8479 2.1675 11.578 2.43344L3.66913 10.2503L11.578 18.0651C11.8477 18.3314 11.9996 18.6946 11.9996 19.0736C11.9996 19.4526 11.8477 19.8158 11.578 20.0821C11.0115 20.6387 10.1035 20.6387 9.53701 20.0821" fill="white"/>
</svg>
