<svg width="37" height="37" viewBox="0 0 37 37" fill="none" xmlns="http://www.w3.org/2000/svg">
<path fill-rule="evenodd" clip-rule="evenodd" d="M18.6201 0.0438365C13.9726 0.0568807 9.10122 0.992012 5.46306 4.07233C2.56107 6.68971 0.713449 10.2758 0.26664 14.1581C-0.0322736 16.3169 -0.0801022 18.5031 0.124195 20.6729C0.268048 23.0974 0.905498 25.4669 1.99747 27.6362C4.35332 31.7751 8.25837 34.8073 12.8518 36.0645C17.0746 37.396 21.6177 37.304 25.7831 35.8026C28.7629 34.6066 31.3257 32.5613 33.1528 29.9209C36.79 24.5213 37.7861 17.7649 35.8619 11.5454C34.9638 8.54431 33.2437 5.85452 30.8962 3.78035C28.2701 1.59527 25.0208 0.295928 21.6122 0.0679154C20.617 -0.0106826 19.6177 -0.0210743 18.6212 0.0368169C18.2198 0.0588901 18.2198 0.678963 18.6211 0.65689C22.1206 0.370542 25.6241 1.15771 28.6648 2.91345C31.2189 4.52318 33.2374 6.85527 34.4642 9.61388C36.9509 15.3301 36.756 21.858 33.9324 27.4155C32.5719 30.1414 30.4865 32.4396 27.9052 34.0577C24.5854 35.9576 20.7368 36.7237 16.9425 36.24C12.2496 35.8483 7.86563 33.7412 4.62829 30.3212C3.02833 28.5431 1.87836 26.407 1.27502 24.0924C0.762563 21.9166 0.544242 19.6819 0.625875 17.4481C0.542037 13.5557 1.70542 9.7386 3.94595 6.55465C6.53868 3.18435 10.5682 1.48065 14.688 0.914753C15.992 0.743885 17.3059 0.660085 18.6211 0.663913C18.7924 0.663909 18.9312 0.5251 18.9312 0.353869C18.9312 0.182641 18.7924 0.0438327 18.6211 0.0438365" fill="#003849"/>
</svg>
