<svg width="175" height="139" viewBox="0 0 175 139" fill="none" xmlns="http://www.w3.org/2000/svg">
<g clip-path="url(#clip0_7908_4879)">
<path d="M89.3762 138.705C94.6397 138.705 98.9065 133.896 98.9065 127.964C98.9065 122.032 94.6397 117.222 89.3762 117.222C84.1128 117.222 79.8459 122.032 79.8459 127.964C79.8459 133.896 84.1128 138.705 89.3762 138.705Z" fill="#CCCAF1"/>
<path d="M146.31 138.102C151.642 136.297 157.31 134.415 161.539 130.125C165.317 126.291 167.868 120.437 166.303 114.687C164.741 108.95 160.062 105.124 155.231 103.221C152.491 102.141 149.624 101.543 146.759 101.072C143.644 100.561 140.515 100.142 137.388 99.7389C124.726 98.1066 112.016 97.1094 99.2579 96.7474C92.9628 96.5687 86.6689 96.5731 80.3729 96.6761C74.7502 96.7681 68.8284 96.7658 63.6123 94.0723C59.556 91.9777 55.8745 88.1671 54.7443 83.1595C53.4396 77.379 55.8461 71.4924 59.2981 67.306C61.1177 65.0993 63.2443 63.242 65.4381 61.5342C67.8181 59.6815 70.281 57.96 72.7973 56.353C77.7533 53.1896 82.9346 50.4974 88.2875 48.3043C90.9281 47.2221 93.608 46.2884 96.3111 45.4271C98.5936 44.6998 100.883 43.9714 103.089 42.9805C107.354 41.0648 111.41 37.8199 112.494 32.5002C113.522 27.4583 111.789 21.985 108.751 18.2395C105.237 13.9063 99.938 12.0067 94.8578 11.6994C89.1545 11.3543 83.5826 12.9631 78.2219 15.0049C72.5044 17.1826 66.9102 19.6866 61.0719 21.4505C55.2824 23.198 49.3809 24.4344 43.421 25.1486C40.5035 25.4987 37.4977 25.8941 34.5628 25.626C32.103 25.4014 29.6559 24.586 27.8431 22.6185C26.2887 20.9314 25.3627 18.6128 25.6811 16.166C25.7389 15.7216 26.3379 15.9106 26.2804 16.3523C25.8929 19.3307 27.6892 22.0753 29.9028 23.4812C32.4611 25.106 35.5742 25.1082 38.4224 24.9224C44.5982 24.502 50.7323 23.5026 56.7609 21.9345C62.6847 20.4095 68.3969 18.2295 74.1027 15.9008C79.5217 13.6891 85.0618 11.5305 90.8511 11.0514C95.8745 10.6357 101.159 11.4606 105.535 14.4194C109.381 17.0197 112.209 21.3563 113.11 26.3327C113.991 31.1954 112.771 36.0899 109.505 39.4833C106.124 42.9968 101.487 44.4989 97.1665 45.8824C91.6861 47.6371 86.3232 49.6882 81.1323 52.3513C75.8706 55.0432 70.8244 58.2407 66.0495 61.9085C61.4405 65.4584 56.892 69.9251 55.4343 76.258C54.7553 79.208 54.8807 82.3368 56.0168 85.1232C57.027 87.6007 58.6908 89.6847 60.629 91.2922C65.2534 95.1275 71.0818 95.9149 76.6677 95.9933C82.9414 96.0812 89.2153 95.8426 95.4911 95.9587C108.281 96.1953 121.044 97.0727 133.782 98.591C136.974 98.9717 140.161 99.3926 143.345 99.8536C146.208 100.268 149.082 100.68 151.897 101.417C156.903 102.726 161.774 105.244 164.885 110.028C166.266 112.102 167.122 114.559 167.361 117.138C167.578 119.829 166.994 122.525 165.914 124.919C163.525 130.217 159.05 133.587 154.297 135.801C151.752 136.987 149.111 137.886 146.476 138.778C146.092 138.908 145.928 138.232 146.31 138.102Z" fill="#F2F2F2"/>
<path d="M26.0827 21.8333C28.8288 21.8333 31.055 19.3242 31.055 16.229C31.055 13.1339 28.8288 10.6248 26.0827 10.6248C23.3365 10.6248 21.1104 13.1339 21.1104 16.229C21.1104 19.3242 23.3365 21.8333 26.0827 21.8333Z" fill="#F2F2F2"/>
<path d="M60.5783 32.458C63.3244 32.458 65.5506 29.9489 65.5506 26.8538C65.5506 23.7586 63.3244 21.2495 60.5783 21.2495C57.8321 21.2495 55.606 23.7586 55.606 26.8538C55.606 29.9489 57.8321 32.458 60.5783 32.458Z" fill="#F2F2F2"/>
<path d="M89.7907 11.2085C92.5368 11.2085 94.763 8.69941 94.763 5.60426C94.763 2.50911 92.5368 0 89.7907 0C87.0445 0 84.8184 2.50911 84.8184 5.60426C84.8184 8.69941 87.0445 11.2085 89.7907 11.2085Z" fill="#F2F2F2"/>
<path d="M108.022 35.0266C110.769 35.0266 112.995 32.5175 112.995 29.4224C112.995 26.3272 110.769 23.8181 108.022 23.8181C105.276 23.8181 103.05 26.3272 103.05 29.4224C103.05 32.5175 105.276 35.0266 108.022 35.0266Z" fill="#F2F2F2"/>
<path d="M83.3681 62.581C86.1142 62.581 88.3404 60.0718 88.3404 56.9767C88.3404 53.8815 86.1142 51.3724 83.3681 51.3724C80.6219 51.3724 78.3958 53.8815 78.3958 56.9767C78.3958 60.0718 80.6219 62.581 83.3681 62.581Z" fill="#F2F2F2"/>
<path d="M52.0839 75.891C54.83 75.891 57.0562 73.3819 57.0562 70.2868C57.0562 67.1916 54.83 64.6825 52.0839 64.6825C49.3378 64.6825 47.1116 67.1916 47.1116 70.2868C47.1116 73.3819 49.3378 75.891 52.0839 75.891Z" fill="#F2F2F2"/>
<path d="M85.2326 96.6735C87.9787 96.6735 90.2049 94.1644 90.2049 91.0692C90.2049 87.9741 87.9787 85.465 85.2326 85.465C82.4864 85.465 80.2603 87.9741 80.2603 91.0692C80.2603 94.1644 82.4864 96.6735 85.2326 96.6735Z" fill="#F2F2F2"/>
<path d="M120.868 108.349C123.614 108.349 125.84 105.84 125.84 102.745C125.84 99.6496 123.614 97.1405 120.868 97.1405C118.121 97.1405 115.895 99.6496 115.895 102.745C115.895 105.84 118.121 108.349 120.868 108.349Z" fill="#F2F2F2"/>
<path d="M162.511 105.78C165.257 105.78 167.483 103.271 167.483 100.176C167.483 97.081 165.257 94.5719 162.511 94.5719C159.765 94.5719 157.539 97.081 157.539 100.176C157.539 103.271 159.765 105.78 162.511 105.78Z" fill="#F2F2F2"/>
<path d="M174.754 139H0.246949C0.181648 139 0.119087 138.97 0.0729788 138.918C0.0268704 138.866 0.000976562 138.796 0.000976562 138.722C0.000976562 138.648 0.0268704 138.578 0.0729788 138.526C0.119087 138.474 0.181648 138.444 0.246949 138.444H174.754C174.819 138.444 174.882 138.473 174.928 138.525C174.974 138.578 175 138.648 175 138.722C175 138.796 174.974 138.866 174.928 138.919C174.882 138.971 174.819 139 174.754 139Z" fill="#3F3D56"/>
<path d="M130.202 63.7475C133.635 63.7475 136.418 60.6111 136.418 56.7421C136.418 52.8732 133.635 49.7368 130.202 49.7368C126.77 49.7368 123.987 52.8732 123.987 56.7421C123.987 60.6111 126.77 63.7475 130.202 63.7475Z" fill="#2F2E41" fill-opacity="0.23"/>
<path d="M118.717 135.933H116.177L114.969 124.891H118.717L118.717 135.933Z" fill="#A0616A"/>
<path d="M114.362 135.115H119.261V138.592H111.278C111.278 138.135 111.358 137.683 111.513 137.261C111.668 136.84 111.895 136.456 112.181 136.134C112.468 135.811 112.808 135.555 113.182 135.38C113.556 135.205 113.957 135.115 114.362 135.115Z" fill="#2F2E41" fill-opacity="0.23"/>
<path d="M138.399 135.933H135.859L134.651 124.891H138.4L138.399 135.933Z" fill="#A0616A"/>
<path d="M134.044 135.115H138.943V138.592H130.96C130.96 138.135 131.04 137.683 131.195 137.261C131.35 136.84 131.577 136.456 131.864 136.134C132.15 135.811 132.49 135.555 132.864 135.38C133.238 135.205 133.639 135.115 134.044 135.115Z" fill="#2F2E41" fill-opacity="0.23"/>
<path d="M129.258 63.7884C132.068 63.7884 134.346 61.2206 134.346 58.0531C134.346 54.8856 132.068 52.3179 129.258 52.3179C126.447 52.3179 124.169 54.8856 124.169 58.0531C124.169 61.2206 126.447 63.7884 129.258 63.7884Z" fill="#A0616A"/>
<path d="M132.291 82.2905L134.567 76.3943C135.12 75.0112 135.279 73.4686 135.021 71.9796C134.763 70.4906 134.101 69.1286 133.128 68.0813C132.927 67.8585 132.715 67.6502 132.491 67.4579C131.368 66.4673 129.983 65.9274 128.557 65.9237C127.598 65.9279 126.651 66.1653 125.781 66.6196C125.706 66.6569 125.634 66.6966 125.559 66.7363C125.416 66.8134 125.275 66.8974 125.139 66.9838C124.247 67.5611 123.488 68.3664 122.923 69.335C122.358 70.3037 122.002 71.4084 121.886 72.5601L120.881 82.05C120.628 82.7949 111.612 109.695 114.765 130.233C114.799 130.452 114.894 130.653 115.036 130.808C115.178 130.962 115.361 131.061 115.557 131.09L118.753 131.58C118.987 131.616 119.224 131.551 119.416 131.398C119.609 131.245 119.743 131.015 119.791 130.756L125.155 101.938C125.189 101.759 125.274 101.598 125.399 101.48C125.523 101.362 125.679 101.295 125.841 101.289C126.003 101.283 126.163 101.338 126.294 101.446C126.425 101.554 126.52 101.708 126.564 101.884L134.143 132.189C134.197 132.41 134.313 132.604 134.475 132.742C134.636 132.88 134.833 132.955 135.036 132.955C135.096 132.955 135.156 132.949 135.216 132.937L139.121 132.089C139.348 132.041 139.551 131.899 139.69 131.692C139.83 131.484 139.895 131.225 139.873 130.966C139.299 123.753 136.25 87.6215 132.291 82.2905Z" fill="#2F2E41" fill-opacity="0.23"/>
<path d="M109.482 62.8261C109.447 63.167 109.478 63.5126 109.574 63.8384C109.67 64.1642 109.828 64.4623 110.038 64.7117C110.247 64.9611 110.502 65.1558 110.785 65.282C111.069 65.4082 111.373 65.4629 111.677 65.4422L114.521 73.1463L116.673 69.5515L113.642 62.7867C113.577 62.2134 113.328 61.6867 112.942 61.3065C112.556 60.9263 112.059 60.719 111.547 60.7238C111.034 60.7287 110.54 60.9454 110.16 61.3328C109.779 61.7203 109.538 62.2516 109.482 62.8261L109.482 62.8261Z" fill="#A0616A"/>
<path d="M128.975 90.0479C129.278 90.0071 129.569 89.8921 129.827 89.711C130.086 89.5299 130.306 89.287 130.473 88.9996C130.639 88.7121 130.748 88.3869 130.791 88.0471C130.834 87.7072 130.81 87.3609 130.721 87.0325L136.706 82.1198L133.103 80.5991L127.972 85.4974C127.492 85.702 127.096 86.0977 126.858 86.6096C126.62 87.1215 126.557 87.714 126.68 88.2749C126.804 88.8358 127.106 89.3261 127.529 89.6528C127.952 89.9796 128.467 90.1202 128.975 90.0479Z" fill="#A0616A"/>
<path d="M119.22 78.2823C118.99 78.2821 118.761 78.2567 118.536 78.2064C117.992 78.0896 117.481 77.8237 117.05 77.4321C116.618 77.0406 116.278 76.5353 116.061 75.9609L112.076 70.4843C111.992 70.3686 111.93 70.2338 111.896 70.0891C111.862 69.9445 111.855 69.7932 111.877 69.6455C111.899 69.4978 111.948 69.357 112.022 69.2327C112.096 69.1083 112.193 69.0032 112.306 68.9243L115.141 66.9463C115.246 66.8733 115.362 66.8243 115.484 66.8023C115.606 66.7802 115.73 66.7855 115.849 66.8179C115.969 66.8503 116.082 66.909 116.181 66.9908C116.281 67.0726 116.365 67.1757 116.429 67.2943L119.238 72.5096L124.616 68.0293C125.045 67.7762 125.539 67.7052 126.01 67.8293C126.481 67.9534 126.896 68.2643 127.181 68.7052C127.465 69.146 127.599 69.6875 127.558 70.2305C127.518 70.7736 127.305 71.2821 126.959 71.6631L121.591 77.1825C120.96 77.8873 120.108 78.2826 119.22 78.2823Z" fill="#2F2E41" fill-opacity="0.23"/>
<path d="M133.753 86.5188C133.746 86.5188 133.739 86.5188 133.732 86.5186C133.601 86.515 133.472 86.4805 133.354 86.4173C133.236 86.3542 133.131 86.2637 133.046 86.1519L130.525 82.8376C130.439 82.7247 130.376 82.5926 130.338 82.4499C130.301 82.3073 130.291 82.1574 130.309 82.0101C130.327 81.8629 130.373 81.7216 130.443 81.5956C130.513 81.4696 130.606 81.3619 130.716 81.2794L135.436 77.733L131.16 71.939C130.911 71.4716 130.82 70.919 130.903 70.382C130.986 69.8451 131.237 69.3597 131.611 69.0146C131.986 68.6694 132.457 68.4875 132.941 68.5022C133.424 68.5168 133.887 68.7269 134.244 69.0942L139.441 74.8182C139.85 75.2393 140.162 75.766 140.351 76.3531C140.539 76.9401 140.599 77.57 140.524 78.1887C140.449 78.8073 140.242 79.3963 139.921 79.9049C139.6 80.4136 139.174 80.8268 138.679 81.1091L134.432 86.1888C134.345 86.293 134.24 86.3759 134.123 86.4327C134.006 86.4894 133.881 86.5187 133.753 86.5188Z" fill="#2F2E41" fill-opacity="0.23"/>
<path d="M127.964 74.3064C127.923 74.3064 127.883 74.3035 127.843 74.2978C127.667 74.2737 127.501 74.1934 127.365 74.0664C127.229 73.9394 127.128 73.771 127.074 73.5812L125.18 67.036C125.132 66.8705 125.14 66.6913 125.2 66.5314C125.261 66.3715 125.371 66.2418 125.51 66.1663L125.572 66.1336C125.627 66.1037 125.683 66.0741 125.739 66.0459C126.622 65.5842 127.584 65.3434 128.557 65.34C129.821 65.3426 131.057 65.7611 132.113 66.5441C132.254 66.6503 132.353 66.8149 132.388 67.0025C132.423 67.19 132.391 67.3855 132.299 67.5469L128.746 73.8208C128.663 73.9698 128.547 74.0925 128.411 74.1774C128.274 74.2624 128.12 74.3067 127.964 74.3064Z" fill="#E6E6E6"/>
<path d="M135.103 53.6148C136.226 53.6148 137.136 52.5885 137.136 51.3225C137.136 50.0564 136.226 49.0302 135.103 49.0302C133.979 49.0302 133.069 50.0564 133.069 51.3225C133.069 52.5885 133.979 53.6148 135.103 53.6148Z" fill="#2F2E41" fill-opacity="0.23"/>
<path d="M128.13 48.8027C126.702 48.8027 125.332 49.4424 124.321 50.581C123.311 51.7195 122.744 53.2638 122.744 54.874V57.4426H125.547L126.887 54.874L127.289 57.4426H135.796L133.517 54.874C133.517 53.2638 132.949 51.7195 131.939 50.581C130.929 49.4424 129.559 48.8027 128.13 48.8027Z" fill="#2F2E41" fill-opacity="0.23"/>
<path d="M136.148 49.7523C136.373 48.9596 136.838 48.2817 137.463 47.8378C138.087 47.3938 138.831 47.2122 139.562 47.3248C140.858 47.569 141.883 48.7433 142.494 50.0548C143.104 51.3663 143.386 52.8342 143.797 54.2412C144.207 55.6482 144.789 57.0628 145.826 57.9736C146.862 58.8844 148.452 59.1314 149.47 58.1945C149.354 59.171 148.968 60.0815 148.367 60.7973C147.767 61.5132 146.982 61.9981 146.123 62.1835C145.265 62.3689 144.376 62.2454 143.583 61.8305C142.791 61.4156 142.134 60.7302 141.705 59.8714C141.168 58.7945 141.03 57.5324 140.87 56.3101C140.711 55.0879 140.504 53.8233 139.863 52.8214C139.222 51.8195 138.022 51.1651 137.003 51.6215L136.148 49.7523Z" fill="#2F2E41" fill-opacity="0.23"/>
<path d="M70.0161 53.2495C68.1619 53.2493 66.3837 52.4189 65.0727 50.9412C63.7616 49.4634 63.025 47.4592 63.0249 45.3694C63.0248 43.9441 63.0257 42.8544 63.0277 42.6994C63.0866 37.8175 64.1774 33.0218 66.2097 28.7101C62.8707 33.862 61.0348 40.0562 60.9559 46.4356C60.9539 46.5906 60.953 47.6803 60.9531 49.1056C60.9532 51.1954 61.6898 53.1996 63.0009 54.6774C64.3119 56.1551 66.0901 56.9854 67.9443 56.9857C69.4679 56.985 70.9496 56.4239 72.1645 55.3875C73.3793 54.3511 74.2608 52.8961 74.6751 51.2435C73.395 52.5373 71.7355 53.2518 70.0161 53.2495Z" fill="#3F3D56" fill-opacity="0.29"/>
<path d="M88.8293 32.4836C90.9728 32.599 93.0594 33.299 94.9101 34.5235C96.7607 35.748 98.32 37.4605 99.4541 39.5139C100.588 41.5672 101.263 43.9002 101.421 46.3123C101.579 48.7244 101.215 51.1437 100.361 53.3625C101.597 51.7267 102.505 49.8097 103.024 47.7424C103.543 45.675 103.66 43.5059 103.368 41.3828C103.075 39.2597 102.38 37.2326 101.33 35.4397C100.28 33.6468 98.8986 32.1303 97.2811 30.9935C95.6635 29.8567 93.8475 29.1264 91.9569 28.8523C90.0662 28.5782 88.1454 28.7669 86.3253 29.4054C84.5051 30.0439 82.8286 31.1172 81.4099 32.5522C79.9912 33.9872 78.8637 35.7501 78.1042 37.7207C79.4168 35.9804 81.0664 34.6032 82.9259 33.6952C84.7854 32.7872 86.8051 32.3726 88.8293 32.4836Z" fill="#3F3D56" fill-opacity="0.27"/>
<path d="M90.9799 102.287C89.0884 102.287 87.2726 101.45 85.9241 99.9546C84.5757 98.4596 83.8028 96.427 83.7721 94.2954C83.6844 88.1176 83.6389 80.5061 83.6389 79.6362C83.6377 77.5199 83.908 75.4146 84.4415 73.3856L84.4389 73.3849C84.7539 72.3664 85.1344 71.3752 85.5772 70.4191C84.2178 72.4609 83.1359 74.7197 82.3671 77.121L82.3697 77.1217C81.8362 79.1508 81.5659 81.2561 81.5671 83.3723C81.5671 84.2422 81.6126 91.8538 81.7003 98.0316C81.731 100.163 82.5039 102.196 83.8523 103.691C85.2008 105.186 87.0166 106.023 88.9081 106.023C90.4676 106.023 91.9851 105.452 93.2328 104.398C94.4805 103.343 95.3912 101.861 95.8283 100.174C94.503 101.536 92.7734 102.29 90.9799 102.287Z" fill="#3F3D56" fill-opacity="0.27"/>
<path d="M26.2167 136.04L28.7565 136.04L29.965 124.997L26.2161 124.998L26.2167 136.04Z" fill="#FFB8B8"/>
<path d="M33.6553 138.698L25.6725 138.698L25.6723 135.222L30.5709 135.222C31.3889 135.222 32.1734 135.588 32.7518 136.24C33.3303 136.892 33.6552 137.776 33.6553 138.698L33.6553 138.698Z" fill="#2F2E41" fill-opacity="0.23"/>
<path d="M17.1007 136.04L19.6405 136.04L20.849 124.997L17.1001 124.998L17.1007 136.04Z" fill="#FFB8B8"/>
<path d="M24.5393 138.698L16.5565 138.698L16.5564 135.222L21.4549 135.222C22.2729 135.222 23.0574 135.588 23.6358 136.24C24.2143 136.892 24.5393 137.776 24.5393 138.698L24.5393 138.698Z" fill="#2F2E41" fill-opacity="0.23"/>
<path d="M19.3205 132.644L16.8395 132.497C16.7116 132.489 16.5863 132.453 16.4708 132.391C16.3554 132.328 16.2521 132.24 16.1669 132.132C16.0818 132.024 16.0165 131.899 15.9748 131.762C15.9331 131.626 15.9159 131.481 15.9241 131.337L18.8894 94.3334L32.5449 98.4865L33.8605 98.082L29.7463 130.84C29.7112 131.086 29.6026 131.312 29.4385 131.48C29.2743 131.647 29.0644 131.746 28.8433 131.761L26.1689 131.902C26.0351 131.91 25.9013 131.887 25.7759 131.834C25.6504 131.781 25.5361 131.7 25.4401 131.594C25.344 131.489 25.2684 131.363 25.218 131.223C25.1676 131.083 25.1435 130.933 25.1472 130.782L25.6318 111.121C25.634 111.03 25.606 110.941 25.5532 110.873C25.5004 110.804 25.4267 110.76 25.3465 110.749C25.2664 110.739 25.1856 110.762 25.1202 110.816C25.0547 110.869 25.0094 110.948 24.993 111.037L20.3196 131.776C20.2755 132.022 20.1571 132.243 19.9844 132.401C19.8118 132.56 19.5957 132.646 19.373 132.646C19.3556 132.646 19.3381 132.645 19.3205 132.644Z" fill="#2F2E41" fill-opacity="0.23"/>
<path d="M26.6728 64.0566C29.4831 64.0566 31.7613 61.4888 31.7613 58.3213C31.7613 55.1538 29.4831 52.5861 26.6728 52.5861C23.8625 52.5861 21.5842 55.1538 21.5842 58.3213C21.5842 61.4888 23.8625 64.0566 26.6728 64.0566Z" fill="#FFB8B8"/>
<path d="M18.2006 75.1713L18.7601 88.7774L18.9623 93.7274C18.9704 93.9429 19.0353 94.1508 19.1488 94.3245C19.2622 94.4982 19.4191 94.6298 19.5993 94.7024L32.7212 100.06C32.8272 100.104 32.9395 100.127 33.0526 100.125C33.1819 100.126 33.3099 100.097 33.4291 100.041C33.5483 99.9849 33.6563 99.9021 33.7464 99.7977C33.8366 99.6934 33.9072 99.5696 33.954 99.4338C34.0008 99.298 34.0229 99.153 34.0189 99.0074L33.4809 74.5431C33.4456 72.536 32.79 70.6056 31.6273 69.0848C30.4645 67.564 28.8675 66.548 27.1114 66.2121C26.9845 66.1903 26.8553 66.1685 26.7262 66.1491C25.6373 65.9967 24.532 66.1152 23.4881 66.496C22.4441 66.8769 21.4869 67.511 20.6838 68.3537C19.8522 69.2158 19.1987 70.2732 18.7696 71.4513C18.3405 72.6294 18.1463 73.8993 18.2006 75.1713L18.2006 75.1713Z" fill="#CCCCCC"/>
<path d="M38.9898 97.345C38.6795 97.2365 38.3959 97.0477 38.1618 96.7937C37.9277 96.5397 37.7495 96.2275 37.6415 95.8821C37.5334 95.5367 37.4985 95.1676 37.5395 94.8042C37.5805 94.4409 37.6962 94.0934 37.8775 93.7895L33.4277 87.1204L37.2677 86.8525L40.9046 93.2267C41.2939 93.566 41.5649 94.0489 41.6699 94.5908C41.7748 95.1328 41.7072 95.6991 41.4788 96.1904C41.2503 96.6817 40.8757 97.0667 40.4206 97.2778C39.9655 97.489 39.459 97.5128 38.9899 97.345H38.9898Z" fill="#FFB8B8"/>
<path d="M35.8609 92.5826C35.743 92.5286 35.6358 92.4489 35.5454 92.348C35.4551 92.247 35.3833 92.1269 35.3344 91.9945L28.6305 73.9921C28.4989 73.6397 28.4303 73.2614 28.4285 72.8791C28.4267 72.4967 28.4918 72.1176 28.62 71.7636C28.7483 71.4096 28.9372 71.0876 29.1759 70.8159C29.4146 70.5442 29.6985 70.3281 30.0113 70.1802C30.3241 70.0322 30.6598 69.9551 30.999 69.9534C31.3383 69.9517 31.6745 70.0253 31.9885 70.1701C32.3025 70.315 32.5881 70.5281 32.829 70.7974C33.0699 71.0666 33.2613 71.3868 33.3924 71.7395L40.0963 89.7421C40.1954 90.009 40.1965 90.3093 40.0994 90.5771C40.0023 90.845 39.8149 91.0584 39.5783 91.1707L36.6021 92.5786C36.4849 92.6345 36.3591 92.6636 36.2318 92.6643C36.1046 92.665 35.9785 92.6372 35.8609 92.5826L35.8609 92.5826Z" fill="#CCCCCC"/>
<path d="M25.0367 91.9476L31.4757 78.0517C31.5998 77.7845 31.813 77.5836 32.0684 77.4933C32.3237 77.403 32.6005 77.4305 32.8379 77.5699L42.1841 83.0714C42.4212 83.2114 42.5994 83.4516 42.6795 83.7394C42.7596 84.0273 42.7352 84.3392 42.6116 84.6067L36.1726 98.5027C36.0484 98.7699 35.8352 98.9707 35.5799 99.0611C35.3245 99.1514 35.0478 99.1239 34.8104 98.9845L25.4642 93.483C25.2271 93.343 25.0489 93.1028 24.9687 92.8149C24.8886 92.5271 24.913 92.2152 25.0367 91.9476Z" fill="#3F3D56" fill-opacity="0.35"/>
<path d="M29.355 85.5989C29.2405 85.2561 29.0566 84.9482 28.8178 84.6998C28.579 84.4514 28.292 84.2694 27.9797 84.1682C27.6674 84.067 27.3384 84.0495 27.019 84.1171C26.6996 84.1846 26.3987 84.3354 26.1402 84.5574L19.9707 79.9446L19.9602 84.2808L25.8205 87.9964C26.144 88.4144 26.5877 88.6907 27.0739 88.7769C27.5601 88.863 28.0577 88.7534 28.4793 88.4674C28.901 88.1814 29.2199 87.7372 29.38 87.2126C29.5401 86.6881 29.5313 86.1168 29.355 85.5989Z" fill="#FFB8B8"/>
<path d="M21.5547 86.574L16.5126 82.0725C15.9672 81.866 15.4743 81.5135 15.0763 81.0451C14.6784 80.5767 14.3872 80.0065 14.2278 79.3834C14.0684 78.7603 14.0455 78.1028 14.1612 77.4676C14.2768 76.8323 14.5275 76.2381 14.8918 75.7361L19.4699 68.9737C19.788 68.5356 20.2354 68.2411 20.7303 68.1441C21.2253 68.0471 21.7346 68.1541 22.1653 68.4456C22.596 68.737 22.9192 69.1934 23.0759 69.7313C23.2326 70.2693 23.2124 70.8528 23.0188 71.3753L19.3965 78.0537L24.7198 80.8994C24.8435 80.9656 24.9535 81.0606 25.0423 81.1782C25.131 81.2958 25.1967 81.4333 25.2348 81.5816C25.273 81.7299 25.2828 81.8856 25.2636 82.0385C25.2443 82.1914 25.1966 82.338 25.1234 82.4685L22.9746 86.3014C22.9019 86.4307 22.806 86.5415 22.693 86.6264C22.5799 86.7113 22.4524 86.7685 22.3185 86.7943C22.3132 86.7954 22.3078 86.7963 22.3025 86.7972C22.1709 86.8196 22.0367 86.8114 21.9081 86.773C21.7795 86.7346 21.6592 86.6669 21.5547 86.574Z" fill="#CCCCCC"/>
<path d="M22.8277 62.1617C22.8058 62.0897 22.7989 62.0131 22.8074 61.9376C22.8159 61.8621 22.8397 61.7899 22.8768 61.7263C22.9139 61.6628 22.9634 61.6097 23.0216 61.571C23.0797 61.5324 23.145 61.5093 23.2123 61.5035C23.3501 61.5119 23.485 61.5518 23.6087 61.6206C23.7325 61.6894 23.8426 61.7858 23.9324 61.9039C24.1166 62.1432 24.331 62.3507 24.5687 62.5197C24.8149 62.6596 25.1487 62.6396 25.2891 62.373C25.4208 62.1226 25.3305 61.7874 25.2508 61.4965C25.0478 60.7566 24.9342 59.9893 24.9131 59.2151C24.8901 58.3511 24.9983 57.4493 25.4227 56.7754C25.9704 55.9056 26.9499 55.5754 27.8768 55.5994C28.8038 55.6233 29.7157 55.9458 30.6338 56.1497C30.9508 56.22 31.3234 56.256 31.5354 55.9791C31.7608 55.6847 31.678 55.2082 31.5821 54.8107C31.3333 53.7792 31.0693 52.7127 30.4912 51.8796C29.8662 51.014 28.9733 50.4474 27.9925 50.2941C27.0508 50.1626 26.0949 50.2849 25.2034 50.6509C23.7508 51.167 22.4726 52.1705 21.5398 53.5275C20.5782 54.9705 20.1627 56.784 20.3841 58.5714C20.6005 60.1281 21.3324 61.5345 22.4323 62.5071L22.8277 62.1617Z" fill="#2F2E41" fill-opacity="0.23"/>
<path d="M87.2762 136.086C85.9224 135.421 84.7241 134.411 83.7759 133.135C82.8278 131.859 82.1557 130.352 81.8128 128.733C81.4698 127.114 81.4653 125.428 81.7997 123.807C82.1341 122.186 82.7982 120.674 83.7396 119.392C82.6481 120.29 81.7386 121.44 81.0715 122.764C80.4044 124.089 79.9948 125.558 79.87 127.075C79.7453 128.592 79.9081 130.121 80.3478 131.561C80.7875 133.002 81.4939 134.32 82.4203 135.429C83.3466 136.538 84.4716 137.412 85.7207 137.994C86.9697 138.576 88.3142 138.851 89.6649 138.802C91.0156 138.753 92.3417 138.381 93.555 137.71C94.7684 137.04 95.8413 136.086 96.7026 134.912C95.3592 136.019 93.7821 136.709 92.1282 136.915C90.4743 137.121 88.8014 136.835 87.2762 136.086Z" fill="#3F3D56"/>
</g>
<defs>
<clipPath id="clip0_7908_4879">
<rect width="175" height="139" fill="white"/>
</clipPath>
</defs>
</svg>
