<svg width="8" height="30" viewBox="0 0 8 30" fill="none" xmlns="http://www.w3.org/2000/svg">
<path fill-rule="evenodd" clip-rule="evenodd" d="M0.136561 0.574029C2.21027 1.79986 4.8721 2.38599 6.58103 4.16158C8.6466 6.30704 6.04237 8.6627 4.38199 10.0229C3.43186 10.6987 2.62649 11.5577 2.0132 12.5494C1.45505 13.6595 1.32558 14.9363 1.64941 16.1359C1.98532 17.1758 2.61749 18.095 3.46843 18.7806C4.34208 19.4206 5.09119 20.2152 5.67858 21.1251C6.43244 22.6178 5.68864 24.4045 4.76904 25.6414C3.56163 27.1146 2.07309 28.3328 0.390193 29.2249C0.254372 29.3177 0.213416 29.4997 0.296376 29.6417C0.379337 29.7837 0.558026 29.8374 0.705505 29.7646C3.29357 28.2487 6.43041 25.9527 6.60527 22.6552C6.74572 20.0095 4.16469 19.0464 2.83985 17.198C2.05113 16.0393 1.87695 14.5688 2.37298 13.2578C2.94773 12.1095 3.81144 11.1305 4.8792 10.4171C6.54464 9.05783 8.96598 6.82243 7.59661 4.46172C6.8124 3.36515 5.73453 2.5122 4.48709 2.00096C3.15516 1.32388 1.74439 0.796353 0.455883 0.0343793C0.308096 -0.0411796 0.127001 0.0116885 0.0430532 0.154911C-0.0408944 0.29813 0.00141866 0.481974 0.139584 0.574029" fill="#003849"/>
</svg>
