<svg width="18" height="17" viewBox="0 0 18 17" fill="none" xmlns="http://www.w3.org/2000/svg">
<path fill-rule="evenodd" clip-rule="evenodd" d="M0.425788 0.595973C0.414573 5.81325 -0.327534 11.0336 0.173642 16.2468C0.185792 16.5901 0.461239 16.8655 0.804474 16.8776C6.20147 17.388 11.5688 16.1376 16.9606 16.1202C17.2951 16.1011 17.5565 15.8244 17.5565 15.4894C17.5565 15.1544 17.2951 14.8776 16.9606 14.8585C11.5688 14.8759 6.20147 16.1294 0.804474 15.616L1.43537 16.2468C0.93413 11.0336 1.67624 5.81224 1.68751 0.595973C1.66845 0.261491 1.39169 0 1.05662 0C0.721609 0 0.444853 0.261491 0.425788 0.595973Z" fill="#5596A5"/>
</svg>
