<svg width="18" height="17" viewBox="0 0 18 17" fill="none" xmlns="http://www.w3.org/2000/svg">
<path fill-rule="evenodd" clip-rule="evenodd" d="M15.8679 0.596131C15.8791 5.81302 16.6212 11.033 16.1201 16.2458L16.7508 15.615C11.3544 16.1254 5.98739 14.875 0.59596 14.8576C0.261535 14.8767 0 15.1535 0 15.4884C0 15.8234 0.261535 16.1002 0.59596 16.1192C5.98739 16.1366 11.3543 17.39 16.7508 16.8766C17.0944 16.865 17.3701 16.5892 17.3818 16.2458C17.8829 11.033 17.1408 5.81201 17.1296 0.596131C17.1106 0.261597 16.8338 0 16.4987 0C16.1637 0 15.8868 0.261597 15.8679 0.596131Z" fill="#5596A5"/>
</svg>
