<svg width="18" height="17" viewBox="0 0 18 17" fill="none" xmlns="http://www.w3.org/2000/svg">
<path fill-rule="evenodd" clip-rule="evenodd" d="M8.68172 0.0294018C5.29685 -0.261929 2.10202 1.63371 0.735561 4.7442C-0.572762 7.68984 -0.111728 11.1211 1.92762 13.617C4.55687 16.4661 8.54086 17.6367 12.2933 16.6624C16.1259 15.556 17.9005 11.6666 17.5875 7.89186C17.4608 5.9574 16.6415 4.13332 15.2797 2.75353C13.4487 1.13157 11.1265 0.170874 8.68474 0.0252719C8.27667 -0.0201805 8.27982 0.619266 8.68474 0.66369C12.4265 1.0769 15.9967 2.96737 16.8107 6.91048C17.4987 10.242 16.3169 14.2296 13.0433 15.7089C9.63556 17.0024 5.7913 16.295 3.06721 13.8732C0.906179 11.8271 0.100378 8.72838 0.990794 5.8888C1.98462 2.53757 5.20328 0.351714 8.68487 0.663686C9.09811 0.690546 9.09811 0.052128 8.68487 0.0252719" fill="#003849"/>
</svg>
