<svg width="13" height="11" viewBox="0 0 13 11" fill="none" xmlns="http://www.w3.org/2000/svg">
<path fill-rule="evenodd" clip-rule="evenodd" d="M9.79773 1.87114C8.49125 1.43095 7.13649 1.08625 5.85614 0.558617C4.90801 0.106785 3.85406 -0.0764068 2.80901 0.0289909C2.22106 0.114407 1.43419 0.377725 1.3347 1.06111C1.20306 1.95657 2.31553 2.59575 2.95371 2.95353L3.02812 2.38571C2.15077 2.5867 0.781902 2.9284 0.371905 3.84798C-0.130593 4.97558 1.49345 5.68311 2.26529 6.00571V5.40271C1.4372 5.71024 -0.448212 6.40267 0.0975308 7.63983C0.365403 8.10949 0.770432 8.48609 1.25827 8.7192C1.93957 9.0987 2.65081 9.42171 3.38487 9.685C4.859 10.2793 6.39575 10.7048 7.96563 10.9533C8.79476 11.0648 10.1244 11.0538 10.3665 10.0207C10.6088 8.98753 9.57562 8.01067 8.79378 7.52526L8.63699 8.10414C9.63494 8.08203 11.1725 7.81471 11.1414 6.51525C10.956 5.45575 10.2326 4.56908 9.23193 4.17462L8.99277 4.74244C9.82086 4.94344 12.0349 5.40473 12.2469 4.06005C12.4358 2.85406 10.6721 2.13447 9.79976 1.86714C9.41687 1.74957 9.25205 2.34955 9.63396 2.47014C10.1682 2.61475 10.6712 2.85703 11.1173 3.18469C11.3183 3.34248 11.6731 3.65201 11.6369 3.94749C11.5364 4.73842 9.53342 4.23794 9.15857 4.14849C8.82997 4.0691 8.59074 4.55048 8.9194 4.71631C9.67487 5.0107 10.2585 5.62858 10.5093 6.39967C10.6731 7.37252 9.28922 7.47403 8.63896 7.48809C8.50119 7.4925 8.38243 7.58642 8.34637 7.71951C8.31036 7.85259 8.3655 7.99359 8.48217 8.06695C9.02393 8.40465 9.75455 9.00865 9.77663 9.71417C9.80276 10.5403 8.50935 10.4177 7.99679 10.3413C6.7906 10.1277 5.60403 9.81512 4.44918 9.40664C3.27986 9.08922 2.16874 8.58709 1.15779 7.91923C0.89851 7.7273 0.504522 7.41675 0.679403 7.05294C0.953777 6.49014 1.90952 6.2007 2.43214 6.00674C2.56678 5.96829 2.65958 5.84525 2.65958 5.70524C2.65958 5.56523 2.56678 5.44218 2.43214 5.40373C1.99196 5.21982 0.461339 4.62084 1.05327 3.9284C1.65784 3.40776 2.40306 3.07798 3.1949 2.98069C3.31353 2.94538 3.40027 2.8436 3.41634 2.7209C3.43241 2.59821 3.37481 2.47755 3.26931 2.41287C2.9477 2.23196 1.6241 1.54957 2.01907 1.00586C2.36178 0.529496 3.35371 0.579748 3.85118 0.624971C4.75607 0.78924 5.63673 1.06679 6.47224 1.45108C7.51741 1.81891 8.58271 2.11739 9.63494 2.46915C10.0148 2.59678 10.1787 1.9968 9.80074 1.86614" fill="#003849"/>
</svg>
