<svg width="49" height="39" viewBox="0 0 49 39" fill="none" xmlns="http://www.w3.org/2000/svg">
<path fill-rule="evenodd" clip-rule="evenodd" d="M24.7238 7.55542C22.0116 -0.667744 10.6262 -1.16097 4.1479 2.50762C3.3612 2.9479 2.626 3.47451 1.95598 4.07773C1.61913 4.38228 1.30485 4.71096 1.01576 5.06116C0.782651 5.33223 0.667997 5.68535 0.697304 6.04159C0.626979 7.80256 0.570694 9.5635 0.517475 11.3245C0.374189 16.0759 0.25463 20.8277 0.15886 25.5799C0.0764564 29.6242 -0.0601473 33.6815 0.0292459 37.7268C0.0315758 37.837 0.0914779 37.9379 0.187064 37.9928C0.282649 38.0477 0.400062 38.0485 0.496384 37.995C6.16501 35.2757 13.1355 32.903 19.3817 34.9814C21.2127 35.6007 22.8855 36.6143 24.2819 37.9508C24.3828 38.0488 24.5362 38.0684 24.6586 37.999C27.5556 35.7281 31.1021 34.4417 34.7813 34.3274C37.9322 34.4012 41.0299 35.155 43.8623 36.5374C45.4525 37.2566 46.9905 38.0834 48.5134 38.9342C48.6096 38.9884 48.7273 38.9879 48.8232 38.9329C48.919 38.8779 48.9787 38.7765 48.9805 38.666V4.73869C48.9805 4.36903 49.0809 3.90593 48.8268 3.62063C48.3598 3.1972 47.8357 2.84146 47.2698 2.56386C43.2306 0.246422 38.4907 -0.535125 33.9214 0.362915C29.9234 1.11431 25.3337 3.33434 24.1212 7.55642C24.0757 7.72285 24.1737 7.89466 24.3402 7.94016C24.5066 7.98565 24.6784 7.8876 24.7238 7.72116C25.5978 4.67841 28.4829 2.72961 31.3217 1.70899C34.8866 0.456063 38.7428 0.286888 42.4038 1.2228C44.618 1.78193 46.6973 2.78009 48.5184 4.15807L48.3647 3.88985V38.672L48.8318 38.4038C43.1722 35.2385 36.8125 32.4007 30.2478 34.4007C28.1223 35.0799 26.1281 36.1168 24.3512 37.4666L24.7279 37.5148C22.2721 35.2189 19.0921 33.8518 15.7363 33.6494C12.2742 33.4976 8.81652 34.0371 5.56531 35.2365C3.72907 35.8688 1.93238 36.6109 0.18504 37.4585L0.653098 37.7268C0.579768 34.455 0.677194 31.1752 0.737464 27.9044C0.822504 23.2889 0.930352 18.6737 1.06095 14.0588C1.11588 12.0993 1.17615 10.1404 1.24176 8.18225C1.2672 7.44023 1.29467 6.69754 1.32416 5.95418C1.35328 5.251 2.30859 4.56791 2.83796 4.13797C6.02006 1.78093 9.95036 0.660647 13.897 0.985724C18.2597 1.2439 22.6776 3.32328 24.1272 7.71614C24.2517 8.09385 24.8514 7.93211 24.7299 7.55139" fill="#003849"/>
</svg>
