<svg width="2" height="2" viewBox="0 0 2 2" fill="none" xmlns="http://www.w3.org/2000/svg">
<path fill-rule="evenodd" clip-rule="evenodd" d="M1.07864 0.242417L1.02592 0.312664L1.10251 0.213677C0.847106 0.544418 0.55038 0.841125 0.219645 1.09658L0.313876 1.02473L0.243617 1.07902C0.187585 1.10962 0.139836 1.15347 0.104658 1.20675C0.0619762 1.25449 0.0317677 1.31209 0.0168583 1.37439C-0.0170532 1.50264 0.000682128 1.63909 0.0663613 1.75437C0.131553 1.8655 0.237478 1.94683 0.361723 1.98108C0.489768 2.01817 0.627461 2.00024 0.741766 1.93159C1.19986 1.6055 1.60027 1.2051 1.92633 0.746924C1.99308 0.631992 2.01091 0.495128 1.97583 0.366948C1.94173 0.2419 1.86124 0.134556 1.75073 0.0667998C1.63574 0.000468963 1.49893 -0.0173395 1.37079 0.017309L1.25258 0.0667938C1.17959 0.110018 1.11859 0.170971 1.07542 0.244013" fill="#003849"/>
</svg>
