<svg width="16" height="10" viewBox="0 0 16 10" fill="none" xmlns="http://www.w3.org/2000/svg">
<path fill-rule="evenodd" clip-rule="evenodd" d="M15.5005 0.0119802C12.1859 0.641726 8.88465 1.35441 5.59874 2.12035C4.24702 2.43573 2.88418 2.74087 1.56015 3.15661C1.25653 3.22343 0.965976 3.33966 0.699982 3.50066C0.40599 3.83158 0.244181 4.25915 0.245369 4.70179C0.0459989 6.35509 -0.0319992 8.02078 0.0118747 9.6855C0.0136872 9.7981 0.0746231 9.90144 0.172246 9.95752C0.269931 10.0136 0.389928 10.0141 0.48805 9.95886C1.23847 9.42101 1.91108 8.78217 2.48688 8.06042C2.8038 7.61787 3.1723 7.21466 3.58454 6.8593C4.38577 6.32226 5.22962 5.85171 6.1076 5.45236C8.47916 4.26557 10.906 3.19961 13.2754 2.00566C14.1698 1.60921 15.0191 1.11796 15.8087 0.540354C16.1252 0.283333 15.6756 -0.162098 15.3613 0.0918493C14.6781 0.58536 13.9455 1.00644 13.1751 1.34827C12.0487 1.91862 10.907 2.45723 9.76525 2.99584C7.59837 3.91016 5.49611 4.97068 3.47304 6.17011C2.16945 7.02109 1.47515 8.52531 0.167558 9.41002L0.643734 9.68445C0.643734 8.29798 0.658046 6.9064 0.781918 5.52506C0.81573 5.15028 0.823917 4.27069 1.05329 4.02084C1.29828 3.88491 1.56284 3.78784 1.83764 3.73311C4.78669 2.83201 7.85043 2.24015 10.863 1.60017C12.4614 1.26021 14.0629 0.926391 15.6695 0.620223C16.0688 0.544447 15.8999 -0.0658382 15.5005 0.0058397" fill="#003849"/>
</svg>
