<svg width="20" height="18" viewBox="0 0 20 18" fill="none" xmlns="http://www.w3.org/2000/svg">
<path fill-rule="evenodd" clip-rule="evenodd" d="M8.68026 9.3408C9.53837 9.37424 10.7834 9.24963 11.0164 8.22643C11.0803 7.3769 10.703 6.55418 10.0176 6.04836C9.29414 5.35155 8.29913 5.01132 7.30054 5.11937C6.10631 5.43575 5.18303 6.38326 4.89749 7.58518C4.3551 8.87532 4.53342 10.3559 5.36655 11.4804C6.24395 12.4137 7.44857 12.971 8.72788 13.0354C11.8025 13.3525 14.9582 11.7296 15.559 8.49591C16.3077 4.46089 12.6839 1.10057 9.06523 0.243527C5.75857 -0.536534 2.30004 0.536302 0.811858 3.76797C-0.717873 7.0898 0.0723438 11.4054 1.86746 14.474C2.76563 16.1086 4.30093 17.298 6.10816 17.7593C8.15753 18.1533 10.2707 18.0624 12.2787 17.4939C14.2495 17.0495 16.0426 16.0265 17.4281 14.5561C18.4722 13.3266 19.1485 11.8277 19.3792 10.2313C19.8858 7.07055 19.053 3.3587 16.5174 1.22722C15.9154 0.724134 15.2328 0.326475 14.4983 0.051058C14.1214 -0.0927948 13.9583 0.513007 14.3311 0.6589C20.06 2.84104 20.3386 12.0386 15.6167 15.3483C14.0377 16.3906 12.2307 17.0373 10.3487 17.2336C8.52828 17.5867 6.644 17.3925 4.93397 16.6754C3.5002 15.8482 2.39909 14.5476 1.81985 12.997C1.10519 11.37 0.705012 9.62242 0.640583 7.84658C0.581842 4.99177 1.81886 1.94347 4.70296 0.950656C8.08024 -0.0281182 11.7102 1.19356 13.8084 4.01516C14.8858 5.39573 15.2602 7.1987 14.8214 8.89407C14.4104 10.2863 13.3887 11.4161 12.0447 11.9646C10.1198 12.7488 6.92868 12.7974 5.65221 10.8229C4.58041 9.16455 5.62896 5.39394 8.02385 5.73736C8.82483 5.87945 9.54122 6.32279 10.0256 6.97635C10.3549 7.41601 10.6781 8.13832 10.0853 8.50302C9.64707 8.70605 9.16021 8.78053 8.68125 8.7178C8.27613 8.70158 8.27613 9.32564 8.68125 9.34386" fill="#003849"/>
</svg>
