<svg width="11" height="10" viewBox="0 0 11 10" fill="none" xmlns="http://www.w3.org/2000/svg">
<path fill-rule="evenodd" clip-rule="evenodd" d="M10.2519 0.365143C10.1098 3.34701 9.78045 6.31694 9.26559 9.25741L9.62725 8.98146C8.05702 9.03385 6.49098 8.78942 5.01154 8.26098C3.49213 7.79227 2.00837 7.21517 0.571475 6.53409C0.138027 6.332 -0.243984 6.97567 0.193534 7.1808C1.68766 7.89173 3.23087 8.49418 4.81147 8.98349C6.35579 9.53189 7.98943 9.78552 9.62725 9.73123C9.79525 9.72829 9.94179 9.61654 9.98903 9.45538C10.5163 6.44815 10.8538 3.41073 10.9995 0.361104C11.0217 -0.120882 10.272 -0.119864 10.2497 0.361119" fill="#003849"/>
</svg>
