<svg width="127" height="63" viewBox="0 0 127 63" fill="none" xmlns="http://www.w3.org/2000/svg">
<path fill-rule="evenodd" clip-rule="evenodd" d="M32.5794 0L20.09 0.0139994C16.4215 0.0139994 14.097 1.84828 13.1165 5.5168L12.8273 6.60336C12.631 7.28357 12.5247 7.98658 12.5111 8.69443C12.5111 10.9683 13.9552 12.1052 16.8434 12.1052H20.6383C21.9496 12.1052 22.6053 12.4994 22.6053 13.2878C22.6028 13.4606 22.5752 13.6322 22.5233 13.797C22.2298 14.9249 21.3036 15.4889 19.7448 15.4889H10.4471L9.30552 19.711H22.4822C26.1508 19.711 28.48 17.8724 29.4698 14.1952L29.7589 13.1087C29.9466 12.4318 30.0475 11.7339 30.0591 11.0316C30.0591 8.75779 28.615 7.62087 25.7269 7.62087H21.931C20.629 7.62087 19.9733 7.22667 19.964 6.43828C19.9664 6.26545 19.9941 6.09388 20.046 5.92902C20.3488 4.80111 21.2796 4.23716 22.8384 4.23716H31.4488L32.5794 0ZM51.2539 14.1942C49.539 17.9628 45.6557 19.8471 39.604 19.8471C33.8457 19.8471 30.9619 18.1416 30.9525 14.7305C30.9634 14.0133 31.0711 13.3008 31.2727 12.6124L31.6029 11.3338C32.8955 6.51064 36.967 4.09909 43.8171 4.09909C49.5847 4.09909 52.4685 5.79995 52.4685 9.20168C52.4685 9.37578 52.4638 9.54986 52.4545 9.72395H44.1743C44.2669 9.38967 44.3176 9.0452 44.3254 8.69843C44.3254 7.83132 43.8625 7.39777 42.9367 7.39777C41.6987 7.39777 40.8733 8.17717 40.4604 9.73596L39.2598 14.2062C39.1598 14.5366 39.1042 14.8788 39.0947 15.2237C39.0947 16.1042 39.5576 16.5444 40.4834 16.5444C41.7214 16.5444 42.5511 15.7604 42.9727 14.1922L51.2539 14.1942ZM68.9419 19.71H61.9133L64.6087 9.69994C64.7101 9.36477 64.766 9.01749 64.7748 8.66741C64.7748 7.79564 64.3112 7.35975 63.3841 7.35975C62.1361 7.35975 61.3024 8.14449 60.8828 9.71395L58.1974 19.711H51.1478L56.4295 0.000992327H63.4721L62.2065 4.76042C63.6538 4.26495 65.1802 4.04108 66.7088 4.10008C70.1105 4.10008 71.8114 5.41575 71.8114 8.0471C71.7959 8.82997 71.6758 9.60725 71.4542 10.3583L68.9419 19.71ZM92.7781 12.5994C91.4874 17.4312 87.4177 19.8471 80.5688 19.8471C74.7659 19.8471 71.8821 18.1186 71.9174 14.6615C71.9364 13.9633 72.0426 13.2702 72.2336 12.5984L72.5638 11.3328C73.8564 6.50965 77.9278 4.09808 84.778 4.09808C90.5456 4.09808 93.4294 5.80829 93.4294 9.2287C93.4188 9.94008 93.3125 10.6468 93.1132 11.3298L92.7781 12.5994ZM83.9375 14.2132L85.1382 9.74296C85.23 9.41126 85.2807 9.06952 85.2892 8.72544C85.2892 7.845 84.8263 7.40477 83.9005 7.40477C82.6626 7.40477 81.8371 8.18416 81.4243 9.74296L80.2237 14.2132C80.1236 14.5436 80.0681 14.8857 80.0586 15.2308C80.0586 16.1112 80.5215 16.5514 81.4473 16.5514C82.6859 16.5481 83.516 15.7687 83.9375 14.2132ZM114.431 12.5994C113.138 17.4312 109.067 19.8471 102.217 19.8471C96.4139 19.8471 93.5301 18.1186 93.5655 14.6615C93.5844 13.9633 93.6906 13.2702 93.8816 12.5984L94.2118 11.3328C95.5044 6.50965 99.5759 4.09808 106.426 4.09808C112.194 4.09808 115.077 5.80829 115.077 9.2287C115.067 9.94008 114.96 10.6468 114.761 11.3298L114.431 12.5994ZM105.588 14.2132L106.788 9.74296C106.88 9.41126 106.931 9.06952 106.939 8.72544C106.939 7.845 106.476 7.40477 105.551 7.40477C104.313 7.40477 103.487 8.18416 103.074 9.74296L101.874 14.2132C101.774 14.5436 101.718 14.8857 101.709 15.2308C101.709 16.1112 102.172 16.5514 103.097 16.5514C104.335 16.5481 105.165 15.7687 105.588 14.2132ZM120.937 19.716H113.895L119.177 0.00599976H126.219L120.937 19.716Z" fill="white"/>
<path fill-rule="evenodd" clip-rule="evenodd" d="M32.5406 63H0L7.45581 35.2249H20.2944L9.48083 27.621H42.0214L39.9974 35.2249H22.5665L20.8656 41.5201H35.8243L33.7992 49.1H18.8376L17.1588 55.4212H34.5896L32.5406 63ZM75.3764 63L58.9821 62.975L52.859 54.6308L50.6118 63H35.5041L42.9599 35.2249H55.7974L44.9839 27.621H72.4379C77.6226 27.621 80.2149 29.6634 80.2149 33.7481C80.1915 35.0175 80.009 36.279 79.6716 37.503L78.8072 40.6907C77.0296 47.328 72.8572 50.6221 66.2898 50.5727L75.3764 63ZM64.1427 39.1019C64.2501 38.6988 64.3083 38.2843 64.3158 37.8672C64.3158 36.1063 62.9578 35.2259 60.2417 35.2259H58.0686L55.9675 43.0028H58.1456C61.436 43.0022 63.435 41.7019 64.1427 39.1019ZM120.162 40.6957C118.401 47.2864 114.229 50.5817 107.645 50.5817H95.2996L91.9629 63H76.8552L84.311 35.2249H97.1495L86.336 27.621H113.79C118.975 27.621 121.567 29.664 121.567 33.7501C121.544 35.0202 121.361 36.2824 121.024 37.507L120.162 40.6957ZM105.497 39.1019C105.604 38.6988 105.662 38.2842 105.67 37.8672C105.67 36.1063 104.312 35.2259 101.596 35.2259H99.4227L97.3216 43.0028H99.4947C102.788 43.0022 104.788 41.7019 105.497 39.1019Z" fill="white"/>
</svg>
