<svg width="19" height="13" viewBox="0 0 19 13" fill="none" xmlns="http://www.w3.org/2000/svg">
<path fill-rule="evenodd" clip-rule="evenodd" d="M9.5207 12.9643C7.44899 12.9805 5.42382 12.35 3.72738 11.1607C2.04327 10.011 0.744413 8.38075 0 6.48232C0.744856 4.58388 2.04359 2.9534 3.72738 1.80287C5.42424 0.614563 7.44919 -0.0154658 9.5207 0.000359273C11.5861 -0.0172541 13.6049 0.613155 15.2933 1.80287C16.9678 2.95823 18.2586 4.58782 18.9999 6.48232C18.2591 8.37711 16.9682 10.0068 15.2933 11.1618C13.6052 12.3521 11.5861 12.9825 9.52072 12.9643H9.5207ZM9.5207 2.14719C8.3692 2.1338 7.26299 2.5952 6.46226 3.42284C5.63377 4.22349 5.17193 5.33025 5.18557 6.48232C5.17206 7.63436 5.63386 8.74107 6.46226 9.5418C7.26298 10.3694 8.3692 10.8308 9.52072 10.8175C10.6666 10.8329 11.7672 10.3707 12.5584 9.5418C13.3756 8.73514 13.8291 7.63048 13.8144 6.48232C13.8292 5.33412 13.3757 4.22941 12.5584 3.42282C11.7671 2.59389 10.6666 2.13172 9.5207 2.14718V2.14719ZM9.49997 9.07511C8.8142 9.08732 8.15379 8.81603 7.67464 8.32528C7.18324 7.83955 6.91321 7.1731 6.92791 6.48232C6.9131 5.79149 7.18314 5.12502 7.67465 4.63936C8.15379 4.14861 8.8142 3.87732 9.49997 3.88954C10.1906 3.88033 10.8557 4.15076 11.344 4.63938C11.8474 5.11867 12.1266 5.7873 12.1135 6.48232C12.1265 7.17733 11.8473 7.84591 11.3439 8.32528C10.8557 8.81388 10.1906 9.08432 9.49997 9.07511Z" fill="#C6CBD4"/>
</svg>
