<svg width="1" height="2" viewBox="0 0 1 2" fill="none" xmlns="http://www.w3.org/2000/svg">
<path fill-rule="evenodd" clip-rule="evenodd" d="M0.420282 0.148834C0.285723 0.417831 0.175306 0.697838 0.0407476 0.967835C0.000857845 1.04049 -0.0102328 1.12541 0.00968137 1.20583C0.0318627 1.2833 0.0828431 1.34946 0.152206 1.39084C0.224816 1.43456 0.312071 1.44717 0.394179 1.42583C0.472733 1.40539 0.539706 1.35419 0.579902 1.28384C0.7144 1.01384 0.824816 0.733833 0.959375 0.464836C0.999081 0.392113 1.01017 0.307266 0.990503 0.226837C0.968137 0.14946 0.917157 0.083374 0.847917 0.0418396C0.775613 0.000297546 0.689583 -0.0108566 0.609007 0.0108414C0.53076 0.0319977 0.464032 0.0830154 0.423284 0.15284" fill="#003849"/>
</svg>
