<svg width="34" height="51" viewBox="0 0 34 51" fill="none" xmlns="http://www.w3.org/2000/svg">
<path fill-rule="evenodd" clip-rule="evenodd" d="M0.749917 50.7521C3.99739 43.2382 7.93038 36.0395 12.4989 29.2473C14.6392 25.9926 16.9063 22.8336 19.128 19.6363C21.2793 16.5418 23.2796 13.3455 25.4037 10.2339C27.6535 6.74599 30.291 3.52417 33.266 0.630048C33.6203 0.303891 33.0898 -0.223616 32.7375 0.102549C27.2379 5.17626 23.4981 11.8808 19.3385 18.0136C17.1419 21.2551 14.8224 24.4101 12.649 27.6697C10.394 31.0512 8.22758 34.4931 6.21826 38.0275C3.90835 42.0765 1.84201 46.2597 0.0301687 50.5547C-0.155083 50.9967 0.566693 51.19 0.749917 50.7561" fill="#003849"/>
</svg>
