<svg width="36" height="32" viewBox="0 0 36 32" fill="none" xmlns="http://www.w3.org/2000/svg">
<path fill-rule="evenodd" clip-rule="evenodd" d="M3.83647 30.977C-0.0667631 24.3674 -0.593464 15.4478 3.17131 8.65318C4.92541 5.38538 7.81313 2.87118 11.2912 1.58362C15.6523 0.0625673 20.4406 0.349041 24.5892 2.37924C26.8059 3.53337 28.7839 5.09727 30.4183 6.98814C31.3077 7.9988 32.1235 9.07179 32.8598 10.1989C33.8273 11.6039 34.6862 13.0809 35.4286 14.6168L35.5398 14.1892C31.6983 16.3799 27.7474 18.3805 23.823 20.4125C18.9137 22.9534 13.9938 25.4757 9.063 27.9795C7.17598 28.9413 5.28885 29.903 3.40183 30.8647C3.04395 31.0487 3.35938 31.5876 3.71726 31.4046C7.6532 29.3908 11.5911 27.381 15.5311 25.3753C20.4525 22.857 25.3707 20.3337 30.2596 17.7537C32.1329 16.765 34.0082 15.7784 35.8482 14.729C35.9932 14.6389 36.0425 14.4511 35.9604 14.3014C35.2702 12.8771 34.479 11.5041 33.5928 10.1929C32.9301 9.15676 32.2057 8.16154 31.4233 7.21259C29.9441 5.38734 28.1763 3.81646 26.1896 2.56222C22.127 0.119936 17.2624 -0.61361 12.6601 0.522134C8.91146 1.44966 5.64142 3.73724 3.48476 6.94065C1.33107 10.2311 0.133403 14.0551 0.0252984 17.9863C-0.187578 22.6429 0.94579 27.2622 3.28966 31.2914C3.37691 31.4404 3.56819 31.4906 3.71726 31.4035C3.86634 31.3164 3.91656 31.125 3.82956 30.976" fill="#003849"/>
</svg>
