<svg width="11" height="10" viewBox="0 0 11 10" fill="none" xmlns="http://www.w3.org/2000/svg">
<path fill-rule="evenodd" clip-rule="evenodd" d="M0.00246637 0.357007C0.14829 3.4059 0.485751 6.44255 1.01269 9.44905C1.05881 9.61096 1.20599 9.72318 1.37432 9.7248C3.01224 9.77921 4.64577 9.52562 6.19009 8.97724C7.77029 8.48807 9.31319 7.88575 10.8069 7.17499C11.2432 6.97296 10.8624 6.32338 10.429 6.52846C8.99256 7.20938 7.5091 7.78634 5.99013 8.25493C4.51055 8.78335 2.94453 9.02772 1.37432 8.97522L1.73601 9.25101C1.22147 6.31123 0.892209 3.34207 0.750022 0.361015C0.728812 -0.118833 -0.0207791 -0.121854 0.000431614 0.36103" fill="#003849"/>
</svg>
