<svg width="5" height="5" viewBox="0 0 5 5" fill="none" xmlns="http://www.w3.org/2000/svg">
<path fill-rule="evenodd" clip-rule="evenodd" d="M4.98458 4.20843C5.0588 3.26927 4.75516 2.33934 4.14106 1.62494C3.6243 0.824961 2.82562 0.248584 1.90353 0.0102658C1.4406 -0.0405018 0.97687 0.0984932 0.618195 0.395506C0.259453 0.69252 0.0364709 1.12221 0 1.58649C0.0084473 2.63037 0.606463 3.57972 1.54438 4.03816C2.48773 4.73575 3.70468 4.9482 4.82864 4.61153C4.98921 4.51581 5.04344 4.30911 4.95059 4.1469C4.85298 3.98883 4.64857 3.93518 4.48592 4.02498C4.35264 4.07055 4.21433 4.10007 4.07401 4.11284C3.89052 4.12328 3.70649 4.11445 3.52481 4.08649C3.07991 4.01209 2.64977 3.8671 2.25067 3.657C1.57951 3.3088 0.773264 2.69919 0.675516 1.93469C0.651716 1.58443 0.766492 1.23885 0.995173 0.972471C1.08327 0.863159 1.19623 0.776524 1.32468 0.719839C1.43986 0.670413 1.56584 0.65149 1.69047 0.664915C1.7091 0.664915 1.80028 0.674804 1.77615 0.671502L1.86404 0.689067C1.94945 0.709264 2.03345 0.734941 2.11558 0.765948C2.26897 0.831884 2.416 0.911664 2.55491 1.00432C2.88509 1.22938 3.18108 1.50093 3.43363 1.81056C3.72432 2.15489 3.96272 2.54018 4.14106 2.95403C4.22003 3.14812 4.28037 3.34931 4.3212 3.55485C4.33729 3.63661 4.3454 3.71976 4.34533 3.80309C4.34533 3.84923 4.34533 3.89425 4.34533 3.93928C4.34533 3.95576 4.34533 3.97224 4.34533 3.98982C4.33762 4.09967 4.3574 3.92611 4.34533 4.02936C4.30115 4.20941 4.40527 4.39264 4.5826 4.44676C4.76314 4.49463 4.94878 4.38912 5 4.2095" fill="#003849"/>
</svg>
