<svg width="2" height="3" viewBox="0 0 2 3" fill="none" xmlns="http://www.w3.org/2000/svg">
<path fill-rule="evenodd" clip-rule="evenodd" d="M1.30077 0.124842C0.734329 0.770981 0.297584 1.52009 0.0142834 2.33131C-0.0447274 2.5512 0.0839863 2.7777 0.303216 2.83947C0.522853 2.8939 0.746572 2.76615 0.811296 2.54928C0.840761 2.46102 0.872837 2.37142 0.906219 2.28183L0.932991 2.21631C0.975759 2.112 0.911606 2.26177 0.932991 2.20293L0.990532 2.07589C1.07076 1.90205 1.16169 1.73356 1.25792 1.56908C1.35423 1.40459 1.45323 1.25749 1.56015 1.10772L1.64177 0.99673L1.67246 0.956614C1.64308 0.995394 1.68854 0.936556 1.69385 0.9312C1.75408 0.854978 1.81562 0.780092 1.87847 0.706543C2.04016 0.545181 2.04048 0.283245 1.87912 0.121506C1.71776 -0.0402332 1.45576 -0.0405393 1.29407 0.120832" fill="#003849"/>
</svg>
