<svg width="26" height="18" viewBox="0 0 26 18" fill="none" xmlns="http://www.w3.org/2000/svg">
<path fill-rule="evenodd" clip-rule="evenodd" d="M17.2575 0.248646C16.9011 -0.088459 16.3415 -0.0819745 15.993 0.263266C15.6445 0.608538 15.6328 1.16801 15.9665 1.52757L22.5155 8.07653H0.902086C0.403908 8.07653 3.05875e-05 8.48041 3.05875e-05 8.97859C-0.00385402 9.48084 0.39987 9.89129 0.902086 9.89569H22.5155L15.9665 16.4356C15.6171 16.7954 15.6171 17.3678 15.9665 17.7276C16.1363 17.9018 16.3693 18 16.6125 18C16.8558 18 17.0887 17.9018 17.2585 17.7276L25.358 9.62606C25.5314 9.45857 25.6294 9.22775 25.6294 8.9866C25.6294 8.74548 25.5314 8.51467 25.358 8.34714L17.2575 0.248646Z" fill="white"/>
</svg>
