<svg width="17" height="21" viewBox="0 0 17 21" fill="none" xmlns="http://www.w3.org/2000/svg">
<path fill-rule="evenodd" clip-rule="evenodd" d="M0.627357 20.9016C2.45789 18.9321 3.35612 16.2723 3.09438 13.5963C2.72627 11.6254 2.15276 9.6986 1.38316 7.84729C0.70482 6.2147 0.493256 4.4258 0.772026 2.68001C1.14275 1.26519 2.9803 -0.0335174 4.38801 0.896459C5.57571 1.6818 5.79063 3.60897 5.94643 4.88934C6.15016 6.53437 6.15016 8.19467 6.34164 9.84173C6.427 10.4156 6.54295 10.9844 6.68898 11.5458C6.90192 12.5054 6.75215 13.5229 6.99455 14.4824C7.11883 14.9591 7.43664 15.7048 7.98467 15.826C8.47053 15.9278 8.80867 15.4837 9.02564 15.1191C9.40481 14.3867 9.73655 13.6307 10.0187 12.8558C10.1608 12.4987 10.3347 12.155 10.5382 11.829C10.8092 11.4216 11.0261 11.3727 11.5324 11.3472C14.304 11.2117 15.2299 14.3174 16.0845 16.3964C16.2362 16.7661 16.8464 16.6001 16.6957 16.2293C15.9501 14.4152 15.2136 11.8973 13.262 11.0192C12.4296 10.6252 11.4754 10.5754 10.6065 10.8807C10.1018 11.2586 9.7299 11.7867 9.54414 12.3892C9.23851 13.0819 8.99101 13.8041 8.65486 14.4835C8.42365 14.951 8.20363 15.502 7.83185 14.8613C7.47077 13.8983 7.31031 12.8716 7.36023 11.8443C7.29508 11.2331 7.07506 10.6515 6.99356 10.0363C6.77148 8.34949 6.78473 6.63927 6.58609 4.95045C6.41805 3.53155 6.19399 1.80503 5.1601 0.723293C4.01705 -0.266965 2.31154 -0.2371 1.20386 0.792558C-0.111098 1.89875 -0.120299 3.81778 0.121107 5.37623C0.545541 7.30089 1.13193 9.18623 1.87411 11.0121C2.40405 12.4939 2.60697 14.0729 2.46895 15.6406C2.21443 17.439 1.41778 19.1172 0.185266 20.4514C-0.0795153 20.757 0.36357 21.2031 0.63146 20.8975" fill="#003849"/>
</svg>
