<svg width="1" height="1" viewBox="0 0 1 1" fill="none" xmlns="http://www.w3.org/2000/svg">
<path fill-rule="evenodd" clip-rule="evenodd" d="M0.0911815 0.529576C0.218138 0.655218 0.344362 0.781867 0.469912 0.909517C0.528804 0.966642 0.607387 0.998944 0.689335 0.99974C0.730736 1.00169 0.771832 0.992696 0.808586 0.973674C0.846869 0.961059 0.881299 0.938989 0.908818 0.909513C0.966793 0.85113 0.999511 0.772283 1 0.689968C0.998471 0.607868 0.965937 0.529392 0.908818 0.470424L0.530027 0.090487C0.471013 0.0336181 0.392551 0.0013614 0.310604 0.000260042C0.269264 -0.00168645 0.228168 0.00730795 0.191414 0.0263293C0.153192 0.039056 0.118762 0.0611061 0.0911815 0.0904832C0.0332681 0.148932 0.000550391 0.22774 0 0.310035C0.00159002 0.392113 0.0341854 0.470554 0.0911815 0.529576Z" fill="#003849"/>
</svg>
