<svg width="375" height="813" viewBox="0 0 375 813" fill="none" xmlns="http://www.w3.org/2000/svg">
<rect width="375" height="813" fill="url(#paint0_linear_7908_3281)"/>
<g opacity="0.35">
<circle cx="314.418" cy="86.262" r="5.61" fill="white" fill-opacity="0.2"/>
<path fill-rule="evenodd" clip-rule="evenodd" d="M314.419 92.836C314.168 92.8362 313.926 92.7365 313.748 92.5587C313.57 92.3809 313.47 92.1396 313.47 91.888V80.636C313.47 80.3844 313.57 80.1431 313.748 79.9653C313.926 79.7875 314.168 79.6877 314.419 79.688C314.943 79.688 315.367 80.1124 315.367 80.636V91.888C315.367 92.4115 314.943 92.836 314.419 92.836Z" fill="white" fill-opacity="0.298039"/>
<path fill-rule="evenodd" clip-rule="evenodd" d="M320.992 86.262C320.992 86.5136 320.892 86.755 320.715 86.933C320.537 87.111 320.296 87.211 320.044 87.211L308.792 87.211C308.54 87.211 308.299 87.111 308.121 86.933C307.943 86.755 307.844 86.5136 307.844 86.262V86.262C307.844 85.7384 308.268 85.314 308.792 85.314H320.044C320.568 85.314 320.992 85.7384 320.992 86.262Z" fill="white" fill-opacity="0.298039"/>
<path fill-rule="evenodd" clip-rule="evenodd" d="M318.398 86.262C318.398 86.7861 317.973 87.211 317.449 87.211L311.387 87.211C310.863 87.211 310.438 86.7861 310.438 86.262V86.262C310.438 85.7383 310.863 85.314 311.387 85.314H317.449C317.701 85.3137 317.942 85.4135 318.12 85.5913C318.298 85.7691 318.398 86.0104 318.398 86.262V86.262Z" fill="white"/>
<path fill-rule="evenodd" clip-rule="evenodd" d="M314.419 90.242C314.167 90.2422 313.926 90.1423 313.748 89.9643C313.57 89.7863 313.47 89.5448 313.47 89.293V83.231C313.47 82.7069 313.895 82.282 314.419 82.282C314.943 82.2825 315.367 82.7073 315.367 83.231V89.293C315.367 89.5446 315.268 89.786 315.09 89.964C314.912 90.142 314.671 90.242 314.419 90.242Z" fill="white"/>
<circle cx="59.4992" cy="126.474" r="5.61" fill="white" fill-opacity="0.2"/>
<path fill-rule="evenodd" clip-rule="evenodd" d="M59.502 133.048C58.9784 133.048 58.554 132.624 58.554 132.1V120.848C58.554 120.324 58.9784 119.9 59.502 119.9C59.7535 119.9 59.9949 120 60.1729 120.177C60.3509 120.355 60.4509 120.596 60.4509 120.848V132.1C60.4509 132.352 60.3509 132.593 60.1729 132.771C59.9949 132.949 59.7535 133.048 59.502 133.048Z" fill="white" fill-opacity="0.298039"/>
<path fill-rule="evenodd" clip-rule="evenodd" d="M66.0731 126.474C66.0733 126.726 65.9734 126.967 65.7954 127.145C65.6174 127.323 65.3759 127.423 65.1241 127.423L53.873 127.423C53.6215 127.423 53.3802 127.323 53.2023 127.145C53.0245 126.967 52.9248 126.726 52.925 126.474V126.474C52.925 125.95 53.3495 125.526 53.873 125.526H65.124C65.3756 125.526 65.617 125.625 65.795 125.803C65.973 125.981 66.0731 126.222 66.0731 126.474Z" fill="white" fill-opacity="0.298039"/>
<path fill-rule="evenodd" clip-rule="evenodd" d="M63.479 126.474C63.4792 126.726 63.3795 126.967 63.2017 127.145C63.0239 127.323 62.7826 127.423 62.531 127.423L56.469 127.423C55.9449 127.423 55.52 126.998 55.52 126.474V126.474C55.5205 125.95 55.9452 125.526 56.4689 125.526H62.531C63.0546 125.526 63.479 125.95 63.479 126.474Z" fill="white"/>
<path fill-rule="evenodd" clip-rule="evenodd" d="M59.502 130.454C58.9782 130.453 58.554 130.029 58.554 129.505V123.443C58.5537 123.191 58.6534 122.95 58.8313 122.772C59.0091 122.594 59.2504 122.494 59.502 122.494C59.7537 122.494 59.9952 122.594 60.1733 122.772C60.3513 122.95 60.4512 123.191 60.4509 123.443V129.505C60.4509 130.029 60.0261 130.454 59.502 130.454Z" fill="white"/>
<path fill-rule="evenodd" clip-rule="evenodd" d="M33.546 78.0191C33.5457 77.1846 34.2224 76.5074 35.0574 76.5071C35.8925 76.5068 36.5696 77.1835 36.5699 78.0185C36.5702 78.8536 35.8935 79.5308 35.0585 79.5311C34.6573 79.5312 34.2726 79.372 33.989 79.0884C33.7053 78.8048 33.5459 78.4202 33.5459 78.0191H33.546Z" fill="#FFEDB2"/>
<path fill-rule="evenodd" clip-rule="evenodd" d="M95.063 135.929C95.0635 135.094 95.7407 134.418 96.5757 134.418C97.4106 134.418 98.0872 135.095 98.0869 135.93C98.0867 136.765 97.4098 137.442 96.5748 137.442C96.1737 137.442 95.7891 137.282 95.5055 136.999C95.2219 136.715 95.0629 136.33 95.0631 135.929H95.063Z" fill="#FFEDB2"/>
<path fill-rule="evenodd" clip-rule="evenodd" d="M348.394 124.269C348.394 123.657 348.763 123.106 349.328 122.872C349.893 122.638 350.543 122.768 350.976 123.2C351.408 123.633 351.537 124.283 351.303 124.848C351.068 125.413 350.517 125.781 349.905 125.781C349.071 125.781 348.394 125.104 348.394 124.269H348.394Z" fill="#FFEDB2"/>
<path fill-rule="evenodd" clip-rule="evenodd" d="M247.441 79.6881C247.441 79.077 247.809 78.5256 248.374 78.2914C248.939 78.0571 249.589 78.1863 250.022 78.6186C250.454 79.0509 250.584 79.7012 250.35 80.2662C250.116 80.8313 249.565 81.1999 248.953 81.2001C248.552 81.2002 248.168 81.0409 247.884 80.7574C247.6 80.4738 247.441 80.0892 247.441 79.6881Z" fill="#FFEDB2"/>
<path fill-rule="evenodd" clip-rule="evenodd" d="M241.12 118.51C241.119 117.898 241.488 117.346 242.053 117.112C242.618 116.877 243.269 117.006 243.702 117.439C244.135 117.871 244.265 118.522 244.031 119.088C243.797 119.653 243.245 120.022 242.633 120.022C241.798 120.022 241.12 119.345 241.12 118.51H241.12Z" fill="#FFEDB2"/>
<path fill-rule="evenodd" clip-rule="evenodd" d="M332.026 76.503C332.026 75.8911 332.394 75.3394 332.96 75.1052C333.525 74.871 334.176 75.0005 334.609 75.4332C335.041 75.8659 335.171 76.5167 334.937 77.0821C334.702 77.6474 334.151 78.0161 333.539 78.016C332.703 78.016 332.026 77.3386 332.026 76.503Z" fill="#FFEDB2"/>
<path fill-rule="evenodd" clip-rule="evenodd" d="M162.36 89.7821C162.36 89.1701 162.728 88.6184 163.294 88.3842C163.859 88.1501 164.51 88.2795 164.943 88.7122C165.375 89.145 165.505 89.7958 165.271 90.3611C165.036 90.9265 164.485 91.2951 163.873 91.2951C163.471 91.2953 163.086 91.136 162.803 90.8522C162.519 90.5684 162.36 90.1834 162.36 89.7821Z" fill="#FFEDB2"/>
<path fill-rule="evenodd" clip-rule="evenodd" d="M18 107.979C18.0002 107.143 18.6774 106.467 19.5125 106.467C20.3475 106.467 21.0242 107.144 21.024 107.98C21.0237 108.815 20.3465 109.491 19.5115 109.491C18.6766 109.491 18 108.814 18 107.979Z" fill="#FFEDB2"/>
</g>
<path fill-rule="evenodd" clip-rule="evenodd" d="M29 223H346C362.016 223 375 233.941 375 247.436V812H0V247.436C1.90735e-06 233.941 12.9837 223 29 223Z" fill="white"/>
<path d="M16 137C16 128.716 22.7157 122 31 122H244C252.284 122 259 128.716 259 137V155C259 163.284 252.284 170 244 170H31C22.7157 170 16 163.284 16 155V137Z" fill="white"/>
<path d="M16.5 137C16.5 128.992 22.9919 122.5 31 122.5H244C252.008 122.5 258.5 128.992 258.5 137V155C258.5 163.008 252.008 169.5 244 169.5H31C22.9919 169.5 16.5 163.008 16.5 155V137Z" stroke="#FDFDFF" stroke-opacity="0.96"/>
<g filter="url(#filter0_d_7908_3281)">
<path d="M303 132C303 123.716 309.716 117 318 117H341C349.284 117 356 123.716 356 132V150C356 158.284 349.284 165 341 165H318C309.716 165 303 158.284 303 150V132Z" fill="white" fill-opacity="0.01" shape-rendering="crispEdges"/>
<path d="M303.5 132C303.5 123.992 309.992 117.5 318 117.5H341C349.008 117.5 355.5 123.992 355.5 132V150C355.5 158.008 349.008 164.5 341 164.5H318C309.992 164.5 303.5 158.008 303.5 150V132Z" stroke="white" stroke-opacity="0.01" shape-rendering="crispEdges"/>
</g>
<rect x="18.5" y="381.5" width="83" height="318" rx="19.5" transform="rotate(-90 18.5 381.5)" stroke="#5345F5"/>
<mask id="mask0_7908_3281" style="mask-type:alpha" maskUnits="userSpaceOnUse" x="18" y="298" width="319" height="84">
<path d="M30 382C23.3726 382 18 376.627 18 370L18 310C18 303.373 23.3726 298 30 298H325C331.627 298 337 303.373 337 310V370C337 376.627 331.627 382 325 382L30 382Z" fill="white"/>
</mask>
<g mask="url(#mask0_7908_3281)">
<rect x="16.7539" y="382" width="84" height="17.4453" transform="rotate(-90 16.7539 382)" fill="#0C46C4"/>
</g>
<path fill-rule="evenodd" clip-rule="evenodd" d="M285.5 341C285.5 337.548 286.72 334.602 289.161 332.161C291.602 329.72 294.548 328.5 298 328.5C301.452 328.5 304.398 329.72 306.839 332.161C309.28 334.602 310.5 337.548 310.5 341C310.5 344.452 309.28 347.398 306.839 349.839C304.398 352.28 301.452 353.5 298 353.5C294.548 353.5 291.602 352.28 289.161 349.839C286.72 347.398 285.5 344.452 285.5 341Z" stroke="#0A05F2"/>
<rect x="16.5" y="480.5" width="83" height="324" rx="19.5" transform="rotate(-90 16.5 480.5)" stroke="#5345F5"/>
<mask id="mask1_7908_3281" style="mask-type:alpha" maskUnits="userSpaceOnUse" x="16" y="397" width="325" height="84">
<path d="M28 481C21.3726 481 16 475.627 16 469L16 409C16 402.373 21.3726 397 28 397H329C335.627 397 341 402.373 341 409V469C341 475.627 335.627 481 329 481L28 481Z" fill="white"/>
</mask>
<g mask="url(#mask1_7908_3281)">
<rect x="14.7305" y="481" width="84" height="17.7734" transform="rotate(-90 14.7305 481)" fill="#0C46C4"/>
</g>
<defs>
<filter id="filter0_d_7908_3281" x="299" y="117" width="61" height="56" filterUnits="userSpaceOnUse" color-interpolation-filters="sRGB">
<feFlood flood-opacity="0" result="BackgroundImageFix"/>
<feColorMatrix in="SourceAlpha" type="matrix" values="0 0 0 0 0 0 0 0 0 0 0 0 0 0 0 0 0 0 127 0" result="hardAlpha"/>
<feOffset dy="4"/>
<feGaussianBlur stdDeviation="2"/>
<feComposite in2="hardAlpha" operator="out"/>
<feColorMatrix type="matrix" values="0 0 0 0 0 0 0 0 0 0 0 0 0 0 0 0 0 0 0.25 0"/>
<feBlend mode="normal" in2="BackgroundImageFix" result="effect1_dropShadow_7908_3281"/>
<feBlend mode="normal" in="SourceGraphic" in2="effect1_dropShadow_7908_3281" result="shape"/>
</filter>
<linearGradient id="paint0_linear_7908_3281" x1="584.062" y1="392.272" x2="-49.594" y2="112.208" gradientUnits="userSpaceOnUse">
<stop stop-color="#2855AE"/>
<stop offset="1" stop-color="#7292CF"/>
</linearGradient>
</defs>
</svg>
