<svg width="24" height="23" viewBox="0 0 24 23" fill="none" xmlns="http://www.w3.org/2000/svg">
<path fill-rule="evenodd" clip-rule="evenodd" d="M11.7429 0.0403431C7.17659 -0.355693 2.86319 2.19366 1.00813 6.38495C-0.772263 10.3653 -0.162562 15.0088 2.58505 18.3946C6.13459 22.2542 11.5167 23.8533 16.5978 22.5579C19.0173 21.8936 21.0742 20.2961 22.3165 18.1161C23.5324 15.8237 24.0477 13.2243 23.7981 10.6414C23.635 8.34404 22.756 6.15564 21.2845 4.38383C19.4225 2.3471 16.9538 0.964625 14.2443 0.441375C13.4198 0.259014 12.5858 0.123764 11.7459 0.0362906C11.3458 -0.00725503 11.3488 0.61961 11.7459 0.662147C14.6522 0.854189 17.4337 1.91553 19.7291 3.70837C21.4015 5.15827 22.5442 7.12299 22.9779 9.29344C23.9307 13.8962 22.3024 19.4033 17.7897 21.4601C13.4563 23.4359 7.54214 22.1457 4.06146 19.0174C1.02705 16.207 -0.12869 11.9065 1.08812 7.95363C2.36945 3.23661 6.88509 0.147175 11.7459 0.662143C12.151 0.689487 12.151 0.0636341 11.7459 0.0362945" fill="#003849"/>
</svg>
