<svg width="26" height="28" viewBox="0 0 26 28" fill="none" xmlns="http://www.w3.org/2000/svg">
<path fill-rule="evenodd" clip-rule="evenodd" d="M0.560446 27.6185C0.180099 22.041 -0.706752 16.97 1.06795 11.5217C1.57546 10.1274 2.84265 5.30961 4.99783 6.32463C6.51934 6.95825 6.26503 11.0152 6.77253 12.2825C9.05486 9.74699 9.05486 5.31064 11.8436 3.02838C15.6463 -0.267863 14.3791 5.6941 14.5093 7.84716C17.0448 6.70603 20.9747 -1.02657 24.397 0.114564C27.5662 1.2557 19.7065 8.60792 18.8196 10.1294C20.341 10.3827 21.9887 9.36867 23.6383 9.49582C26.0467 9.62294 26.9346 11.1434 24.6523 12.6649C22.244 14.0593 16.0319 13.9322 15.0148 16.9711C16.5363 17.7318 23.2549 16.0832 22.8745 19.3794C22.4942 21.7878 16.4091 22.1682 14.6344 22.6757C9.69053 23.9429 5.50946 25.9719 0.94292 27.9999" fill="#4094A8"/>
</svg>
