<svg width="11" height="14" viewBox="0 0 11 14" fill="none" xmlns="http://www.w3.org/2000/svg">
<path fill-rule="evenodd" clip-rule="evenodd" d="M1.85165 12.7696C2.7306 11.7233 3.32127 10.4657 3.56505 9.12107C3.70124 7.93563 3.75318 6.74202 3.72054 5.54924C3.92078 4.17548 3.87128 2.77684 3.57454 1.42064C3.43277 0.820402 3.01388 0.323459 2.44623 0.0822574C1.76002 -0.118357 1.01886 0.0536922 0.491156 0.53608C-0.693838 1.7505 0.491156 3.9272 1.66358 4.65524C4.03992 6.12598 5.76063 3.44921 6.67254 1.61499L6.06745 1.4511C6.00442 2.85881 6.01281 5.19416 7.4909 5.94005C8.8251 6.61239 10.2559 5.54504 10.7234 4.31591C11.0281 3.51541 11.0386 1.77782 9.70963 2.14236C8.97931 2.45383 8.36062 2.97947 7.93531 3.64987C7.28809 4.51284 6.74468 5.449 6.31642 6.43904C5.3109 8.7312 4.57346 11.1318 4.11872 13.5932C4.03992 14.0019 4.66605 14.1762 4.74902 13.7655C5.06263 12.1411 5.48736 10.5402 6.02019 8.97401C6.54815 7.24664 7.34323 5.61254 8.37652 4.13104C8.70218 3.6982 10.3726 1.83035 10.2675 3.41771C10.2416 4.52921 9.35421 5.42808 8.24309 5.46837C6.59271 5.36331 6.661 2.61195 6.71249 1.44901C6.70941 1.30409 6.61118 1.17854 6.47127 1.14065C6.33136 1.10275 6.18318 1.16158 6.10739 1.28514C5.4308 2.65082 4.25632 5.01559 2.36011 4.2802C1.66224 3.97837 1.11959 3.40227 0.859972 2.6876C0.649852 2.16233 0.516419 1.34291 1.0154 0.924789C1.45577 0.569262 2.07914 0.550795 2.53978 0.879617C2.87923 1.27927 3.0778 1.77945 3.10493 2.3031C3.20111 3.37278 3.18918 4.44941 3.06921 5.51668C3.01144 6.54516 3.14173 7.55578 2.99253 8.5874C2.81806 9.95413 2.26208 11.2441 1.38838 12.3094C1.12158 12.6246 1.5785 13.0889 1.84748 12.7696" fill="#003849"/>
</svg>
