<svg width="375" height="813" viewBox="0 0 375 813" fill="none" xmlns="http://www.w3.org/2000/svg">
<rect width="375" height="813" fill="url(#paint0_linear_0_3)"/>
<rect x="0.5" y="0.5" width="374" height="812" stroke="#707070"/>
<mask id="mask0_0_3" style="mask-type:luminance" maskUnits="userSpaceOnUse" x="0" y="428" width="375" height="385">
<rect y="428" width="375" height="385" fill="white"/>
</mask>
<g mask="url(#mask0_0_3)">
<ellipse opacity="0.2" cx="186.123" cy="769.772" rx="167.424" ry="8.99" fill="#71ABDE"/>
<path fill-rule="evenodd" clip-rule="evenodd" d="M170.547 653.565C170.547 653.565 183.384 651.482 189.773 653.782C194.396 655.445 199.945 659.414 201.433 671.405C201.433 671.405 186.149 675.905 170.548 676.053C170.547 676.054 168.147 662.033 170.547 653.565Z" fill="#F3AE92"/>
<path opacity="0.5" fill-rule="evenodd" clip-rule="evenodd" d="M182.147 675.238C182.559 671.698 182.927 665.729 181.347 662.123C180.047 659.152 175.699 656.685 170.028 655.852C168.536 664.334 170.541 676.052 170.541 676.052C174.422 675.999 178.297 675.727 182.147 675.238H182.147Z" fill="#EB7C74"/>
<path opacity="0.2" fill-rule="evenodd" clip-rule="evenodd" d="M189.773 653.782C186.668 652.889 183.433 652.528 180.207 652.713C183.39 652.854 193.52 655.301 196.457 662.057C197.759 665.255 198.682 668.593 199.208 672.005C200.626 671.641 201.433 671.405 201.433 671.405C199.943 659.414 194.394 655.446 189.773 653.782Z" fill="white"/>
<path fill-rule="evenodd" clip-rule="evenodd" d="M75.0634 668.127C69.0994 666.303 69.4214 665.985 63.9224 663.996C58.4233 662.007 57.7103 661.796 52.9774 660.037C48.2445 658.278 31.4844 655.975 24.0604 677.759C16.4085 700.208 24.9314 707.533 29.9354 711.245C37.7034 717.008 55.6654 723.537 60.8655 725.665C60.8644 725.665 50.6763 688.85 75.0634 668.127Z" fill="#F29297"/>
<path fill-rule="evenodd" clip-rule="evenodd" d="M75.0634 668.127C69.0994 666.303 69.4214 665.985 63.9224 663.996C58.4233 662.007 57.7103 661.796 52.9774 660.037C48.2445 658.278 31.4844 655.975 24.0604 677.759C16.4085 700.208 24.9314 707.533 29.9354 711.245C37.7034 717.008 55.6654 723.537 60.8655 725.665C60.8644 725.665 50.6763 688.85 75.0634 668.127Z" fill="#F29297"/>
<path fill-rule="evenodd" clip-rule="evenodd" d="M73.8373 668.505C65.8373 666.362 54.9613 662.011 51.1782 661.066C47.3951 660.121 41.7202 660.403 38.5992 663.052C35.4783 665.701 43.1543 663.023 52.3263 666.144C61.4983 669.265 65.3603 671.13 68.4153 672.302C71.4702 673.474 73.8373 668.505 73.8373 668.505Z" fill="#F5A9A7"/>
<path opacity="0.5" fill-rule="evenodd" clip-rule="evenodd" d="M48.0343 687.683C42.6173 685.22 36.7113 682.745 33.2343 678.87C26.1772 671.005 31.7452 664.67 36.1503 661.57C31.5372 664.143 27.0443 669.003 24.0603 677.759C16.4083 700.208 24.9313 707.533 29.9343 711.245C37.7034 717.008 55.6653 723.537 60.8654 725.665C60.8654 725.665 56.4923 709.858 60.3374 693.129C56.0953 691.305 51.9813 689.477 48.0343 687.683Z" fill="#EC6469"/>
<path opacity="0.5" fill-rule="evenodd" clip-rule="evenodd" d="M30.5123 666.145C27.6005 669.542 25.4049 673.493 24.0574 677.76C16.4054 700.209 24.9283 707.534 29.9314 711.246C37.7004 717.009 55.6624 723.538 60.8624 725.666C59.4657 719.917 58.7607 714.021 58.7623 708.104C50.3417 704.732 42.235 700.623 34.5365 695.826C18.2454 685.179 29.5593 667.57 30.5123 666.145Z" fill="#E73555"/>
<path fill-rule="evenodd" clip-rule="evenodd" d="M95.3513 735.7C94.8137 736.431 93.9396 736.836 93.0343 736.774C91.0133 736.74 86.9883 734.783 76.6834 731.535C68.3983 728.924 63.2053 727.882 61.6524 726.493C57.7833 723.033 52.9763 710.031 56.5164 693.708C59.8264 678.449 69.8663 670.348 73.3164 668.732C76.1414 667.409 79.1954 667.686 84.9794 669.41C88.4791 670.452 92.0425 671.268 95.6472 671.851C97.7034 672.185 99.6724 672.427 101.531 672.598C106.426 673.046 105.519 674.871 105.519 674.871C105.519 674.871 88.6294 681.166 84.7644 699.58C79.8964 722.769 95.3513 735.7 95.3513 735.7Z" fill="#16A461"/>
<path fill-rule="evenodd" clip-rule="evenodd" d="M73.8374 668.506C73.6624 668.575 73.4874 668.65 73.3134 668.732C71.5193 669.684 69.8694 670.887 68.4135 672.303C75.8328 675.245 83.4264 677.726 91.151 679.734C91.1514 679.734 95.4973 679.318 98.8043 678.629C99.9854 677.793 101.089 677.108 102.047 676.565C101.121 676.097 100.128 675.776 99.1034 675.611C90.7844 673.823 78.9164 670.128 73.8374 668.506Z" fill="#3EC664"/>
<path fill-rule="evenodd" clip-rule="evenodd" d="M57.0064 691.752C56.8353 692.396 56.6624 693.035 56.5164 693.707C52.9763 710.03 57.7833 723.032 61.6524 726.493C63.2053 727.882 68.3993 728.925 76.6834 731.535C86.9884 734.783 91.0133 736.741 93.0343 736.774C93.9396 736.836 94.8137 736.431 95.3513 735.7C95.3513 735.7 81.3403 723.96 84.2153 702.805C74.7664 699.317 65.5863 695.526 57.0064 691.752Z" fill="#16935D"/>
<path fill-rule="evenodd" clip-rule="evenodd" d="M93.0354 736.773C93.9406 736.835 94.8147 736.43 95.3523 735.699C91.2864 731.885 88.1725 727.171 86.2615 721.934L78.3615 715.364C78.3615 715.364 67.5504 711.969 55.3104 706.653C55.6315 716.637 58.8834 724.012 61.6554 726.491C63.2084 727.88 68.4023 728.922 76.6864 731.533C86.9894 734.782 91.0144 736.74 93.0354 736.773Z" fill="#0E7F4C"/>
<path fill-rule="evenodd" clip-rule="evenodd" d="M70.4054 698.867C73.9104 678.133 92.7644 672.234 95.0774 671.75C91.9265 671.217 88.8083 670.507 85.7373 669.624H85.7234C82.5614 669.973 66.3663 677.324 63.4434 695.904C60.6103 713.904 67.8284 726.966 70.3704 729.637C72.2174 730.171 74.3193 730.786 76.6833 731.53C77.8584 731.901 78.9414 732.251 79.9593 732.587C79.9593 732.587 67.0384 718.784 70.4054 698.867Z" fill="#FFD348"/>
<path fill-rule="evenodd" clip-rule="evenodd" d="M81.8715 670.996C79.6471 672.091 77.5515 673.43 75.6234 674.989C78.0175 675.835 80.6514 676.719 83.3964 677.563C85.568 675.943 87.9078 674.56 90.3754 673.441C87.4655 672.648 84.5325 671.796 81.8715 670.996Z" fill="#FFE568"/>
<g style="mix-blend-mode:multiply" opacity="0.1">
<path fill-rule="evenodd" clip-rule="evenodd" d="M79.9554 732.591H79.9614C79.9614 732.591 67.0384 718.784 70.4054 698.868C70.4824 698.415 70.5743 697.978 70.6654 697.54C68.3047 696.579 65.9751 695.613 63.6764 694.64C63.5944 695.06 63.5113 695.481 63.4434 695.914C60.6103 713.914 67.8284 726.976 70.3704 729.647L70.3863 729.653L71.5354 729.986L71.9593 730.11L72.9524 730.402L73.4764 730.558C73.8264 730.658 74.1864 730.772 74.5504 730.882L75.0414 731.03C75.5743 731.194 76.1194 731.362 76.6824 731.539C77.2764 731.727 77.8463 731.909 78.3954 732.086C78.9445 732.263 79.4545 732.425 79.9554 732.591Z" fill="#E85D1C"/>
</g>
<g style="mix-blend-mode:multiply" opacity="0.3">
<path fill-rule="evenodd" clip-rule="evenodd" d="M78.3994 732.082C78.9264 732.251 79.4304 732.416 79.9214 732.582L79.9574 732.593H79.9634C75.1309 726.89 71.871 720.024 70.5063 712.675C68.3434 711.893 65.8374 710.957 63.1223 709.887C64.3223 720.473 68.5493 727.728 70.3723 729.644H70.3823L71.5283 729.976H71.5383L71.8434 730.065C72.302 730.198 72.7747 730.338 73.2614 730.483L73.4794 730.548L74.5404 730.868H74.5504L75.0414 731.016C75.5734 731.179 76.1174 731.347 76.6793 731.524C77.2733 731.712 77.8433 731.894 78.3923 732.071L78.3994 732.082Z" fill="#E85D1C"/>
</g>
<path fill-rule="evenodd" clip-rule="evenodd" d="M275.675 649.076C275.675 649.076 272.59 647.964 261.06 652.435C249.53 656.906 181.993 680.362 105.521 674.87C105.521 674.87 89.7552 672.71 80.1073 694.928C70.4594 717.146 89.2123 732.877 89.2123 732.877C89.2123 732.877 115.457 747.858 178.805 750.796C239.736 753.622 269.126 746.796 282.032 743.496C295.424 740.073 300.014 737.343 300.796 735.618C301.542 733.963 275.675 649.076 275.675 649.076Z" fill="#FFD348"/>
<g style="mix-blend-mode:multiply" opacity="0.1">
<path fill-rule="evenodd" clip-rule="evenodd" d="M154.103 718.221C130.562 718.157 103.17 710.197 78.2163 700.548C73.5753 719.748 89.2073 732.878 89.2073 732.878C89.2073 732.878 115.453 747.859 178.8 750.797C239.731 753.623 269.121 746.797 282.027 743.497C295.419 740.074 300.009 737.344 300.791 735.619C300.981 735.2 299.453 729.406 297.07 721.003L250.201 710.027C250.201 710.027 208.295 718.369 154.103 718.221Z" fill="#E85D1C"/>
</g>
<path fill-rule="evenodd" clip-rule="evenodd" d="M275.674 649.076C275.674 649.076 272.59 647.964 261.059 652.435C249.528 656.906 181.99 680.362 105.516 674.87C105.516 674.87 92.2052 673.063 82.5613 690.007C146.1 711.176 219.531 694.928 242.974 687.513L276.895 676.324L281.972 669.88C278.36 657.886 275.674 649.076 275.674 649.076Z" fill="#FFDA60"/>
<path fill-rule="evenodd" clip-rule="evenodd" d="M259.802 663.933C259.802 663.933 276.855 650.881 271.143 652.141C265.431 653.401 240.471 665.874 188.329 674.319C158.808 679.078 128.751 679.513 99.1041 675.609C96.2159 676.466 93.5176 677.865 91.1533 679.732C104.221 682.815 129.22 687.511 163.469 685.219C218.392 681.547 250.066 668.077 259.802 663.933Z" fill="#FFE568"/>
<path d="M82.5613 690.007C146.1 711.176 219.531 694.928 242.974 687.513" stroke="#FFEAA8" stroke-width="3"/>
<path fill-rule="evenodd" clip-rule="evenodd" d="M256.836 725.426C246.663 729.037 168.459 746.395 78.3613 715.365C80.2802 722.097 84.0358 728.161 89.2073 732.878C89.2073 732.878 115.452 747.859 178.8 750.797C239.731 753.623 269.121 746.797 282.027 743.497C295.419 740.074 300.009 737.344 300.791 735.619C301.032 735.087 298.509 725.909 294.98 713.719L256.836 725.426Z" fill="#FECB2F"/>
<g style="mix-blend-mode:multiply" opacity="0.3">
<path fill-rule="evenodd" clip-rule="evenodd" d="M300.792 735.616C300.724 734.581 300.531 733.559 300.215 732.571L278.873 731.587C254.227 742.776 148.003 756.864 78.3623 715.365C79.2224 718.568 80.5465 721.627 82.2925 724.446C84.1715 727.581 86.5015 730.422 89.2075 732.878C89.2074 732.878 115.452 747.859 178.8 750.797C239.731 753.623 269.121 746.797 282.027 743.497C295.42 740.071 300.01 737.34 300.792 735.616Z" fill="#E85D1C"/>
</g>
<path d="M256.836 725.426C246.663 729.037 168.459 746.395 78.3613 715.365" stroke="#FFE568" stroke-width="3"/>
<path fill-rule="evenodd" clip-rule="evenodd" d="M104.449 702.822C99.1852 701.688 96.6302 701.108 92.8743 700.481C86.3433 699.392 85.4933 707.944 90.5413 710.781C94.4561 712.955 98.6869 714.503 103.08 715.368C105.671 715.952 108.326 716.201 110.98 716.111C113.516 715.975 115.88 714.477 116.45 712.204C117.205 709.407 115.808 706.478 113.159 705.304C110.352 704.172 107.432 703.34 104.449 702.822Z" fill="#16A461"/>
<path fill-rule="evenodd" clip-rule="evenodd" d="M90.5413 710.778C94.456 712.952 98.6869 714.5 103.08 715.365C105.671 715.949 108.326 716.198 110.98 716.108C113.193 716.077 115.207 714.825 116.214 712.855C106.594 710.446 96.8843 707.382 87.4053 703.976C86.8944 706.68 88.1533 709.411 90.5413 710.778Z" fill="#16935D"/>
<path fill-rule="evenodd" clip-rule="evenodd" d="M108.054 713.888C107.454 713.843 107.16 713.816 106.569 713.753C105.969 713.111 105.677 712.785 105.117 712.125C101.825 708.169 100.626 706.13 98.5012 705.39C97.0682 704.89 95.4733 704.945 94.5513 706.733C94.1019 707.709 94.09 708.829 94.5183 709.814C93.8113 709.78 93.4573 709.756 92.7493 709.693C92.2751 708.363 92.4089 706.892 93.1152 705.669C94.2252 703.577 96.7521 702.684 98.9302 703.613C101.417 704.483 102.921 706.727 105.593 709.968C105.977 710.458 106.174 710.701 106.58 711.181L106.631 711.187C107.148 708.802 107.365 707.605 107.71 705.212C108.374 705.278 108.71 705.304 109.38 705.341C109.108 708.214 108.665 711.068 108.054 713.888L108.054 713.888Z" fill="#FFD348"/>
<path fill-rule="evenodd" clip-rule="evenodd" d="M275.675 649.075C272.675 649.875 263.116 659.308 256.6 667.96C250.084 676.612 243.449 683.96 242.974 687.513C242.499 691.066 247.832 703.389 250.201 710.024C252.57 716.659 255.77 724.124 256.836 725.424C257.902 726.724 272.831 729.924 278.873 731.585C284.915 733.246 298.659 736.085 300.792 735.614C302.925 735.143 323.317 713.646 333.616 699.557C341.367 689.067 348.445 678.097 354.809 666.713C355.638 664.936 355.648 661.683 351.264 660.972C346.88 660.261 326.974 657.734 311.218 655.285C296.475 652.995 278.992 648.195 275.675 649.075Z" fill="#F8E9D0"/>
<path fill-rule="evenodd" clip-rule="evenodd" d="M353.171 661.561C352.569 661.269 351.926 661.071 351.264 660.973C346.881 660.262 326.974 657.735 311.218 655.286C296.475 652.994 278.992 648.195 275.674 649.075C272.674 649.875 263.115 659.308 256.599 667.96C251.262 675.047 245.851 681.252 243.806 685.221C247.547 684.036 261.816 681.521 291.271 676.052C296.756 675.034 303.354 673.741 308.771 672.782C323.807 670.049 338.642 666.3 353.172 661.561L353.171 661.561Z" fill="#FCF1E0"/>
<path fill-rule="evenodd" clip-rule="evenodd" d="M353.171 661.561C356.322 665.576 350.398 669.61 343.988 675.116C337.578 680.622 322.92 691.229 295.748 699.558C267.628 708.179 261.493 708.179 250.203 710.023C252.572 716.658 255.772 724.123 256.838 725.423C257.904 726.723 272.833 729.923 278.875 731.584C284.917 733.245 298.661 736.084 300.794 735.613C302.927 735.142 323.319 713.645 333.618 699.556C341.368 689.066 348.446 678.096 354.809 666.712C355.298 665.816 355.399 664.759 355.09 663.787C354.781 662.814 354.088 662.01 353.171 661.561Z" fill="#F5DFCE"/>
<path fill-rule="evenodd" clip-rule="evenodd" d="M345.479 662.062C345.479 662.062 324.442 660.825 308.747 658.126C294.43 655.664 274.947 651.626 271.147 652.144C267.071 655.779 263.28 659.721 259.806 663.936C261.276 662.977 268.151 662.825 287.806 663.943C304.324 664.882 336.129 664.615 345.479 662.062Z" fill="#FFF8ED"/>
<path fill-rule="evenodd" clip-rule="evenodd" d="M352.727 670.473C343.277 686.073 312.701 716.181 278.874 731.586C284.917 733.245 298.66 736.086 300.793 735.615C302.926 735.144 323.318 713.647 333.617 699.558C342.499 687.408 349.417 676.181 352.727 670.473H352.727Z" fill="#EDC1AD"/>
<path fill-rule="evenodd" clip-rule="evenodd" d="M351.264 660.973C347.225 660.318 330.009 658.121 315.002 655.864C315.002 655.864 304.796 664.951 310.453 681.249C316.11 697.547 333.616 699.558 333.616 699.558C341.367 689.068 348.445 678.098 354.809 666.714C355.639 664.937 355.648 661.685 351.264 660.973Z" fill="#194A72"/>
<path fill-rule="evenodd" clip-rule="evenodd" d="M350.675 660.881L350.299 660.825L350.087 660.793L349.711 660.737L349.411 660.694L349.04 660.64L348.701 660.592L348.29 660.534L347.936 660.484L347.448 660.416L347.129 660.371L346.529 660.288L346.24 660.249C339.029 659.249 326.384 657.576 315.005 655.865C310.631 660.37 308.368 666.515 308.774 672.781C332.605 668.559 355.845 662.815 351.267 660.973L350.826 660.904L350.675 660.881Z" fill="#29688C"/>
<path fill-rule="evenodd" clip-rule="evenodd" d="M354.981 666.278C355.007 666.203 355.032 666.127 355.054 666.049C355.068 666 355.081 665.949 355.093 665.902C355.111 665.831 355.126 665.76 355.142 665.688C355.154 665.632 355.165 665.574 355.175 665.517C355.185 665.46 355.193 665.384 355.202 665.317C355.211 665.25 355.218 665.19 355.223 665.125C355.223 665.075 355.223 665.025 355.229 664.973C355.236 664.814 355.233 664.654 355.221 664.495C355.221 664.46 355.221 664.424 355.213 664.389C355.203 664.298 355.189 664.208 355.173 664.118C355.166 664.081 355.16 664.044 355.153 664.007C355.133 663.914 355.11 663.822 355.082 663.73C355.073 663.699 355.064 663.671 355.054 663.641C355.021 663.541 354.986 663.441 354.944 663.346L354.934 663.323C354.778 662.971 354.561 662.648 354.293 662.371L354.285 662.362C354.196 662.271 354.102 662.184 354.004 662.103L353.941 662.051C353.84 661.969 353.734 661.893 353.625 661.822C353.599 661.805 353.572 661.789 353.547 661.773C353.428 661.699 353.305 661.626 353.171 661.56C356.322 665.575 350.398 669.609 343.988 675.115C339.851 678.669 329.976 684.533 317.24 691.747C324.24 698.225 333.629 699.914 333.616 699.558C341.366 689.068 348.445 678.098 354.809 666.714C354.857 666.614 354.901 666.504 354.942 666.393C354.957 666.356 354.968 666.312 354.981 666.278Z" fill="#123668"/>
<path fill-rule="evenodd" clip-rule="evenodd" d="M309.876 664.437C324.347 664.392 339.501 663.695 345.476 662.063C345.476 662.063 327.689 661.016 312.623 658.749C311.445 660.507 310.521 662.422 309.876 664.437Z" fill="#3C8DAA"/>
<path fill-rule="evenodd" clip-rule="evenodd" d="M335.445 697.03C335.903 696.391 336.356 695.756 336.802 695.123L336.864 695.038C337.33 694.379 337.788 693.726 338.237 693.077L338.578 692.585C338.99 691.99 339.397 691.4 339.798 690.815C339.833 690.763 339.87 690.71 339.906 690.658C340.337 690.027 340.76 689.403 341.176 688.786C341.282 688.629 341.387 688.472 341.492 688.317C341.861 687.767 342.224 687.223 342.583 686.686L342.725 686.472C343.125 685.872 343.514 685.282 343.891 684.702L344.162 684.287C344.5 683.769 344.832 683.259 345.157 682.756C345.203 682.686 345.248 682.615 345.293 682.547C345.657 681.984 346.011 681.431 346.355 680.89L346.581 680.535C346.885 680.058 347.182 679.589 347.472 679.128L347.599 678.928C347.928 678.404 348.247 677.894 348.555 677.397C348.608 677.314 348.655 677.231 348.709 677.149C348.989 676.697 349.261 676.256 349.526 675.826C349.556 675.776 349.588 675.726 349.619 675.675C349.91 675.198 350.191 674.737 350.461 674.291L350.55 674.144C350.808 673.717 351.057 673.303 351.294 672.907L351.33 672.848C351.583 672.422 351.825 672.015 352.055 671.626L352.082 671.58C352.31 671.193 352.526 670.823 352.728 670.48C348.404 677.617 339.649 687.793 328.193 698.206C329.953 698.833 331.77 699.289 333.618 699.565C334.114 698.887 334.602 698.212 335.083 697.541L335.445 697.03Z" fill="#0E2D54"/>
<path fill-rule="evenodd" clip-rule="evenodd" d="M103.958 676.053C103.467 679.667 105.105 685.769 114.158 689.075C123.211 692.381 136.358 689.722 137.777 689.722C139.196 689.722 140.768 690.666 139.823 695.861C138.878 701.056 140.455 708.179 140.455 708.179C138.9 709.207 138.359 711.235 139.194 712.901C140.453 716.164 137.935 719.301 137.935 722.768C137.935 726.235 135.889 735.819 144.703 736.768C153.517 737.717 175.395 728.392 175.08 725.66C174.765 722.928 168.408 721.297 164.897 716.131C161.386 710.965 162.561 679.187 149.07 678.7C135.579 678.213 103.958 676.053 103.958 676.053Z" fill="url(#paint1_linear_0_3)"/>
<path fill-rule="evenodd" clip-rule="evenodd" d="M111.884 593.266C111.884 593.266 104.294 590.928 97.7203 597.816C92.3954 603.394 87.9923 612.049 92.3694 615.442C96.7465 618.835 111.884 593.266 111.884 593.266Z" fill="#28BBE2"/>
<g style="mix-blend-mode:multiply" opacity="0.2">
<path fill-rule="evenodd" clip-rule="evenodd" d="M111.884 593.267C106.739 595.481 102.234 598.954 98.7842 603.367C94.7033 608.45 92.2373 608.533 92.1784 605.667C90.2673 609.614 89.7854 613.443 92.3654 615.443C96.7473 618.832 111.884 593.267 111.884 593.267Z" fill="#242357"/>
</g>
<path fill-rule="evenodd" clip-rule="evenodd" d="M87.0433 625.307C84.9004 624.984 80.5164 626.119 78.1264 631.596C75.7363 637.073 74.0083 649.956 77.4613 654.473C80.9143 658.99 85.3123 657.829 85.3123 657.829L87.0433 625.307Z" fill="#28BBE2"/>
<g style="mix-blend-mode:multiply" opacity="0.2">
<path fill-rule="evenodd" clip-rule="evenodd" d="M80.4323 641.609C79.5322 647.785 76.3712 647.809 75.5253 646.1C75.5443 649.55 76.0892 652.675 77.4633 654.472C80.9163 658.988 85.3142 657.828 85.3142 657.828L87.0452 625.307C87.0452 625.307 82.1783 629.653 80.4323 641.609Z" fill="#242357"/>
</g>
<path fill-rule="evenodd" clip-rule="evenodd" d="M142.709 591.856C138.563 589.519 125.409 587.556 115.186 591.528C104.963 595.5 89.8173 615.777 84.1033 632.556C78.3893 649.335 83.2243 664.568 101.529 666.694C119.834 668.82 129.283 666.294 133.729 664.17C138.175 662.046 145.259 646.723 148.397 629.622C151.535 612.521 142.709 591.856 142.709 591.856Z" fill="#28BBE2"/>
<g style="mix-blend-mode:multiply" opacity="0.2">
<path fill-rule="evenodd" clip-rule="evenodd" d="M142.709 591.856C141.527 591.19 133.069 590.177 124.399 592.885C116.404 595.385 103.099 605.043 95.9443 618.458C88.7894 631.873 96.6263 658.217 95.9443 660.133C95.4083 661.633 89.7704 661.14 85.2073 657.664C88.3363 662.464 93.6953 665.784 101.528 666.694C119.834 668.819 129.282 666.294 133.728 664.17C138.174 662.046 145.258 646.723 148.396 629.622C151.534 612.521 142.709 591.856 142.709 591.856Z" fill="#242357"/>
</g>
<path opacity="0.2" fill-rule="evenodd" clip-rule="evenodd" d="M83.1253 626.726C80.7782 628.073 78.2593 631.484 77.3433 636.117C76.4273 640.75 78.5553 640.049 79.1823 637.958C79.8092 635.867 80.6653 631.064 83.0413 628.377C84.9762 626.186 84.0663 626.187 83.1253 626.726Z" fill="#F5FFFE"/>
<path opacity="0.2" fill-rule="evenodd" clip-rule="evenodd" d="M104.771 594.059C101.472 595.099 98.6419 597.261 96.7712 600.17C95.3533 602.704 96.9132 603.333 98.4712 601.635C100.029 599.937 103.063 596.084 106.113 594.95C109.163 593.816 107.468 593.267 104.771 594.059Z" fill="#F5FFFE"/>
<path opacity="0.2" fill-rule="evenodd" clip-rule="evenodd" d="M125.3 590.252C126.055 590.352 123.34 591.105 119.209 593.267C114.791 595.579 108.301 600.904 105.609 603.501C102.917 606.098 101.239 603.746 108.322 597.183C113.713 592.184 121.694 589.795 125.3 590.252Z" fill="#F5FFFE"/>
<path fill-rule="evenodd" clip-rule="evenodd" d="M167.626 608.984C168.664 610.954 172.672 623.578 169.076 630.494C165.48 637.41 161.595 632.894 161.595 632.894L165.095 609.737L167.626 608.984Z" fill="#007CB6"/>
<path fill-rule="evenodd" clip-rule="evenodd" d="M167.386 613.551C167.26 612.109 166.98 610.685 166.551 609.303L165.095 609.735L161.595 632.892C162.267 633.625 163.158 634.122 164.135 634.307C163.802 633.689 163.578 633.346 163.578 633.346C163.578 633.346 168.596 625.744 167.386 613.551Z" fill="#00629E"/>
<path fill-rule="evenodd" clip-rule="evenodd" d="M169.75 628.876C167.718 627.504 165.056 627.504 163.024 628.876C161.089 630.384 160.543 635.392 160.543 635.392L162.409 647.299C163.47 648.169 164.727 648.77 166.07 649.048C167.469 649.131 168.826 648.563 169.75 647.511C170.531 646.852 172.287 646.852 172.945 645.096C173.603 643.34 173.604 641.254 174.482 640.046C175.36 638.838 178.082 636.863 176.882 633.679C175.682 630.495 175.173 629.004 175.889 626.543C176.523 624.366 177.57 622.504 176.41 621.093C174.968 619.337 171.981 620.725 170.541 623.03C170.594 625.009 170.327 626.983 169.75 628.876Z" fill="#F8C6A3"/>
<path fill-rule="evenodd" clip-rule="evenodd" d="M170.842 636.404C170.82 635.648 167.911 634.815 165.87 632.788C163.829 630.761 165.87 627.361 168.299 628.167C166.528 627.539 164.563 627.802 163.02 628.874C161.085 630.382 160.539 635.39 160.539 635.39L162.405 647.297C163.466 648.167 164.722 648.768 166.066 649.046C166.99 649.16 167.923 648.919 168.675 648.371C167.91 648.691 167.026 648.467 166.504 647.822C165.504 646.704 166.856 644.329 167.527 642.778C168.198 641.227 164.427 640.021 166.327 636.678C167.259 635.033 170.867 637.162 170.842 636.404Z" fill="#F2A37C"/>
<path fill-rule="evenodd" clip-rule="evenodd" d="M174.557 620.308C172.874 620.556 171.395 621.558 170.541 623.03C170.594 625.009 170.326 626.983 169.749 628.877C169.749 628.877 171.798 630.2 173.267 631.228C172.729 630.421 172.351 629.519 172.152 628.57C171.527 626.586 171.578 624.45 172.297 622.498C172.745 621.508 173.553 620.725 174.557 620.308V620.308Z" fill="#F2A37C"/>
<path opacity="0.3" fill-rule="evenodd" clip-rule="evenodd" d="M175.185 625.96C174.223 628.099 175.064 630.874 175.873 632.848C176.682 634.822 176.802 636.662 174.767 639.693C175.826 638.465 177.967 636.571 176.884 633.677C175.69 630.494 175.174 629.002 175.89 626.541C176.524 624.364 177.571 622.502 176.411 621.091C176.801 621.795 176.303 623.472 175.185 625.96Z" fill="white"/>
<path fill-rule="evenodd" clip-rule="evenodd" d="M158.625 603.49C158.625 603.49 164.447 602.199 165.499 612.812C166.71 625.004 161.691 632.607 161.691 632.607C161.691 632.607 167.53 641.479 164.452 652.059C162.429 659.01 128.067 665.739 101.528 659.898C101.528 659.898 102.418 636.153 110.928 619.898C115.935 610.248 123.935 602.481 133.728 597.761L142.713 597.181C142.713 597.181 146.864 602.503 150.8 604.153C154.736 605.803 158.625 603.49 158.625 603.49Z" fill="#EFF8FC"/>
<path fill-rule="evenodd" clip-rule="evenodd" d="M130.278 661.789L142.433 652.059C142.433 652.059 127.819 655.218 119.377 653.586C110.935 651.954 108.935 643.451 111.883 639.693L109.683 634.686L105.271 635.221C103.241 643.308 101.988 651.571 101.529 659.897C110.977 661.87 120.654 662.507 130.278 661.789Z" fill="#CCE4EA"/>
<path fill-rule="evenodd" clip-rule="evenodd" d="M149.068 628.75C149.068 628.75 158.232 629.05 161.692 632.607C162.197 631.894 162.603 631.117 162.899 630.295C158.834 627.509 153.648 626.93 149.068 628.75Z" fill="#CCE4EA"/>
<path fill-rule="evenodd" clip-rule="evenodd" d="M114.062 637.349C117.817 638.296 122.752 643.182 132.702 643.834C142.652 644.486 147.181 641.419 151.814 637.349C146.197 639.561 139.977 639.709 134.26 637.768C123.444 634.038 120.36 624.797 109.278 624.546C109.102 624.546 108.934 624.555 108.762 624.559C104.975 633.746 103.146 644.217 102.28 651.359L114.062 637.349Z" fill="#CCE4EA"/>
<path fill-rule="evenodd" clip-rule="evenodd" d="M153.371 615.752C153.371 615.752 153.186 623.736 146.771 625.96C146.771 625.96 156.257 625.86 156.531 620.299C156.805 614.738 153.371 615.752 153.371 615.752Z" fill="#A9CBD3"/>
<path fill-rule="evenodd" clip-rule="evenodd" d="M149.068 607.216C149.068 607.216 149.336 615.131 154.103 616.434C159.038 617.782 155.016 607.339 154.347 607.253C153.678 607.167 149.068 607.216 149.068 607.216Z" fill="#A9CBD3"/>
<path fill-rule="evenodd" clip-rule="evenodd" d="M153.107 605.651C150.632 606.751 149.471 609.698 149.265 611.656C149.059 613.614 149.079 613.997 148.591 613.89C146.882 613.651 145.296 612.867 144.067 611.656C141.804 609.622 147.16 601.636 147.16 601.636H148.147C150.069 601.637 151.811 602.764 152.598 604.517L153.107 605.651Z" fill="#A9CBD3"/>
<path fill-rule="evenodd" clip-rule="evenodd" d="M161.132 607.847C162.463 609.354 162.362 612.529 162.463 613.191C162.564 613.853 165.83 611.551 166.07 610.306C166.311 609.061 164.382 603.662 164.382 603.662L161.132 607.847Z" fill="#A9CBD3"/>
<path fill-rule="evenodd" clip-rule="evenodd" d="M135.328 599.165L141.674 598.755C143.702 603.941 143.702 609.701 141.674 614.887C138.3 623.831 131.558 628.071 123.91 627.265L135.328 599.165Z" fill="#CCE4EA"/>
<path fill-rule="evenodd" clip-rule="evenodd" d="M133.724 597.763L140.07 597.353C142.098 602.539 142.098 608.298 140.07 613.484C136.695 622.429 129.953 626.668 122.306 625.863L133.724 597.763Z" fill="#007CB6"/>
<path fill-rule="evenodd" clip-rule="evenodd" d="M122.307 625.863C123.475 625.984 124.652 625.982 125.819 625.857C129.326 621.824 133.496 616.764 135.492 613.346C138.125 608.822 138.538 603.341 136.61 598.474C136.384 598.139 136.094 597.853 135.755 597.632L133.725 597.763L122.307 625.863Z" fill="#00629E"/>
<path fill-rule="evenodd" clip-rule="evenodd" d="M121.11 623.003C121.11 623.003 89.8872 661.786 87.5582 664.464C85.2292 667.142 84.7643 669.82 79.4072 669.704C74.0502 669.588 70.0923 670.635 65.6672 671.683C61.2422 672.731 58.0992 672.383 58.4473 669.819C58.7953 667.255 63.9203 663.997 63.9203 663.997L52.9753 660.038C54.2365 658.426 56.1676 657.482 58.2144 657.476C61.8234 657.359 67.7623 658.99 69.5094 658.99C71.2565 658.99 72.8864 657.825 76.1473 653.4C79.4083 648.975 104.325 615.441 104.325 615.441L121.11 623.003Z" fill="#F8C6A3"/>
<path fill-rule="evenodd" clip-rule="evenodd" d="M100.76 620.24C98.7363 622.965 96.0414 626.593 93.1604 630.47C95.4734 633.209 97.8494 635.51 98.8604 635.763C100.173 636.091 103.641 635.172 105.271 635.221C105.271 635.221 85.5173 661.481 83.0004 664.375C80.4834 667.269 75.7294 666.246 71.3784 667.496C67.0275 668.746 61.6454 672.751 58.5934 670.996C59.2823 672.46 62.0444 672.542 65.6683 671.684C70.0923 670.635 74.0524 669.584 79.4083 669.705C84.7643 669.826 85.2313 667.143 87.5593 664.465C89.3223 662.439 107.629 639.738 116.431 628.813L100.76 620.24Z" fill="#F2A37C"/>
<path fill-rule="evenodd" clip-rule="evenodd" d="M66.9652 662.361C66.9652 662.361 56.2083 659.769 55.2812 659.418C54.4712 659.112 55.2483 658.132 55.8602 657.933C54.7153 658.342 53.7134 659.074 52.9752 660.04L63.9202 663.999C64.9064 663.401 65.9227 662.854 66.9653 662.361H66.9652Z" fill="#F2A37C"/>
<path opacity="0.3" fill-rule="evenodd" clip-rule="evenodd" d="M76.1473 653.402C72.8864 657.827 71.2563 658.992 69.5094 658.992C67.7625 658.992 61.8243 657.361 58.2144 657.478C57.9446 657.488 57.6755 657.512 57.4083 657.55C61.1553 657.602 65.3303 659.19 67.4023 659.728C69.4744 660.266 71.4023 660.728 73.8363 657.933C76.2703 655.138 92.6213 631.199 92.6263 631.191C85.6703 640.556 77.8733 651.056 76.1473 653.402Z" fill="white"/>
<path fill-rule="evenodd" clip-rule="evenodd" d="M133.72 597.763C131.767 594.663 122.241 594.848 114.603 601.363C105.917 608.771 97.7164 617.243 97.7164 617.243C97.7164 617.243 98.8495 621.383 105.222 626.991C108.468 629.981 112.73 631.623 117.143 631.584C117.143 631.584 128.806 619.136 132.602 612.638C135.236 608.113 135.648 602.63 133.72 597.763Z" fill="#DEF1F8"/>
<path fill-rule="evenodd" clip-rule="evenodd" d="M105.227 626.989C108.473 629.979 112.735 631.621 117.148 631.582C117.147 631.582 128.809 619.134 132.606 612.635C133.91 610.422 134.684 607.937 134.868 605.375L134.857 605.321C131.747 612.488 116.857 629.043 97.7205 617.241C97.7203 617.241 98.8534 621.381 105.227 626.989Z" fill="#CCE4EA"/>
<path fill-rule="evenodd" clip-rule="evenodd" d="M130.291 597.232C125.529 596.988 120.822 598.35 116.925 601.099C113.289 603.677 110.586 606.675 116.925 607.084C123.264 607.493 129.589 602.831 131.186 601.099C132.702 599.459 133.666 597.513 130.291 597.232Z" fill="#E9F6FB"/>
<path fill-rule="evenodd" clip-rule="evenodd" d="M127.43 598.082C123.619 598.504 120.897 599.747 119.383 601.307C117.869 602.867 126.673 601.751 129.414 600.576C132.787 599.131 131.659 597.613 127.43 598.082Z" fill="#EFF8FC"/>
<path fill-rule="evenodd" clip-rule="evenodd" d="M162.006 597.824C162.006 597.824 165.33 597.585 166.882 599.712C168.208 601.53 168.922 604.875 167.625 608.984C166.205 613.484 164.239 613.55 163.825 613.468C163.411 613.386 163.871 608.868 162.283 607.256C160.695 605.644 158.622 603.49 158.622 603.49C158.622 603.49 160.185 598.812 162.006 597.824Z" fill="#DEF1F8"/>
<path fill-rule="evenodd" clip-rule="evenodd" d="M167.527 600.873C167.352 600.464 167.135 600.075 166.88 599.711C165.328 597.584 162.004 597.823 162.004 597.823C160.183 598.811 158.622 603.489 158.622 603.489C158.622 603.489 160.696 605.646 162.283 607.255C163.141 608.125 163.4 609.841 163.523 611.249C163.867 608.368 163.223 606.418 162.46 603.723C162.096 602.398 162.736 601.002 163.978 600.413C165.165 599.97 166.493 600.142 167.527 600.873H167.527Z" fill="#CCE4EA"/>
<path fill-rule="evenodd" clip-rule="evenodd" d="M166.301 602.088C164.884 601.25 164.288 603.557 164.786 606.088C165.06 608.016 165.033 609.976 164.706 611.896C164.662 612.596 165.94 611.634 166.852 608.996C167.764 606.358 168.023 603.106 166.301 602.088Z" fill="#E9F6FB"/>
<path fill-rule="evenodd" clip-rule="evenodd" d="M149.055 590.442C147.133 592.863 145.01 595.118 142.709 597.183C142.709 597.183 146.56 605.676 154.348 607.256C154.348 607.256 159.804 603.711 162.048 598.233C162.048 598.233 161.109 595.038 156.03 592.217C150.951 589.396 149.055 590.442 149.055 590.442Z" fill="#F8C6A3"/>
<path fill-rule="evenodd" clip-rule="evenodd" d="M156.026 592.216C150.948 589.395 149.055 590.441 149.055 590.441C149.055 590.441 148.755 590.852 148.069 591.656L147.637 592.156C147.637 592.156 148.827 596.056 153.913 598.923C155.919 600.08 158.12 600.86 160.407 601.223C161.054 600.286 161.602 599.285 162.045 598.236C162.045 598.236 161.104 595.037 156.026 592.216Z" fill="#F2A37C"/>
<path fill-rule="evenodd" clip-rule="evenodd" d="M156.026 592.216C150.948 589.395 149.055 590.441 149.055 590.441C149.055 590.441 148.869 590.691 148.5 591.141C152.563 595.61 157.865 597.141 162.044 598.232C162.044 598.232 161.105 595.037 156.026 592.216Z" fill="#DD8964"/>
<path fill-rule="evenodd" clip-rule="evenodd" d="M154.102 616.437C153.973 618.569 153.302 624.38 146.675 624.921C140.048 625.462 135.457 624.711 125.321 616.437C115.185 608.163 109.914 604.086 100.588 605.651C97.4793 606.406 86.9373 616 86.8032 618.434C86.6692 620.868 98.6962 631.813 99.9122 632.76C101.128 633.707 108.177 631.877 115.5 634.951C121.855 637.618 127.9 643.842 141.881 641.68C155.862 639.518 162.188 624.98 160.175 616.438C160.176 616.437 158.421 614.299 154.102 616.437Z" fill="#EA4D5F"/>
<path fill-rule="evenodd" clip-rule="evenodd" d="M119.377 611.707C117.465 610.216 115.438 608.878 113.315 607.707C107.034 614.654 99.3845 620.228 90.8473 624.079C93.4293 626.836 96.6233 629.836 98.4792 631.509C108.278 625.917 116.493 616.2 119.377 611.707Z" fill="#EFF8FC"/>
<path fill-rule="evenodd" clip-rule="evenodd" d="M128.705 641.095C131.487 641.868 134.372 642.208 137.257 642.105C138.846 636.317 139.226 630.263 138.373 624.321C136.865 623.865 135.409 623.254 134.028 622.496C133.715 629.024 131.893 635.39 128.705 641.095Z" fill="#EFF8FC"/>
<path fill-rule="evenodd" clip-rule="evenodd" d="M148.136 639.692C150.03 638.742 151.771 637.514 153.302 636.049C152.386 631.944 150.628 628.073 148.138 624.683C147.658 624.799 147.169 624.878 146.677 624.92C145.594 625.008 144.568 625.056 143.561 625.048C146.651 629.295 148.259 634.441 148.136 639.692Z" fill="#EFF8FC"/>
<path fill-rule="evenodd" clip-rule="evenodd" d="M120.167 637.336C125.236 631.112 127.793 623.662 128.955 619.252C127.823 618.426 126.619 617.495 125.322 616.436C124.88 616.074 124.457 615.736 124.033 615.386C120.681 623.807 114.717 630.186 110.97 633.597C112.523 633.89 114.042 634.343 115.501 634.949C117.097 635.662 118.655 636.459 120.167 637.336H120.167Z" fill="#EFF8FC"/>
<path fill-rule="evenodd" clip-rule="evenodd" d="M153.618 619.362C153.247 620.717 152.522 621.949 151.518 622.932C154.27 624.282 156.653 626.278 158.465 628.75C159.152 627.25 159.68 625.683 160.04 624.074C158.231 622.095 156.049 620.494 153.618 619.362Z" fill="#EFF8FC"/>
<g style="mix-blend-mode:multiply" opacity="0.2">
<path fill-rule="evenodd" clip-rule="evenodd" d="M154.103 616.436C154.062 618.634 153.309 620.76 151.956 622.493V622.493C153.364 621.204 154.366 619.533 154.84 617.684C154.84 617.684 159.023 619.016 160.176 616.433L157.105 615.514C156.056 615.633 155.038 615.945 154.103 616.436Z" fill="#242357"/>
</g>
<path fill-rule="evenodd" clip-rule="evenodd" d="M154.091 603.945C155.396 603.4 159.017 602.745 160.755 604.559C162.493 606.373 162.893 608.542 162.006 611.729C161.598 613.37 160.983 614.952 160.176 616.437C158.3 617.534 155.979 617.534 154.102 616.437C151.52 614.137 150.042 610.844 150.04 607.386C151.047 605.887 152.449 604.696 154.091 603.945Z" fill="#EA4D5F"/>
<path fill-rule="evenodd" clip-rule="evenodd" d="M160.569 615.683C158.036 612.263 154.342 609.884 150.179 608.993C150.326 610.026 150.598 611.037 150.987 612.005C153.802 613.148 156.331 614.896 158.395 617.124C159.026 617.008 159.63 616.774 160.175 616.436C160.175 616.436 160.331 616.179 160.569 615.683Z" fill="#EFF8FC"/>
<path fill-rule="evenodd" clip-rule="evenodd" d="M155.102 603.63C154.758 603.708 154.42 603.813 154.092 603.944C153.242 604.352 152.448 604.867 151.727 605.475C155.727 606.403 159.33 608.573 162.02 611.675C162.375 610.519 162.515 609.308 162.431 608.101C160.387 606.038 157.872 604.503 155.102 603.63Z" fill="#EFF8FC"/>
<g style="mix-blend-mode:multiply" opacity="0.2">
<path fill-rule="evenodd" clip-rule="evenodd" d="M153.106 611.656C152.436 607.786 153.819 604.241 155.73 603.504C155.17 603.592 154.62 603.74 154.091 603.945C152.449 604.696 151.047 605.887 150.04 607.386C150.042 610.843 151.519 614.136 154.101 616.436C155.02 616.929 156.04 617.203 157.081 617.237C155.321 616.567 153.716 615.179 153.106 611.656Z" fill="#242357"/>
</g>
<g style="mix-blend-mode:multiply" opacity="0.2">
<path fill-rule="evenodd" clip-rule="evenodd" d="M140.902 639.081C128.702 638.814 124.915 634.481 115.452 630.266C110.869 628.226 103.376 628.705 101.528 627.858C99.2284 626.803 89.7895 618.721 89.4944 617.864C88.9794 616.364 95.3885 608.984 95.3885 608.984C91.3985 612.224 86.8935 616.848 86.8064 618.433C86.6714 620.865 98.6994 631.812 99.9154 632.759C101.132 633.706 108.18 631.876 115.503 634.95C121.858 637.617 127.903 643.841 141.884 641.679C147.715 640.775 152.912 637.501 156.244 632.632C153.292 636.057 149.467 639.269 140.902 639.081Z" fill="#242357"/>
</g>
<path opacity="0.15" fill-rule="evenodd" clip-rule="evenodd" d="M109.668 607.513C107.03 606.711 104.255 606.462 101.516 606.782C99.9274 607.07 97.0755 609.722 95.3584 611.836C92.3854 615.494 99.7664 611.626 110.13 615.946C120.494 620.266 133.835 627.26 136.494 626.401C139.153 625.542 131.389 622.706 125.294 617.801C120.226 613.707 114.006 608.833 109.668 607.513Z" fill="white"/>
<path opacity="0.15" fill-rule="evenodd" clip-rule="evenodd" d="M160.176 604.964C158.401 603.799 157.657 606.935 157.836 610.305C158.016 613.675 158.405 616.319 159.373 615.905C160.341 615.491 161.917 611.32 161.801 608.995C161.685 606.67 161.063 605.548 160.176 604.964Z" fill="white"/>
<path fill-rule="evenodd" clip-rule="evenodd" d="M147.363 592.468C146.338 591.645 144.999 591.32 143.71 591.581C141.253 591.898 134.2 596.811 133.725 597.763C133.251 598.715 133.383 602.816 138.325 608.541C141.076 611.731 145.775 613.693 147.043 614.089C148.312 614.485 147.571 606.989 154.097 603.945C154.097 603.945 154.446 602.529 151.297 601.18C148.997 600.198 145.739 597.18 145.581 594.393L147.363 592.468Z" fill="#DEF1F8"/>
<path fill-rule="evenodd" clip-rule="evenodd" d="M145.572 594.393L147.363 592.468C146.338 591.645 144.999 591.32 143.71 591.581C141.253 591.898 134.2 596.811 133.725 597.763C133.251 598.715 133.383 602.816 138.325 608.541C135.574 604.608 135.934 598.855 138.107 597.183C140.28 595.511 143.458 592.951 144.549 595.736C145.641 598.521 150.049 600.502 150.049 600.503C147.963 599.166 145.703 596.709 145.572 594.393Z" fill="#CCE4EA"/>
<path fill-rule="evenodd" clip-rule="evenodd" d="M150.41 602.543C151.542 601.909 154.223 602.686 152.252 603.992C149.317 605.938 147.458 610.881 147.112 611.881C146.766 612.881 144.433 611.999 142.557 610.82C140.681 609.641 139.215 608.378 138.816 607.109C138.644 606.559 142.79 609.295 145.21 607.256C147.63 605.217 148.134 603.819 150.41 602.543Z" fill="#E9F6FB"/>
<path fill-rule="evenodd" clip-rule="evenodd" d="M134.049 578.596C132.999 583.165 134.728 585.944 135.901 587.117C137.074 588.29 139.483 589.031 140.285 586.499C141.198 588.541 143.002 590.047 145.173 590.581C148.817 591.446 150.041 588.846 150.041 588.846L144.175 579.832L134.049 578.596Z" fill="#D65132"/>
<path fill-rule="evenodd" clip-rule="evenodd" d="M134.049 578.596C133.767 579.774 133.671 580.989 133.766 582.196C135.973 584.228 139.209 584.675 141.883 583.319C141.883 583.319 143.564 588.844 148.555 590.289C149.182 589.964 149.699 589.462 150.041 588.844L144.175 579.83L134.049 578.596Z" fill="#BA422B"/>
<path fill-rule="evenodd" clip-rule="evenodd" d="M173.996 543.567C181.925 543.567 191.642 549.151 193.876 557.867C196.11 566.583 195.439 573.838 196.557 578.867C197.256 582.008 197.776 585.851 196.328 589.198C196.062 589.815 195.757 590.415 195.415 590.993C193.045 594.993 188.565 597.851 182.264 599.334C175.013 600.867 167.476 600.291 160.543 597.675C151.943 594.101 146.187 590.147 142.501 580.542C138.378 569.328 142.433 556.748 152.328 550.052C163.386 542.561 173.996 543.567 173.996 543.567Z" fill="#F8C6A3"/>
<path fill-rule="evenodd" clip-rule="evenodd" d="M144.311 570.881C144.479 572.405 145.871 573.849 148.567 572.854C151.263 571.859 156.293 567.224 157.267 554.948L144.311 570.881Z" fill="#F2A37C"/>
<path fill-rule="evenodd" clip-rule="evenodd" d="M173.996 543.567C170.607 543.412 167.215 543.805 163.951 544.732C160.724 546.732 157.836 548.432 157.836 548.432C161.583 556.49 169.71 561.447 174.858 562.557C180.006 563.667 186.173 563.657 188.458 560.505C190.603 557.546 187.318 554.497 187.318 554.497C189.16 555.741 191.289 556.494 193.503 556.686C190.733 548.655 181.562 543.567 173.996 543.567Z" fill="#F2A37C"/>
<circle opacity="0.5" cx="158.513" cy="579.887" r="8.771" fill="#EE9681"/>
<path opacity="0.5" fill-rule="evenodd" clip-rule="evenodd" d="M188.479 580.125C188.479 584.656 191.933 588.441 196.446 588.856C197.723 585.588 197.231 581.898 196.556 578.856C196.112 576.423 195.845 573.96 195.756 571.488C191.552 572.213 188.481 575.859 188.479 580.125H188.479Z" fill="#EE9681"/>
<path fill-rule="evenodd" clip-rule="evenodd" d="M196.232 577.025C194.883 578.066 193.228 578.632 191.524 578.638C187.042 578.638 183.392 574.738 183.295 569.908C183.201 569.874 183.11 569.832 183.022 569.784C182.792 569.65 182.568 569.506 182.345 569.363C182.345 569.48 182.328 569.595 182.328 569.713C182.328 569.771 182.337 569.828 182.338 569.885C182.019 569.755 181.675 569.696 181.332 569.713C180.454 569.692 179.586 569.904 178.818 570.329C178.828 570.129 178.849 569.922 178.849 569.713V569.682C178.711 569.81 178.582 569.948 178.464 570.095C178.31 570.308 178.096 570.472 177.849 570.565C177.388 576.08 172.66 580.251 167.13 580.023C161.6 579.795 157.233 575.248 157.228 569.713C157.228 569.427 157.247 569.144 157.271 568.863C157.141 568.803 157.019 568.729 156.907 568.641L156.377 568.23C156.357 568.386 156.343 568.543 156.327 568.7L141.598 566.5L142.369 570.746L156.359 571.081C157.024 576.545 161.535 580.732 167.033 580.989C172.531 581.246 177.413 577.498 178.584 572.12C179.448 571.681 180.404 571.452 181.373 571.453C181.761 571.444 182.146 571.51 182.509 571.645C183.208 576.12 186.998 579.461 191.525 579.595C193.266 579.591 194.965 579.064 196.401 578.081L196.232 577.025Z" fill="#F2A37C"/>
<path fill-rule="evenodd" clip-rule="evenodd" d="M196.232 577.025C194.883 578.065 193.228 578.632 191.524 578.638C190.565 578.635 189.615 578.451 188.724 578.095C188.649 578.412 188.591 578.733 188.551 579.057C189.503 579.411 190.51 579.593 191.525 579.595C193.266 579.591 194.965 579.064 196.401 578.081L196.288 577.374C196.277 577.296 196.262 577.221 196.251 577.142L196.232 577.025Z" fill="#EB7C74"/>
<path opacity="0.3" fill-rule="evenodd" clip-rule="evenodd" d="M196.015 580.788C196.626 585.346 196.385 589.413 191.806 593.565C186.451 598.42 176.651 600.338 170.217 599.953C174.24 600.395 178.309 600.184 182.264 599.327C188.564 597.844 193.044 594.982 195.415 590.986C195.758 590.408 196.063 589.808 196.329 589.191C197.776 585.843 197.255 582.001 196.557 578.86C196.167 576.822 195.925 574.758 195.834 572.685L195.679 572.574C195.924 573.964 195.402 576.23 196.015 580.788Z" fill="white"/>
<path fill-rule="evenodd" clip-rule="evenodd" d="M167.207 580.985C167.248 580.668 167.271 580.349 167.276 580.03C162.262 579.888 158.073 576.165 157.344 571.201C157.03 571.244 156.718 571.303 156.409 571.379C157.219 576.767 161.761 580.809 167.207 580.985Z" fill="#EB7C74"/>
<path opacity="0.3" fill-rule="evenodd" clip-rule="evenodd" d="M157.457 572.417C157.457 573.417 156.186 574.217 154.619 574.217C153.052 574.217 151.781 573.41 151.781 572.417C151.781 571.424 153.052 570.617 154.619 570.617C156.186 570.617 157.457 571.422 157.457 572.417Z" fill="white"/>
<g style="mix-blend-mode:multiply" opacity="0.7">
<path fill-rule="evenodd" clip-rule="evenodd" d="M166.883 577.797C171.34 577.797 175.819 574.508 176.498 568.164C177.177 561.82 172.539 555.712 164.762 558.022C156.985 560.332 156.813 569.584 159.162 573.182C160.802 575.915 163.7 577.647 166.883 577.797Z" fill="url(#paint2_linear_0_3)"/>
</g>
<g style="mix-blend-mode:multiply" opacity="0.7">
<path fill-rule="evenodd" clip-rule="evenodd" d="M193.894 557.958C192.088 557.378 190.144 557.386 188.343 557.981C181.203 560.096 181.048 568.592 183.205 571.893C184.71 574.403 187.37 575.993 190.293 576.129C192.371 576.124 194.375 575.353 195.92 573.964C195.587 569.54 195.464 564.112 193.894 557.958Z" fill="url(#paint3_linear_0_3)"/>
</g>
<path fill-rule="evenodd" clip-rule="evenodd" d="M141.597 565.623C143.046 567.037 143.998 568.881 144.311 570.881C144.605 572.945 147.903 573.766 152.357 567.486C158.513 558.808 157.836 548.433 157.836 548.433C161.869 552.694 166.607 556.225 171.843 558.871C179.998 562.801 184.812 561.75 187.17 560.753C189.528 559.756 191.198 556.906 189.036 553.369C189.036 553.369 193.064 556.513 200.825 556.218C208.586 555.923 211.73 552.19 209.568 549.341C207.406 546.492 203.256 544.262 197.25 542.45C197.25 542.45 204.165 541.876 203.773 538.045C203.381 534.214 193.601 524.86 174.93 527.445C153.951 530.345 150.787 541.07 150.787 541.07C150.787 541.07 147.901 539.388 141.597 539.437C137.146 539.472 134.216 541.256 133.921 542.262C133.626 543.268 134.27 543.849 136.301 544.626C137.871 545.193 139.407 545.851 140.901 546.595C137.238 547.758 133.857 549.67 130.972 552.21C125.962 556.532 126.025 560.494 126.551 561.051C127.538 562.097 130.118 559.634 133.851 559.142C133.851 559.142 131.266 564.965 131.951 569.974C132.636 574.983 141.597 565.623 141.597 565.623Z" fill="#E26644"/>
<path fill-rule="evenodd" clip-rule="evenodd" d="M163.101 541.342C160.701 541.756 158.993 543.749 162.287 544.926C165.58 546.103 176.001 550.479 180.918 554.464C186.132 558.691 190.243 559.514 188.959 555.447C187.135 550.65 183.675 546.651 179.188 544.158C174.302 541.419 168.628 540.426 163.102 541.342H163.101Z" fill="#EE7249"/>
<path fill-rule="evenodd" clip-rule="evenodd" d="M184.017 561.571C178.571 561.225 168.332 556.596 158.346 544.484C158.208 544.317 157.975 544.261 157.776 544.347C157.576 544.433 157.457 544.64 157.484 544.856C157.608 545.811 157.748 547.072 157.836 548.434C161.869 552.695 166.608 556.226 171.843 558.873C177.321 561.512 181.285 561.897 184.017 561.571Z" fill="#D65132"/>
<path fill-rule="evenodd" clip-rule="evenodd" d="M163.462 530.321C152.708 534.569 150.787 541.069 150.787 541.069C150.787 541.069 147.901 539.387 141.597 539.436C137.146 539.47 134.216 541.255 133.921 542.261C133.626 543.267 134.27 543.848 136.301 544.625C137.871 545.192 139.407 545.85 140.901 546.594C137.238 547.757 133.857 549.669 130.972 552.209C125.962 556.531 126.025 560.493 126.551 561.05C127.538 562.096 130.118 559.633 133.851 559.141C133.851 559.141 131.266 564.964 131.951 569.973C132.636 574.982 141.592 565.623 141.592 565.623C142.425 566.461 143.105 567.437 143.602 568.508C144.135 567.528 144.53 566.563 144.165 566.008C142.283 563.135 141.587 558.886 143.365 553.488C144.357 549.927 146.871 546.987 150.235 545.454C151.575 544.808 153.048 544.487 154.535 544.517C154.699 544.521 154.853 544.44 154.941 544.302C155.001 544.149 154.993 543.978 154.918 543.832C154.355 542.102 154.342 540.24 154.882 538.503C155.84 535.629 157.874 533.163 163.462 530.321Z" fill="#D65132"/>
<path fill-rule="evenodd" clip-rule="evenodd" d="M143.755 568.849C144.023 569.501 144.21 570.184 144.311 570.881C144.473 572.018 145.59 572.797 147.278 572.211C146.754 572.371 146.184 572.231 145.793 571.846C145.624 571.534 145.557 571.176 145.601 570.824L149.401 570.915H149.407C149.963 570.439 150.478 569.918 150.946 569.356L147.556 569.118L143.755 568.849Z" fill="#D65132"/>
<path fill-rule="evenodd" clip-rule="evenodd" d="M200.825 556.218C205.906 556.026 208.993 554.357 209.925 552.429C205.67 555.929 195.734 553.351 191.525 551.372C189.347 550.293 187.231 549.091 185.189 547.772C186.823 549.371 188.13 551.273 189.036 553.372C189.036 553.372 193.064 556.513 200.825 556.218Z" fill="#D65132"/>
<path fill-rule="evenodd" clip-rule="evenodd" d="M203.772 538.044C203.588 537.045 203.125 536.119 202.435 535.373C204.708 538.673 200.71 539.591 197.924 540.149C195.138 540.707 187.676 541.125 187.676 541.125C187.676 541.125 194.995 542.032 197.25 542.449C197.25 542.449 204.165 541.876 203.772 538.044Z" fill="#D65132"/>
<path fill-rule="evenodd" clip-rule="evenodd" d="M138.23 542.907C135.456 542.197 135.468 540.848 136.799 540.248C135.119 540.859 134.089 541.686 133.92 542.261C133.625 543.268 134.269 543.848 136.3 544.625C137.87 545.192 139.406 545.85 140.9 546.594C142.277 546.189 143.687 545.907 145.113 545.751C142.907 544.602 140.604 543.65 138.23 542.907Z" fill="#BA422B"/>
<path fill-rule="evenodd" clip-rule="evenodd" d="M129.966 557.95C127.666 559.076 126.335 559.703 126.521 558.595C126.206 559.385 126.217 560.268 126.552 561.049C127.539 562.095 130.119 559.632 133.852 559.14C134.382 557.741 135.126 556.433 136.057 555.262C133.978 556.043 131.945 556.941 129.966 557.95H129.966Z" fill="#BA422B"/>
<path fill-rule="evenodd" clip-rule="evenodd" d="M189.326 529.14C181.818 527.004 166.176 528.21 159.586 534.305C157.434 536.295 163.141 535.026 170.358 535.132C177.145 535.351 183.9 536.149 190.55 537.52C197.784 539.12 202.577 538.68 202.073 536.83C201.569 534.98 196.616 531.21 189.326 529.14Z" fill="#EE7249"/>
<path fill-rule="evenodd" clip-rule="evenodd" d="M209.414 551.662C210.022 550.129 206.841 546.807 202.109 544.973C197.377 543.139 190.55 541.873 189.026 542.45C187.334 543.094 192.519 550.192 200.182 552.474C206.827 554.452 208.897 552.958 209.414 551.662Z" fill="#EE7249"/>
<path fill-rule="evenodd" clip-rule="evenodd" d="M155.994 548.262C154.994 546.906 151.248 548.416 148.988 552.285C146.101 557.227 147.188 564.913 149.21 565.622C151.233 566.331 154.12 561.553 155.168 557.522C156.217 553.491 156.871 549.452 155.994 548.262Z" fill="#EE7249"/>
<path fill-rule="evenodd" clip-rule="evenodd" d="M137.567 540.702C136.545 541.019 137.295 542.224 139.053 542.257C140.828 542.291 147.586 541.911 147.497 541.277C147.408 540.643 142.016 539.319 137.567 540.702Z" fill="#E26644"/>
<path fill-rule="evenodd" clip-rule="evenodd" d="M127.664 557.95C127.922 558.262 129.323 557.773 130.632 556.488C131.941 555.203 135.737 550.845 136.059 550.288C136.381 549.731 133.378 550.766 130.632 553.371C127.886 555.976 127.388 557.617 127.664 557.95Z" fill="#E26644"/>
<path fill-rule="evenodd" clip-rule="evenodd" d="M195.661 543.823C198.492 544.523 205.085 545.788 208.884 550.461C207.176 548.987 205.246 547.794 203.164 546.924C200.721 545.755 198.217 544.72 195.661 543.823H195.661Z" fill="#F49A6E"/>
<path fill-rule="evenodd" clip-rule="evenodd" d="M168.623 530.321C171.939 528.994 184.646 528.3 190.747 530.321C197.957 532.708 200.347 535.791 200.347 535.791C196.338 533.858 192.071 532.511 187.678 531.791C189.9 531.881 192.109 532.171 194.278 532.658C194.278 532.658 190.178 530.058 181.992 529.658C177.525 529.372 173.04 529.594 168.623 530.321H168.623Z" fill="#F49A6E"/>
<path fill-rule="evenodd" clip-rule="evenodd" d="M178.216 544.305C182.153 545.813 187.047 551.1 188.275 554.742C186.981 552.65 185.455 550.711 183.726 548.962C182.009 547.273 180.167 545.717 178.216 544.305V544.305Z" fill="#F49A6E"/>
<path fill-rule="evenodd" clip-rule="evenodd" d="M155.641 549.918C155.693 551.826 154.905 559.648 150.786 564.581C150.343 562.728 150.343 560.795 150.786 558.942C150.853 560.121 151.01 561.294 151.257 562.449C151.257 562.449 154.146 558.84 155.641 549.918Z" fill="#F49A6E"/>
<g style="mix-blend-mode:multiply" opacity="0.5">
<path fill-rule="evenodd" clip-rule="evenodd" d="M170.303 556.937C170.173 555.719 167.59 554.547 163.909 556.614C160.228 558.681 158.935 561.914 159.194 562.879C159.453 563.844 162.794 562.439 165.136 561.523C169.076 559.979 170.689 560.554 170.303 556.937Z" fill="#F2A37C"/>
</g>
<g style="mix-blend-mode:multiply" opacity="0.5">
<path fill-rule="evenodd" clip-rule="evenodd" d="M194.992 563.522C194.829 562.393 194.626 561.233 194.376 560.042C193.546 558.868 192.453 557.903 191.186 557.223C187.503 555.155 186.123 556.945 186.107 558.171C186.071 560.942 188.507 561.333 190.807 562.123C192.718 562.778 194.303 563.686 194.992 563.522Z" fill="#F2A37C"/>
</g>
<path fill-rule="evenodd" clip-rule="evenodd" d="M170.746 555.484C170.579 553.99 167.589 553.217 163.907 555.284C160.225 557.351 158.933 560.584 159.192 561.55C159.451 562.516 162.792 561.109 165.134 560.193C169.076 558.65 171.093 558.592 170.746 555.484Z" fill="#D65132"/>
<path fill-rule="evenodd" clip-rule="evenodd" d="M166.532 557.95C163.132 559.056 161.232 559.513 161.39 558.274C161.548 557.035 163.379 555.563 163.907 555.284C160.225 557.352 158.933 560.584 159.192 561.55C159.451 562.516 162.792 561.109 165.134 560.193C169.076 558.65 171.093 558.593 170.746 555.484C170.571 556.272 169.934 556.844 166.532 557.95Z" fill="#BA422B"/>
<path fill-rule="evenodd" clip-rule="evenodd" d="M186.112 556.84C186.127 555.614 187.512 553.825 191.19 555.892C194.868 557.959 195.604 560.907 195.345 561.876C195.086 562.845 193.188 561.607 190.811 560.792C188.503 560.003 186.071 559.612 186.112 556.84Z" fill="#D65132"/>
<path fill-rule="evenodd" clip-rule="evenodd" d="M193.93 560.775C192.902 560.154 190.075 559.075 188.347 557.982C186.639 556.9 187.139 555.244 188.504 554.963C187.93 554.849 187.334 554.99 186.873 555.351C186.412 555.712 186.131 556.256 186.104 556.841C186.068 559.612 188.504 560.004 190.804 560.793C193.181 561.608 195.079 562.845 195.338 561.877C195.432 561.205 195.324 560.52 195.028 559.909C195.327 560.535 194.956 561.395 193.93 560.775Z" fill="#BA422B"/>
<path fill-rule="evenodd" clip-rule="evenodd" d="M191.524 578.718C186.453 578.718 182.324 574.284 182.324 568.834C182.324 563.384 186.449 558.95 191.524 558.95C196.599 558.95 200.724 563.384 200.724 568.834C200.724 574.284 196.595 578.718 191.524 578.718ZM191.524 559.908C186.982 559.908 183.285 563.908 183.285 568.834C183.285 573.76 186.985 577.76 191.524 577.76C196.063 577.76 199.763 573.76 199.763 568.834C199.763 563.908 196.067 559.908 191.524 559.908Z" fill="#19313A"/>
<ellipse cx="166.883" cy="570.679" rx="7.11961" ry="7.1196" fill="white"/>
<path opacity="0.2" fill-rule="evenodd" clip-rule="evenodd" d="M163.986 574.99C161.454 572.296 161.086 568.222 163.094 565.117L162.842 564.817C160.367 566.527 159.235 569.61 160.015 572.516C160.794 575.422 163.318 577.524 166.317 577.765C169.317 578.006 172.143 576.334 173.377 573.59C171.362 576.263 166.15 576.954 163.986 574.99Z" fill="#BAC4CA"/>
<path fill-rule="evenodd" clip-rule="evenodd" d="M159.861 571.847C159.861 571.847 160.091 566.803 164.146 565.141C168.712 563.27 172.646 565.721 173.455 567.96C173.536 567.325 173.375 566.682 173.004 566.16C171.832 564.36 168.947 562.141 164.381 563.666C160.877 564.68 158.854 568.34 159.861 571.847Z" fill="#19313A"/>
<path fill-rule="evenodd" clip-rule="evenodd" d="M174.001 570.679C174.002 569.985 173.901 569.294 173.701 568.63C173.38 567.541 172.536 566.685 171.451 566.35C170.084 565.904 168.582 566.208 167.495 567.15C165.381 569.176 164.895 572.372 166.311 574.935C166.821 575.67 167.537 576.235 168.37 576.559C169.595 576.986 170.956 576.672 171.87 575.752C173.235 574.417 174.004 572.588 174.001 570.679Z" fill="#19313A"/>
<path fill-rule="evenodd" clip-rule="evenodd" d="M167.526 576.113C167.789 576.294 168.072 576.444 168.368 576.56C169.593 576.987 170.954 576.673 171.868 575.753C172.498 575.133 173.006 574.402 173.368 573.596C171.888 575.256 169.75 576.177 167.526 576.113Z" fill="#002030"/>
<path fill-rule="evenodd" clip-rule="evenodd" d="M172.626 567.486C172.17 567.018 171.483 566.858 170.866 567.074C170.249 567.291 169.814 567.846 169.75 568.496C169.482 570.367 170.755 572.418 172.305 572.418C173.329 572.418 173.805 571.444 173.665 569.985C173.636 569.053 173.266 568.164 172.626 567.486Z" fill="white"/>
<path fill-rule="evenodd" clip-rule="evenodd" d="M183.152 570.002C183.116 569.705 182.97 569.432 182.742 569.237C182.336 568.937 181.835 568.794 181.331 568.837C180.399 568.809 179.479 569.048 178.678 569.525C178.339 569.727 178.109 570.072 178.053 570.463L177.878 571.675C178.898 570.949 180.121 570.564 181.373 570.575C183.03 570.575 183.381 571.488 183.381 571.488L183.152 570.002Z" fill="#19313A"/>
<path fill-rule="evenodd" clip-rule="evenodd" d="M181.331 568.834C180.399 568.806 179.479 569.044 178.678 569.522C178.339 569.724 178.109 570.069 178.053 570.46L177.878 571.672C178.898 570.946 180.121 570.561 181.373 570.572C183.03 570.572 183.381 571.485 183.381 571.485C182.791 569.662 180.075 570.318 179.967 569.867C179.859 569.416 180.3 568.922 181.331 568.834Z" fill="#002030"/>
<path fill-rule="evenodd" clip-rule="evenodd" d="M157.014 567.923L141.597 565.623L142.368 569.869L156.746 570.213C156.746 570.213 156.971 568.854 157.014 567.923Z" fill="#19313A"/>
<path fill-rule="evenodd" clip-rule="evenodd" d="M156.823 569.711L145.073 568.122C144.932 567.359 144.625 566.637 144.173 566.006L141.6 565.623L142.371 569.869L156.749 570.213C156.749 570.213 156.78 570.011 156.823 569.711Z" fill="#002030"/>
<path fill-rule="evenodd" clip-rule="evenodd" d="M180.179 572.983C179.416 573.344 178.695 575.84 179.347 577.983C179.812 579.635 181.316 580.778 183.032 580.783C184.786 580.843 185.74 579.823 185.695 578.534C185.657 577.407 184.304 577.386 183.032 575.834C181.854 574.405 181.605 572.308 180.179 572.983Z" fill="#EE9681"/>
<path fill-rule="evenodd" clip-rule="evenodd" d="M182.566 579.645C180.3 579.227 179.119 576.562 179.206 574.993C179.021 575.987 179.07 577.01 179.347 577.981C179.812 579.633 181.316 580.776 183.032 580.781C184.786 580.84 185.74 579.821 185.695 578.532C185.398 579.415 184.44 579.991 182.566 579.645Z" fill="#EB7C74"/>
<path fill-rule="evenodd" clip-rule="evenodd" d="M184.721 578.487C184.675 578.486 184.628 578.481 184.582 578.473C184.441 578.448 184.305 578.397 184.182 578.323C183.847 578.12 183.594 577.804 183.471 577.432C183.42 577.29 183.284 576.841 183.592 576.918C183.656 576.939 183.715 576.973 183.765 577.018C183.91 577.134 184.065 577.238 184.206 577.348C184.467 577.548 184.797 577.661 185.043 577.865C185.134 577.934 185.189 578.042 185.191 578.156C185.177 578.287 185.09 578.4 184.966 578.446C184.888 578.477 184.805 578.491 184.721 578.487Z" fill="#F8C6A3"/>
<path fill-rule="evenodd" clip-rule="evenodd" d="M167.558 580.125C161.323 580.125 156.267 575.07 156.267 568.834C156.267 562.598 161.323 557.543 167.558 557.543C173.794 557.543 178.849 562.598 178.849 568.834C178.844 575.069 173.791 580.121 167.557 580.125H167.558ZM167.558 558.5C163.379 558.5 159.61 561.017 158.01 564.879C156.411 568.74 157.294 573.185 160.25 576.141C163.205 579.097 167.65 579.981 171.512 578.382C175.373 576.782 177.891 573.014 177.891 568.834C177.885 563.129 173.262 558.506 167.557 558.5H167.558Z" fill="#19313A"/>
<path fill-rule="evenodd" clip-rule="evenodd" d="M177.084 587.004C174.266 586.616 171.547 585.692 169.076 584.281C166.702 583.027 164.886 582.845 164.466 584.681C163.857 587.33 166.454 594.081 175.166 595.39C180.742 596.228 184.792 594.602 187.047 592.773C188.19 591.885 189.047 590.679 189.508 589.307C190.008 587.707 189.38 585.794 185.451 586.553C182.702 587.131 179.88 587.283 177.084 587.004Z" fill="#C9434D"/>
<path fill-rule="evenodd" clip-rule="evenodd" d="M175.884 586.839C173.502 586.323 171.209 585.461 169.076 584.281C166.702 583.027 164.886 582.845 164.466 584.681C163.973 586.827 165.586 591.665 170.852 594.121C173.873 593.036 175.888 590.173 175.89 586.963C175.89 586.919 175.884 586.88 175.884 586.839Z" fill="#7C1423"/>
<path fill-rule="evenodd" clip-rule="evenodd" d="M184.017 586.803C181.725 587.166 179.396 587.233 177.086 587.003C174.517 586.667 172.031 585.861 169.753 584.625H169.753C169.804 585.591 170.044 586.538 170.46 587.412C171.124 588.393 174.303 589.612 176.096 589.867C179.596 590.367 182.347 589.474 182.651 589.136C183.168 588.396 183.625 587.616 184.017 586.803Z" fill="white"/>
<path opacity="0.2" fill-rule="evenodd" clip-rule="evenodd" d="M174.824 587.324C177.752 588.019 180.801 588.029 183.733 587.355C183.9 587.037 184.017 586.803 184.017 586.803C181.725 587.166 179.396 587.233 177.086 587.003C174.517 586.667 172.031 585.861 169.753 584.625H169.753C169.804 585.591 170.044 586.538 170.46 587.412C170.918 588.089 172.575 588.878 174.146 589.387C172.882 588.942 171.852 588.004 171.29 586.787C171.136 586.06 172.018 586.602 174.824 587.324Z" fill="#BAC4CA"/>
<path fill-rule="evenodd" clip-rule="evenodd" d="M180.711 595.418C179.958 593.789 175.494 589.618 166.511 590.756C168.7 593.351 171.801 595.007 175.174 595.385C177.008 595.675 178.875 595.686 180.711 595.418Z" fill="#EC6469"/>
<path fill-rule="evenodd" clip-rule="evenodd" d="M179.444 595.562C179.436 595.562 174.392 595.251 171.975 593.642C169.575 592.042 170.141 590.601 172.237 590.756C170.336 590.5 168.409 590.5 166.508 590.756C168.697 593.351 171.798 595.007 175.171 595.385C176.584 595.604 178.018 595.663 179.444 595.562Z" fill="#DB545B"/>
<path opacity="0.2" fill-rule="evenodd" clip-rule="evenodd" d="M176.607 592.485C175.289 591.747 173.817 591.326 172.307 591.258C170.222 591.469 174.398 593.144 176.214 593.804C178.542 594.651 178.814 593.63 176.607 592.485Z" fill="white"/>
<path opacity="0.2" fill-rule="evenodd" clip-rule="evenodd" d="M179.325 594.285C178.972 594.047 178.501 594.058 178.501 594.346C178.501 594.56 178.773 594.916 179.325 595.087C179.877 595.258 179.894 594.667 179.325 594.285Z" fill="white"/>
<path fill-rule="evenodd" clip-rule="evenodd" d="M194.751 574.117C196.304 572.417 196.19 566.646 193.998 564.943C191.341 562.908 187.548 563.346 185.425 565.935C183.302 568.523 183.614 572.329 186.131 574.537C188.647 576.745 192.461 576.559 194.751 574.117Z" fill="white"/>
<path opacity="0.2" fill-rule="evenodd" clip-rule="evenodd" d="M194.751 574.117C195.256 573.455 195.57 572.667 195.662 571.84C194.361 574.361 191.261 575.796 188.55 573.993C185.193 571.758 185.625 566.581 186.979 564.593C184.932 565.861 183.804 568.199 184.086 570.59C184.368 572.981 186.009 574.993 188.295 575.75C190.581 576.507 193.098 575.872 194.751 574.121V574.117Z" fill="#BAC4CA"/>
<path fill-rule="evenodd" clip-rule="evenodd" d="M184.162 571.164C184.162 571.164 183.976 566.512 187.716 564.979C189.726 564.087 192.035 564.17 193.975 565.204C194.459 565.485 194.845 565.907 195.081 566.414C195.03 565.542 194.602 564.736 193.909 564.205C192.604 563.227 190.686 562.669 187.933 563.614C182.41 565.517 184.162 571.164 184.162 571.164Z" fill="#19313A"/>
<path fill-rule="evenodd" clip-rule="evenodd" d="M194.13 566.078C192.96 565.73 191.693 565.999 190.764 566.792C188.921 568.56 188.497 571.347 189.733 573.582C190.55 574.813 192.026 575.433 193.476 575.155C194.607 574.732 195.439 573.756 195.676 572.572C196.223 570.819 196.12 568.927 195.387 567.243C195.152 566.695 194.695 566.272 194.13 566.078Z" fill="#19313A"/>
<path fill-rule="evenodd" clip-rule="evenodd" d="M195.677 572.573C195.812 572.119 195.905 571.653 195.955 571.182C195.238 573.28 193.298 574.717 191.082 574.792C191.812 575.191 192.66 575.32 193.475 575.156C194.607 574.734 195.44 573.757 195.677 572.573Z" fill="#002030"/>
<path fill-rule="evenodd" clip-rule="evenodd" d="M194.744 566.886C194.345 566.476 193.744 566.335 193.204 566.525C192.664 566.715 192.283 567.201 192.228 567.771C191.993 569.408 193.108 571.201 194.463 571.201C195.363 571.201 195.777 570.35 195.652 569.072C195.627 568.257 195.304 567.479 194.744 566.886Z" fill="white"/>
<path fill-rule="evenodd" clip-rule="evenodd" d="M141.595 565.624C139.681 564.463 134.995 563.664 131.933 566.665C128.871 569.666 129.093 577.917 134.654 580.698C137.708 582.375 141.473 582.032 144.173 579.832C144.861 574.001 144.886 567.773 141.595 565.624Z" fill="#F8C6A3"/>
<path fill-rule="evenodd" clip-rule="evenodd" d="M135.495 575.352C135.495 574.244 136.162 573.246 137.186 572.822C138.208 572.399 139.386 572.633 140.168 573.416C140.951 574.2 141.185 575.377 140.76 576.4C140.336 577.423 139.338 578.089 138.23 578.088C136.72 578.087 135.496 576.863 135.495 575.352Z" fill="#DD8964"/>
<path fill-rule="evenodd" clip-rule="evenodd" d="M138.231 578.083C140.814 578.063 142.796 575.237 142.377 571.842C141.883 567.842 138.623 567.137 136.612 567.249C134.507 567.334 132.813 569.008 132.703 571.112C133.482 569.379 135.445 568.516 137.249 569.112C140.6 570.006 139.517 575.012 138.399 575.349C137.281 575.686 138.231 578.083 138.231 578.083Z" fill="#DD8964"/>
<path fill-rule="evenodd" clip-rule="evenodd" d="M138.038 565.248C136.079 564.91 134.072 565.489 132.594 566.819C130.624 568.478 130.194 571.084 130.515 573.481C130.523 573.538 130.664 573.63 130.675 573.553C131.024 570.96 131.56 568.317 133.92 566.753C135.176 565.961 136.602 565.476 138.08 565.339C138.141 565.327 138.065 565.254 138.038 565.248Z" fill="#FDDEBC"/>
<path fill-rule="evenodd" clip-rule="evenodd" d="M145.131 580.711C144.765 579.748 144.357 578.088 144.357 578.088C143.493 578.871 142.488 579.482 141.395 579.888C138.418 580.985 135.102 580.649 132.405 578.978C133.044 579.684 133.806 580.267 134.655 580.697C137.129 582.043 140.105 582.097 142.626 580.84C146.316 590.217 152.037 594.133 160.542 597.668C162.76 598.557 165.07 599.197 167.429 599.577C157.161 597.722 148.661 590.531 145.131 580.711Z" fill="#F2A37C"/>
<path fill-rule="evenodd" clip-rule="evenodd" d="M173.61 596.536C172.017 596.133 170.49 595.504 169.076 594.667C169.076 594.667 170.031 596.567 173.455 597.353C177.277 598.231 179.21 597.006 179.21 597.006C177.331 597.125 175.444 596.967 173.61 596.536Z" fill="#F2A37C"/>
<path fill-rule="evenodd" clip-rule="evenodd" d="M101.529 659.899C101.473 663.65 100.183 673.733 107.922 681.589C115.661 689.445 130.555 686.396 133.543 685.689C135.803 685.265 138.109 685.146 140.4 685.337C141.994 685.305 146.145 684.282 146.849 681.117C146.849 681.117 142.393 683.461 139.11 678.302C135.514 672.227 135.616 664.652 139.374 658.676C142.858 653.326 150.319 652.167 152.357 651.922C152.357 651.922 151.851 649.494 148.521 649.073C146.704 648.842 142.021 651.019 135.596 652.885C125.983 655.681 113.527 660.117 101.529 659.899Z" fill="#4477BB"/>
<path fill-rule="evenodd" clip-rule="evenodd" d="M140.951 651.485C137.499 652.971 133.478 658.778 132.558 664.085C133.85 660.456 135.928 657.157 138.642 654.424C140.571 652.478 144.083 650.832 144.47 650.505C144.881 650.161 143.261 650.49 140.951 651.485Z" fill="#71ABDE"/>
<path fill-rule="evenodd" clip-rule="evenodd" d="M133.544 685.693C135.804 685.269 138.11 685.15 140.401 685.341C141.995 685.309 146.146 684.286 146.85 681.121C144.71 682.113 142.179 681.67 140.503 680.01L138.82 680.788C138.82 680.788 137.633 683.233 134.927 680.204C131.221 676.054 131.94 667.066 131.94 667.066C130.089 677.759 134.707 682.032 134.124 682.341C133.541 682.65 123.305 685.28 116.214 680.872C109.123 676.464 110.759 663.293 114.624 661.572C118.544 659.829 123.024 658.41 129.791 654.628C121.235 657.208 111.234 660.075 101.53 659.899C101.474 663.65 100.184 673.733 107.923 681.589C115.662 689.445 130.557 686.396 133.544 685.693Z" fill="#3E65AE"/>
<path fill-rule="evenodd" clip-rule="evenodd" d="M141.677 654.149C144.592 653.066 147.641 652.385 150.74 652.124C149.569 650.738 145.908 651.281 141.677 654.149Z" fill="#295296"/>
<path fill-rule="evenodd" clip-rule="evenodd" d="M152.358 651.926C155.264 651.487 166.405 651.034 172.258 654.382C178.391 657.893 179.166 662.482 178.688 667.498C178.21 672.514 146.853 681.121 146.853 681.121C146.853 681.121 145.844 683.238 142.153 682.488C138.463 681.738 135.803 678.323 134.983 671.358C134.163 664.393 137.441 657.019 141.675 654.151C144.387 652.486 147.576 651.773 150.738 652.126L152.358 651.926Z" fill="#F8C6A3"/>
<path fill-rule="evenodd" clip-rule="evenodd" d="M156.253 666.145C156.253 666.145 152.192 667.064 146.125 672.235C141.154 676.472 138.469 677.257 136.693 672.482C134.917 667.707 136.53 660.211 139.482 656.135C136.015 660.407 134.395 665.886 134.982 671.357C135.802 678.322 138.465 681.736 142.152 682.487C145.839 683.238 146.852 681.12 146.852 681.12C146.852 681.12 150.705 669.853 156.253 666.145Z" fill="#F2A37C"/>
<path fill-rule="evenodd" clip-rule="evenodd" d="M146.849 681.121C145.332 681.733 143.758 682.191 142.149 682.488C145.84 683.238 146.849 681.121 146.849 681.121Z" fill="#295296"/>
<path fill-rule="evenodd" clip-rule="evenodd" d="M178.684 667.495C178.226 673.922 171.446 697.861 169.964 704.038C168.672 709.423 167.864 712.682 167.864 712.682C159.612 719.214 151.422 722.633 143.297 722.766C143.297 722.766 143.697 709.401 143.697 701.881C143.697 694.361 143.961 687.832 146.534 680.313C147.315 678.029 151.069 669.366 156.256 666.142C163.167 661.849 169.983 665.92 178.684 667.495Z" fill="#F8C6A3"/>
<path fill-rule="evenodd" clip-rule="evenodd" d="M156.542 702.337C150.553 703.142 149.001 702.337 147.73 695.906C146.459 689.475 148.011 676.85 149.89 673.338C148.555 675.554 147.431 677.891 146.531 680.317C143.959 687.836 143.694 694.366 143.694 701.885C143.694 705.943 143.579 711.7 143.473 716.144L149.073 715.366L167.579 710.684C167.579 710.684 168.017 710.308 168.593 709.734C168.944 708.293 169.411 706.367 169.968 704.042C170.006 703.882 170.051 703.699 170.096 703.511C167.333 702.047 161.987 701.605 156.542 702.337Z" fill="#F2A37C"/>
<path fill-rule="evenodd" clip-rule="evenodd" d="M172.985 670.386C171.373 669.896 169.918 668.988 168.77 667.754C167.57 666.368 167.056 664.539 166.391 664.907C165.062 665.644 165.726 670.967 168.461 672.759C170.162 674.051 172.44 674.291 174.372 673.381C175.333 672.895 176.514 671.346 172.985 670.386Z" fill="#F2A37C"/>
<path opacity="0.3" fill-rule="evenodd" clip-rule="evenodd" d="M178.684 667.498C179.162 662.479 178.384 657.892 172.254 654.382C168.976 652.506 164.037 651.824 159.817 651.664C164.465 652.064 174.524 655.046 176.684 661.629C177.233 663.298 177.184 666.068 176.753 670.286C175.743 680.215 172.586 693.986 172.583 693.997C175.095 684.5 178.37 671.897 178.684 667.498Z" fill="white"/>
<path fill-rule="evenodd" clip-rule="evenodd" d="M167.87 712.684C168.298 710.9 168.953 709.178 169.818 707.561C170.337 706.87 170.337 705.661 167.139 704.969C163.941 704.277 155.381 704.709 149.074 706.784C142.768 708.859 141.557 711.106 141.902 712.056C142.248 713.006 143.755 718.703 143.302 722.769C151.405 722.666 159.597 719.194 167.87 712.684Z" fill="#EFF8FC"/>
<path fill-rule="evenodd" clip-rule="evenodd" d="M169.252 708.634V708.627C169.252 708.627 162.915 707.191 153.997 709.463C144.836 711.796 142.545 714.495 142.545 714.495C142.745 715.404 142.955 716.481 143.113 717.623C144.236 716.732 147.249 714.823 153.997 713.101C158.57 711.886 163.329 711.535 168.03 712.066C168.364 710.897 168.772 709.751 169.252 708.634V708.634Z" fill="#4477BB"/>
<g style="mix-blend-mode:multiply" opacity="0.2">
<path fill-rule="evenodd" clip-rule="evenodd" d="M154.315 720.601C153.684 720.352 152.98 720.365 152.358 720.636C148.464 721.928 147.595 718.994 147.577 717.01C147.612 714.921 147.32 712.839 146.711 710.839C146.394 710.137 146.379 709.335 146.67 708.622C146.96 707.908 147.532 707.345 148.25 707.065C142.655 709.058 141.566 711.148 141.897 712.056C142.243 713.007 143.75 718.703 143.297 722.769C147.068 722.694 150.797 721.96 154.315 720.601Z" fill="#242357"/>
</g>
<path fill-rule="evenodd" clip-rule="evenodd" d="M150.623 719.556C148.823 720.83 144.684 720.956 143.216 718.433C143.216 718.433 142.557 718.827 141.844 720.887C141.131 722.947 140.277 727.799 141.844 730.415C144.852 728.881 148.042 727.736 151.338 727.007C156.568 725.898 163.781 722.014 166.237 720.35C168.693 718.686 178.998 712.74 186.685 716.466C186.685 716.466 184.07 712.345 177.017 712.424C169.964 712.503 167.866 712.686 167.866 712.686C167.866 712.686 158.54 713.051 154.19 715.04C151.416 716.306 152.525 718.208 150.623 719.556Z" fill="#4477BB"/>
<g style="mix-blend-mode:multiply" opacity="0.2">
<path fill-rule="evenodd" clip-rule="evenodd" d="M166.236 720.348C168.086 719.137 170.048 718.105 172.094 717.268C171.622 715.131 170.9 713.017 169.855 712.581C169.498 712.594 169.194 712.608 168.942 712.62H168.931C165.972 714.071 165.781 718.348 165.781 718.348C164.121 718.61 158.781 721.909 156.828 722.765C153.001 724.44 150.852 724.209 149.95 723.557C148.681 722.641 148.763 720.297 148.763 720.297C146.791 720.697 144.288 720.276 143.213 718.43C143.213 718.43 142.554 718.824 141.841 720.884C141.128 722.944 140.274 727.796 141.841 730.412C144.848 728.878 148.038 727.733 151.334 727.004C156.567 725.896 163.779 722.012 166.236 720.348Z" fill="#242357"/>
</g>
<path fill-rule="evenodd" clip-rule="evenodd" d="M186.676 716.455C179.398 712.94 169.783 718.073 166.699 720.046C166.843 719.946 165.607 715.756 168.93 712.624C172.253 709.492 184.776 709.732 186.676 716.455Z" fill="#EFF8FC"/>
<path fill-rule="evenodd" clip-rule="evenodd" d="M186.676 716.452C183.576 710.783 174.763 712.952 172.438 713.865C170.113 714.778 167.075 715.465 167.471 714.526C166.679 716.25 166.411 718.168 166.699 720.043C169.785 718.073 179.4 712.94 186.676 716.452Z" fill="#A9CBD3"/>
<path fill-rule="evenodd" clip-rule="evenodd" d="M186.678 716.456C185.426 715.045 183.684 714.164 181.805 713.99C177.139 713.525 172.459 714.72 168.588 717.367C164.7 719.909 160.588 722.092 156.304 723.888C152.287 725.634 143.904 726.275 141.36 729.46C141.36 729.46 140.68 730.583 140.874 733.587C140.825 736.151 142.47 738.442 144.915 739.214C147.689 740.323 155.774 740.877 165.839 737.55C175.904 734.223 182.539 733.739 186.683 727.801C190.286 722.636 188.015 718.008 186.678 716.456Z" fill="#DEF1F8"/>
<mask id="mask1_0_3" style="mask-type:luminance" maskUnits="userSpaceOnUse" x="140" y="713" width="49" height="28">
<path fill-rule="evenodd" clip-rule="evenodd" d="M186.678 716.456C185.426 715.045 183.684 714.164 181.805 713.99C177.139 713.525 172.459 714.72 168.588 717.367C164.7 719.909 160.588 722.092 156.304 723.888C152.287 725.634 143.904 726.275 141.36 729.46C141.36 729.46 140.68 730.583 140.874 733.587C140.825 736.151 142.47 738.442 144.915 739.214C147.689 740.323 155.774 740.877 165.839 737.55C175.904 734.223 182.539 733.739 186.683 727.801C190.286 722.636 188.015 718.008 186.678 716.456Z" fill="white"/>
</mask>
<g mask="url(#mask1_0_3)">
<path d="M189.586 720.047C187.865 716.665 182.386 713.869 174.767 716.302C166.99 718.785 165.631 722.115 157.348 725.247C149.065 728.379 141.89 727.385 139.72 734.447" stroke="#4477BB"/>
</g>
<path fill-rule="evenodd" clip-rule="evenodd" d="M181.573 717.016C176.175 716.938 170.904 718.659 166.591 721.907C162.819 724.642 158.585 726.675 154.091 727.907C150.182 729.029 148.062 728.896 144.22 730.65C142.187 731.395 140.946 733.456 141.238 735.602C141.815 737.325 143.182 738.669 144.915 739.216C147.689 740.325 155.774 740.879 165.839 737.552C175.904 734.225 182.539 733.741 186.683 727.803C188.301 725.654 188.938 722.924 188.438 720.281C187.622 718.639 186.51 717.132 181.573 717.016Z" fill="#E8914F"/>
<path fill-rule="evenodd" clip-rule="evenodd" d="M151.263 738.634C149.296 738.731 147.328 738.475 145.451 737.877C144.154 737.494 143.112 736.523 142.639 735.255C142.531 733.788 143.426 732.433 144.817 731.955C146.668 731.124 148.617 730.534 150.617 730.198C151.731 729.972 152.993 729.715 154.484 729.287C159.142 728.014 163.531 725.907 167.437 723.068C171.359 720.112 176.126 718.493 181.037 718.449C181.201 718.449 181.366 718.449 181.53 718.455C185.73 718.555 186.516 719.685 187.059 720.744C187.411 722.948 186.847 725.201 185.499 726.98C182.608 731.125 178.343 732.353 171.887 734.213C169.943 734.772 167.739 735.407 165.387 736.187C160.838 737.747 156.07 738.574 151.261 738.638L151.263 738.634Z" fill="#D1783B"/>
<mask id="mask2_0_3" style="mask-type:luminance" maskUnits="userSpaceOnUse" x="142" y="718" width="46" height="21">
<path fill-rule="evenodd" clip-rule="evenodd" d="M151.263 738.634C149.296 738.731 147.328 738.475 145.451 737.877C144.153 737.494 143.112 736.523 142.639 735.255C142.531 733.788 143.426 732.433 144.817 731.955C146.668 731.124 148.617 730.534 150.617 730.198C151.731 729.972 152.993 729.715 154.484 729.287C159.142 728.014 163.531 725.907 167.437 723.068C171.359 720.112 176.126 718.493 181.037 718.449C181.201 718.449 181.366 718.449 181.53 718.455C185.73 718.555 186.516 719.685 187.059 720.744C187.411 722.948 186.847 725.201 185.499 726.98C182.608 731.125 178.343 732.353 171.887 734.213C169.943 734.772 167.739 735.407 165.387 736.187C160.838 737.747 156.07 738.574 151.261 738.638L151.263 738.634Z" fill="white"/>
</mask>
<g mask="url(#mask2_0_3)">
<path fill-rule="evenodd" clip-rule="evenodd" d="M183.816 730.642L185.394 718.675L186.344 718.8L184.766 730.767L183.816 730.642Z" fill="#C66D32"/>
<path fill-rule="evenodd" clip-rule="evenodd" d="M179.748 733L181.745 717.854L182.695 717.979L180.698 733.125L179.748 733Z" fill="#C66D32"/>
<path fill-rule="evenodd" clip-rule="evenodd" d="M175.828 734.363L177.863 718.702L178.813 718.825L176.778 734.486L175.828 734.363Z" fill="#C66D32"/>
<path fill-rule="evenodd" clip-rule="evenodd" d="M171.888 735.545L174.114 719.198L175.062 719.327L172.837 735.674L171.888 735.545Z" fill="#C66D32"/>
<path fill-rule="evenodd" clip-rule="evenodd" d="M167.985 736.796L169.966 721.323L170.917 721.444L168.936 736.918L167.985 736.796Z" fill="#C66D32"/>
<path fill-rule="evenodd" clip-rule="evenodd" d="M164.139 737.351L165.934 723.75L166.884 723.875L165.089 737.476L164.139 737.351Z" fill="#C66D32"/>
<path fill-rule="evenodd" clip-rule="evenodd" d="M160.255 738.435L161.833 726.469L162.783 726.594L161.205 738.56L160.255 738.435Z" fill="#C66D32"/>
<path fill-rule="evenodd" clip-rule="evenodd" d="M156.305 739.565L157.883 727.597L158.833 727.723L157.255 739.69L156.305 739.565Z" fill="#C66D32"/>
<path fill-rule="evenodd" clip-rule="evenodd" d="M152.566 739.681L153.967 729.059L154.916 729.184L153.516 739.806L152.566 739.681Z" fill="#C66D32"/>
<path fill-rule="evenodd" clip-rule="evenodd" d="M148.813 739.493L150.06 730.037L151.01 730.162L149.763 739.618L148.813 739.493Z" fill="#C66D32"/>
<path fill-rule="evenodd" clip-rule="evenodd" d="M145.15 738.557L146.153 730.958L147.103 731.083L146.1 738.682L145.15 738.557Z" fill="#C66D32"/>
<path fill-rule="evenodd" clip-rule="evenodd" d="M142.929 733.306L143.303 732.425L158.54 738.881L158.167 739.763L142.929 733.306Z" fill="#C66D32"/>
<path fill-rule="evenodd" clip-rule="evenodd" d="M148.439 730.947L148.809 730.064L165.703 737.129L165.334 738.012L148.439 730.947Z" fill="#C66D32"/>
<path fill-rule="evenodd" clip-rule="evenodd" d="M156.02 729.016L156.402 728.138L172.556 735.17L172.174 736.048L156.02 729.016Z" fill="#C66D32"/>
<path fill-rule="evenodd" clip-rule="evenodd" d="M161.519 726.646L161.893 725.766L178.973 733.024L178.599 733.905L161.519 726.646Z" fill="#C66D32"/>
<path fill-rule="evenodd" clip-rule="evenodd" d="M166.518 723.68L166.902 722.803L183.95 730.267L183.566 731.144L166.518 723.68Z" fill="#C66D32"/>
<path fill-rule="evenodd" clip-rule="evenodd" d="M171.051 721.078L171.424 720.195L187.526 726.994L187.154 727.877L171.051 721.078Z" fill="#C66D32"/>
<path fill-rule="evenodd" clip-rule="evenodd" d="M177.447 718.884L177.82 718.002L188.764 722.624L188.392 723.506L177.447 718.884Z" fill="#C66D32"/>
</g>
<path fill-rule="evenodd" clip-rule="evenodd" d="M187.067 720.74C187.022 720.653 186.974 720.565 186.924 720.478C186.897 722.254 186.314 723.977 185.258 725.406C182.368 729.551 178.103 730.78 171.646 732.639C169.702 733.199 167.498 733.833 165.146 734.613C160.597 736.173 155.829 737.001 151.02 737.064C149.053 737.162 147.085 736.905 145.208 736.307C144.156 735.969 143.26 735.263 142.685 734.319C142.617 734.627 142.604 734.944 142.646 735.256C143.119 736.524 144.161 737.495 145.458 737.878C147.335 738.476 149.303 738.732 151.271 738.635C156.079 738.571 160.847 737.744 165.396 736.184C167.754 735.404 169.957 734.77 171.896 734.21C178.353 732.35 182.617 731.121 185.509 726.977C186.856 725.197 187.419 722.945 187.067 720.74Z" fill="#C66D32"/>
<path d="M185.433 718.445L183.433 730.413" stroke="#E8914F"/>
<path d="M181.366 717.625L179.366 732.772" stroke="#E8914F"/>
<path d="M177.483 718.473L175.434 734.132" stroke="#E8914F"/>
<path d="M173.722 718.97L171.503 735.318" stroke="#E8914F"/>
<path d="M169.6 721.094L167.6 736.566" stroke="#E8914F"/>
<path d="M165.757 723.522L163.757 737.124" stroke="#E8914F"/>
<path d="M161.872 726.239L159.872 738.207" stroke="#E8914F"/>
<path d="M157.922 727.368L155.922 739.336" stroke="#E8914F"/>
<path d="M154.182 728.83L152.182 739.453" stroke="#E8914F"/>
<path d="M150.429 729.808L148.429 739.265" stroke="#E8914F"/>
<path d="M146.766 730.728L144.766 738.328" stroke="#E8914F"/>
<path d="M142.253 732.574L157.491 739.031" stroke="#E8914F"/>
<path d="M147.761 730.215L164.649 737.275" stroke="#E8914F"/>
<path d="M155.348 728.286L171.503 735.318" stroke="#E8914F"/>
<path d="M160.844 725.914L177.928 733.18" stroke="#E8914F"/>
<path d="M165.849 722.95L182.897 730.413" stroke="#E8914F"/>
<path d="M170.375 720.345L186.478 727.144" stroke="#E8914F"/>
<path d="M176.771 718.151L187.72 722.768" stroke="#E8914F"/>
<circle cx="307.153" cy="525.761" r="25.1691" fill="#7A60A6"/>
<path fill-rule="evenodd" clip-rule="evenodd" d="M331.644 519.983C330.255 514.071 326.764 508.866 321.822 505.336C321.998 505.926 325.398 517.859 315.722 529.914C306.022 542.002 288.347 541.523 287.56 541.495C294.915 550.659 307.636 553.507 318.196 548.354C328.757 543.2 334.339 531.419 331.64 519.983H331.644Z" fill="#6D5298"/>
<path fill-rule="evenodd" clip-rule="evenodd" d="M329.766 520.004C332.097 529.903 327.761 540.173 319.041 545.406C310.321 550.638 299.218 549.633 291.58 542.918C300.838 547.6 312.033 546.023 319.637 538.965C327.242 531.907 329.647 520.86 325.666 511.279C327.627 513.869 329.023 516.841 329.766 520.004H329.766Z" fill="#5F4589"/>
<path opacity="0.25" fill-rule="evenodd" clip-rule="evenodd" d="M285.419 523.362C284.42 519.115 287.052 514.862 291.299 513.862C295.546 512.863 299.799 515.495 300.799 519.742C301.798 523.989 299.166 528.242 294.919 529.242C292.88 529.722 290.733 529.372 288.951 528.269C287.17 527.167 285.899 525.401 285.419 523.362Z" fill="#F298BB"/>
<path opacity="0.25" fill-rule="evenodd" clip-rule="evenodd" d="M287.203 520.666C286.781 518.873 287.48 517.002 288.975 515.926C290.47 514.85 292.466 514.78 294.032 515.75C295.599 516.719 296.427 518.536 296.131 520.354C295.834 522.172 294.472 523.633 292.679 524.055C290.231 524.63 287.78 523.114 287.203 520.666Z" fill="#F298BB"/>
<path opacity="0.25" fill-rule="evenodd" clip-rule="evenodd" d="M304.914 513.62C303.915 509.373 306.547 505.12 310.794 504.12C315.041 503.121 319.294 505.753 320.294 510C321.293 514.247 318.661 518.5 314.414 519.5C312.375 519.98 310.228 519.63 308.446 518.527C306.665 517.425 305.394 515.659 304.914 513.62Z" fill="#F298BB"/>
<path opacity="0.25" fill-rule="evenodd" clip-rule="evenodd" d="M307.231 510.477C306.837 508.803 307.49 507.055 308.886 506.05C310.282 505.045 312.146 504.98 313.609 505.886C315.072 506.791 315.845 508.488 315.569 510.186C315.292 511.884 314.02 513.248 312.345 513.642C310.059 514.18 307.769 512.763 307.231 510.477Z" fill="#F298BB"/>
<path opacity="0.25" fill-rule="evenodd" clip-rule="evenodd" d="M295.194 508.942C294.831 507.406 295.429 505.803 296.71 504.88C297.99 503.958 299.701 503.898 301.042 504.729C302.384 505.559 303.093 507.117 302.838 508.675C302.583 510.232 301.415 511.482 299.878 511.842C298.872 512.079 297.814 511.906 296.935 511.362C296.057 510.818 295.43 509.948 295.194 508.942Z" fill="#F298BB"/>
<path opacity="0.25" fill-rule="evenodd" clip-rule="evenodd" d="M296.048 507.975C295.852 507.148 296.174 506.284 296.864 505.787C297.553 505.29 298.474 505.258 299.197 505.706C299.92 506.153 300.301 506.992 300.164 507.831C300.026 508.67 299.397 509.343 298.569 509.536C297.442 509.799 296.315 509.101 296.048 507.975Z" fill="#F298BB"/>
<path opacity="0.15" fill-rule="evenodd" clip-rule="evenodd" d="M315.478 505.342C312.441 503.73 300.992 501.525 292.448 510.342C285.486 517.617 283.985 528.541 288.727 537.424C288.003 534.348 287.757 523.624 294.479 515.483C301.201 507.342 310.957 505.784 315.478 505.342Z" fill="#D6B6D8"/>
<path fill-rule="evenodd" clip-rule="evenodd" d="M315.477 505.342C315.477 505.342 301.572 501.119 292.57 511.602C283.568 522.085 287.708 535.687 288.727 537.419C288.727 537.419 280.25 523.063 291.343 510.528C301.699 498.826 315.477 505.342 315.477 505.342Z" fill="#D7CEE7"/>
<path fill-rule="evenodd" clip-rule="evenodd" d="M350.575 550.552C349.205 553.439 337.991 551.182 322.796 545.46C316.52 543.095 309.56 540.136 302.335 536.708C294.852 533.156 287.935 529.503 281.994 526.022C268.32 518.016 259.757 510.929 261.109 508.082C262.393 505.382 272.291 507.188 286.009 512.118C285.538 512.85 285.104 513.606 284.709 514.382C279.144 512.777 275.456 512.406 274.868 513.646C274.25 514.946 277.168 517.774 282.386 521.302C289.287 525.797 296.501 529.793 303.972 533.259C311.164 536.74 318.584 539.729 326.181 542.205C332.602 544.2 336.929 544.761 337.57 543.411C338.18 542.123 335.325 539.335 330.195 535.852C330.539 535.068 330.844 534.267 331.108 533.452C343.956 541.113 351.878 547.807 350.575 550.552Z" fill="#D5E9F9"/>
<path fill-rule="evenodd" clip-rule="evenodd" d="M350 551.358C348.629 554.245 337.415 551.988 322.221 546.266C315.944 543.901 308.985 540.942 301.759 537.514C294.276 533.962 287.359 530.309 281.418 526.828C267.743 518.822 259.181 511.735 260.532 508.888C261.816 506.188 271.774 508.028 285.489 512.957C285.046 513.691 284.647 514.452 284.295 515.234C278.73 513.628 274.88 513.211 274.295 514.451C273.678 515.751 276.595 518.579 281.814 522.107C288.715 526.602 295.929 530.598 303.4 534.064C310.592 537.545 318.012 540.534 325.609 543.01C332.03 545.005 336.357 545.566 336.999 544.216C337.609 542.928 334.906 540.231 329.775 536.748C330.119 535.964 330.518 535.221 330.782 534.406C343.627 542.066 351.303 548.614 350 551.358Z" fill="#F49639"/>
<path fill-rule="evenodd" clip-rule="evenodd" d="M350.575 550.552C349.205 553.439 337.991 551.182 322.796 545.46C316.52 543.095 309.56 540.136 302.335 536.708C294.852 533.156 287.935 529.503 281.994 526.022C268.32 518.016 259.757 510.929 261.109 508.082C262.393 505.382 272.291 507.188 286.009 512.118C285.538 512.85 285.104 513.606 284.709 514.382C279.144 512.777 275.456 512.406 274.868 513.646C274.25 514.946 277.168 517.774 282.386 521.302C289.287 525.797 296.501 529.793 303.972 533.259C311.164 536.74 318.584 539.729 326.181 542.205C332.602 544.2 336.929 544.761 337.57 543.411C338.18 542.123 335.325 539.335 330.195 535.852C330.539 535.068 330.844 534.267 331.108 533.452C343.956 541.113 351.878 547.807 350.575 550.552Z" fill="#FFE568"/>
<path fill-rule="evenodd" clip-rule="evenodd" d="M344.656 543.359C347.212 545.841 351.363 548.759 349.295 550.5C347.227 552.241 330.995 549.1 300.118 534.738C300.118 534.738 331.469 546.871 339.574 548.297C347.615 549.711 348.744 548.624 344.656 543.359Z" fill="#FCC231"/>
<path fill-rule="evenodd" clip-rule="evenodd" d="M275.904 509.482C272.487 508.791 264.064 506.726 262.449 508.296C260.834 509.866 270.467 518.077 273.944 520.036C273.944 520.036 265.302 513.06 264.928 509.843C264.648 507.441 275.904 509.482 275.904 509.482Z" fill="#FFEDB2"/>
<path fill-rule="evenodd" clip-rule="evenodd" d="M284.637 513.425C282.472 512.753 280.265 512.22 278.031 511.831C274.847 511.325 271.046 510.82 271.437 512.985C271.828 515.15 274.728 517.806 280.602 521.885C286.476 525.964 296.394 531.539 296.394 531.539C296.394 531.539 281.877 524.249 276.317 520.349C270.757 516.449 267.401 512.507 268.177 510.81C269.145 508.693 277.956 510.11 285.043 512.91L284.637 513.425Z" fill="#FFDA60"/>
<path fill-rule="evenodd" clip-rule="evenodd" d="M68.3059 555.774C68.3059 555.774 42.4619 559.563 21.5459 552.153C20.9606 551.943 20.6403 551.313 20.8149 550.716C21.1609 549.529 21.7429 547.439 22.3149 544.961C23.652 539.18 68.3059 555.774 68.3059 555.774Z" fill="#A9CBD3"/>
<path fill-rule="evenodd" clip-rule="evenodd" d="M22.3149 544.961C21.9609 546.493 21.6039 547.876 21.3009 548.991C42.1859 557.274 68.3009 555.774 68.3009 555.774C68.3009 555.774 23.6509 539.18 22.3149 544.961Z" fill="#8CB8BF"/>
<path fill-rule="evenodd" clip-rule="evenodd" d="M26.5709 520.613C26.5709 520.613 26.7709 531.863 23.695 537.649C20.619 543.435 57.768 556.361 68.3069 555.775C68.3069 555.775 53.8419 543.587 45.9069 533.838C40.7582 527.782 34.0815 523.216 26.5709 520.613Z" fill="#CCE4EA"/>
<path opacity="0.5" fill-rule="evenodd" clip-rule="evenodd" d="M23.695 537.649C20.621 543.435 57.768 556.361 68.3069 555.775C51.4719 550.375 28.4139 531.227 28.4139 531.227C28.2863 527.622 27.6661 524.051 26.5709 520.613C26.5709 520.613 26.7689 531.863 23.695 537.649Z" fill="#A9CBD3"/>
<path fill-rule="evenodd" clip-rule="evenodd" d="M15.2399 523.714C14.1638 523.908 9.15784 524.74 3.86793 525.202C-4.08105 525.896 -10.941 524.537 -10.05 526.668C-9.255 528.568 3.16297 540.757 20.985 547.448C38.807 554.139 61.074 556.348 68.306 555.773C58.0525 551.987 48.176 547.249 38.806 541.621C24.0579 532.635 18.3269 523.155 15.2399 523.714Z" fill="#F7FCFE"/>
<path fill-rule="evenodd" clip-rule="evenodd" d="M68.306 555.774C68.306 555.774 58.582 545.738 52.922 534.818C45.51 520.512 43.751 509.536 42.9659 508.488C42.1809 507.44 38.8799 509.948 33.6079 513.988C31.0802 515.994 28.7258 518.21 26.5699 520.611C26.5699 520.611 51.616 550.005 68.306 555.774Z" fill="#F7FCFE"/>
<path fill-rule="evenodd" clip-rule="evenodd" d="M11.2709 525.958C2.69287 528.103 -7.68811 526.344 -5.29309 529.286C-2.89808 532.228 20.757 550.505 54.5959 553.524C54.5959 553.524 25.026 546.169 11.9359 538.202C-3.4441 528.842 2.25586 528.956 4.68896 528.402C7.00415 527.961 9.229 527.135 11.2709 525.958Z" fill="white"/>
<path fill-rule="evenodd" clip-rule="evenodd" d="M63.4388 552.561C63.4388 552.561 40.4198 534.775 29.0889 521.038C29.0889 521.038 33.7888 514.712 39.6489 511.582C39.6489 511.582 34.8059 516.004 33.3309 518.882C32.6479 520.216 33.9989 523.02 36.2799 525.958C41.6849 532.923 63.4388 552.561 63.4388 552.561Z" fill="white"/>
<path fill-rule="evenodd" clip-rule="evenodd" d="M279.023 597.475C279.023 597.475 259.768 605.74 242.023 604.307C241.526 604.264 241.148 603.842 241.16 603.343C241.184 602.351 241.203 600.611 241.137 598.573C240.984 593.814 279.023 597.475 279.023 597.475Z" fill="#A9CBD3"/>
<path fill-rule="evenodd" clip-rule="evenodd" d="M241.141 598.572C241.182 599.833 241.19 600.979 241.185 601.905C259.085 604.021 279.023 597.475 279.023 597.475C279.023 597.475 240.984 593.814 241.141 598.572Z" fill="#8CB8BF"/>
<path fill-rule="evenodd" clip-rule="evenodd" d="M239.421 578.819C239.421 578.819 241.894 587.499 240.703 592.619C239.512 597.739 270.975 600.1 279.024 597.474C279.024 597.474 265.298 591.007 257.139 585.084C251.898 581.451 245.781 579.287 239.421 578.819Z" fill="#CCE4EA"/>
<path opacity="0.5" fill-rule="evenodd" clip-rule="evenodd" d="M240.703 592.619C239.513 597.738 270.975 600.1 279.024 597.474C264.861 596.761 243.037 586.667 243.037 586.667C242.195 583.898 240.978 581.258 239.421 578.819C239.421 578.819 241.894 587.498 240.703 592.619Z" fill="#A9CBD3"/>
<path fill-rule="evenodd" clip-rule="evenodd" d="M231.279 583.559C230.485 583.932 226.779 585.608 222.77 587.059C216.751 589.236 211.153 589.596 212.283 591.065C213.291 592.375 225.431 599.265 240.626 600.777C255.821 602.289 273.54 599.414 279.026 597.477C270.297 596.655 261.664 595.017 253.24 592.586C239.95 588.653 233.554 582.489 231.279 583.559Z" fill="#F7FCFE"/>
<path fill-rule="evenodd" clip-rule="evenodd" d="M279.024 597.475C279.024 597.475 269.417 591.699 262.777 584.397C254.082 574.835 250.457 566.688 249.631 566.037C248.805 565.386 246.765 568.012 243.512 572.237C241.965 574.313 240.597 576.517 239.421 578.823C239.421 578.823 264.897 596.442 279.024 597.475Z" fill="#F7FCFE"/>
<path fill-rule="evenodd" clip-rule="evenodd" d="M228.662 586.117C222.455 589.547 214.044 590.324 216.507 592.111C218.97 593.898 241.076 603.19 267.931 598.556C267.931 598.556 243.492 598.951 231.702 595.472C217.848 591.386 222.292 590.3 224.063 589.365C225.767 588.547 227.322 587.45 228.662 586.117Z" fill="white"/>
<path fill-rule="evenodd" clip-rule="evenodd" d="M274.587 595.986C274.587 595.986 253.076 586.944 241.46 578.629C241.46 578.629 243.803 572.755 247.698 569.121C247.698 569.121 244.855 573.547 244.305 576.082C244.05 577.257 245.675 579.153 248.049 580.96C253.675 585.246 274.587 595.986 274.587 595.986Z" fill="white"/>
<path fill-rule="evenodd" clip-rule="evenodd" d="M2.55994 596.712H-7.47204C-8.29101 589.916 -14.0559 584.802 -20.901 584.799V578.489C-20.9036 570.79 -27.1434 564.553 -34.8387 564.555L-34.835 564.555C-42.5305 564.555 -48.7689 570.793 -48.7689 578.489V582.611C-50.7264 578.628 -55.1724 576.521 -59.4948 577.528C-63.8171 578.536 -66.8738 582.391 -66.8688 586.829L-66.8689 596.713H-78.6029C-80.9083 596.714 -82.777 598.583 -82.777 600.888H-82.7769C-82.777 603.192 -80.9089 605.061 -78.604 605.062H2.55908C4.8645 605.062 6.73352 603.193 6.73413 600.888C6.73463 599.782 6.2953 598.719 5.51258 597.936C4.72999 597.153 3.66822 596.712 2.56092 596.712H2.55994Z" fill="white"/>
<circle cx="191.097" cy="485.516" r="7.327" fill="white" fill-opacity="0.2"/>
<path fill-rule="evenodd" clip-rule="evenodd" d="M191.097 494.103C190.413 494.103 189.859 493.549 189.858 492.865V478.165C189.859 477.481 190.413 476.927 191.097 476.927C191.425 476.927 191.74 477.057 191.972 477.29C192.205 477.522 192.335 477.837 192.335 478.165V492.865C192.335 493.194 192.204 493.509 191.972 493.741C191.74 493.973 191.425 494.103 191.096 494.103H191.097Z" fill="white" fill-opacity="0.298039"/>
<path fill-rule="evenodd" clip-rule="evenodd" d="M199.683 485.515C199.683 486.199 199.129 486.753 198.445 486.754H183.745C183.061 486.753 182.507 486.199 182.507 485.515C182.507 485.186 182.638 484.871 182.87 484.639C183.102 484.407 183.417 484.277 183.746 484.277H198.445C198.773 484.277 199.088 484.407 199.32 484.64C199.552 484.872 199.683 485.187 199.683 485.515Z" fill="white" fill-opacity="0.298039"/>
<path fill-rule="evenodd" clip-rule="evenodd" d="M196.294 485.515C196.294 486.199 195.739 486.754 195.055 486.754H187.138C186.454 486.754 185.899 486.199 185.899 485.515C185.9 484.831 186.455 484.278 187.138 484.278H195.055C195.739 484.278 196.293 484.831 196.294 485.515Z" fill="white"/>
<path fill-rule="evenodd" clip-rule="evenodd" d="M191.097 490.713C190.413 490.713 189.858 490.158 189.858 489.474V481.553C189.858 480.869 190.413 480.314 191.097 480.314C191.781 480.315 192.335 480.869 192.335 481.553V489.47C192.336 489.799 192.206 490.115 191.974 490.348C191.742 490.582 191.426 490.713 191.097 490.713Z" fill="white"/>
<path fill-rule="evenodd" clip-rule="evenodd" d="M235.469 535.154C235.469 534.063 236.353 533.179 237.444 533.179C238.534 533.179 239.419 534.063 239.419 535.153C239.419 536.244 238.536 537.128 237.445 537.129C236.921 537.129 236.418 536.921 236.048 536.551C235.677 536.18 235.469 535.678 235.469 535.154Z" fill="#FFEDB2"/>
<path fill-rule="evenodd" clip-rule="evenodd" d="M103.623 476.93C103.623 476.13 104.105 475.411 104.843 475.105C105.581 474.8 106.431 474.969 106.995 475.534C107.56 476.099 107.729 476.949 107.422 477.686C107.117 478.424 106.396 478.905 105.597 478.905C104.507 478.905 103.623 478.021 103.623 476.93Z" fill="#FFEDB2"/>
<path fill-rule="evenodd" clip-rule="evenodd" d="M95.3669 527.633C95.3666 526.834 95.8477 526.113 96.5859 525.807C97.3243 525.5 98.1744 525.669 98.7397 526.234C99.3052 526.799 99.4745 527.649 99.1687 528.388C98.863 529.126 98.1425 529.608 97.3431 529.608C96.8191 529.608 96.3164 529.4 95.9458 529.03C95.5752 528.659 95.3669 528.157 95.3669 527.633Z" fill="#FFEDB2"/>
<path fill-rule="evenodd" clip-rule="evenodd" d="M214.091 472.774C214.091 471.975 214.572 471.255 215.31 470.949C216.048 470.643 216.898 470.811 217.464 471.376C218.029 471.941 218.198 472.791 217.893 473.53C217.587 474.268 216.867 474.75 216.068 474.75C215.543 474.75 215.041 474.542 214.67 474.171C214.299 473.801 214.091 473.298 214.091 472.774Z" fill="#FFEDB2"/>
</g>
<defs>
<linearGradient id="paint0_linear_0_3" x1="584.062" y1="392.272" x2="-49.594" y2="112.208" gradientUnits="userSpaceOnUse">
<stop stop-color="#2855AE"/>
<stop offset="1" stop-color="#7292CF"/>
</linearGradient>
<linearGradient id="paint1_linear_0_3" x1="94.232" y1="679.396" x2="94.232" y2="756.651" gradientUnits="userSpaceOnUse">
<stop stop-color="#F59D10" stop-opacity="0.501961"/>
<stop offset="0.144" stop-color="#F59D10" stop-opacity="0.470588"/>
<stop offset="0.361" stop-color="#F59D12" stop-opacity="0.384314"/>
<stop offset="0.624" stop-color="#F69E16" stop-opacity="0.247059"/>
<stop offset="0.921" stop-color="#F69F1B" stop-opacity="0.054902"/>
<stop offset="1" stop-color="#F7A01D" stop-opacity="0.01"/>
</linearGradient>
<linearGradient id="paint2_linear_0_3" x1="176.321" y1="577.736" x2="176.321" y2="557.989" gradientUnits="userSpaceOnUse">
<stop stop-color="#F2A37C"/>
<stop offset="0.09" stop-color="#F2A47D" stop-opacity="0.968627"/>
<stop offset="0.225" stop-color="#F2A780" stop-opacity="0.882353"/>
<stop offset="0.39" stop-color="#F3AC86" stop-opacity="0.741176"/>
<stop offset="0.577" stop-color="#F4B28D" stop-opacity="0.54902"/>
<stop offset="0.783" stop-color="#F6BB97" stop-opacity="0.298039"/>
<stop offset="1" stop-color="#F8C6A3" stop-opacity="0.01"/>
</linearGradient>
<linearGradient id="paint3_linear_0_3" x1="195.739" y1="576.073" x2="195.739" y2="557.956" gradientUnits="userSpaceOnUse">
<stop stop-color="#F2A37C"/>
<stop offset="0.09" stop-color="#F2A47D" stop-opacity="0.968627"/>
<stop offset="0.225" stop-color="#F2A780" stop-opacity="0.882353"/>
<stop offset="0.39" stop-color="#F3AC86" stop-opacity="0.741176"/>
<stop offset="0.577" stop-color="#F4B28D" stop-opacity="0.54902"/>
<stop offset="0.783" stop-color="#F6BB97" stop-opacity="0.298039"/>
<stop offset="1" stop-color="#F8C6A3" stop-opacity="0.01"/>
</linearGradient>
</defs>
</svg>
