<svg width="40" height="30" viewBox="0 0 40 30" fill="none" xmlns="http://www.w3.org/2000/svg">
<path fill-rule="evenodd" clip-rule="evenodd" d="M23.5161 0V4.42368H21.1728C19.8783 4.42368 18.829 5.20552 18.829 6.16998C18.829 7.13443 19.8783 7.91629 21.1728 7.91629H23.5161V12.2819H30.5469V9.66298C30.5482 9.18151 31.0724 8.79173 31.7185 8.79173C32.3647 8.79173 32.8889 9.18151 32.8902 9.66298V12.2826H40V0H23.5161Z" fill="#345FB4"/>
<path fill-rule="evenodd" clip-rule="evenodd" d="M5.31237 18.3941C5.31237 19.3586 6.36172 20.1404 7.65616 20.1404C8.95059 20.1404 9.99994 19.3586 9.99994 18.3941V16.6482H15.3123V12.2826H12.969C12.322 12.2826 11.7974 11.8918 11.7974 11.4097C11.7974 10.9275 12.322 10.5367 12.969 10.5367H15.3123V5.29739H0V16.6482H5.31237V18.3941Z" fill="#345FB4"/>
<path fill-rule="evenodd" clip-rule="evenodd" d="M27.6562 18.3941V16.6482C27.6562 15.6837 26.6068 14.9019 25.3124 14.9019C24.018 14.9019 22.9686 15.6837 22.9686 16.6482V18.3941H17.6562V20.6063C20.2432 20.6084 22.3389 22.1715 22.3388 24.099C22.3388 26.0265 20.2431 27.5896 17.6561 27.5916L17.6562 29.8038H32.8906V18.3941H27.6562Z" fill="#345FB4"/>
<path fill-rule="evenodd" clip-rule="evenodd" d="M17.6566 25.8449C18.951 25.8449 20.0004 25.063 20.0004 24.0986C20.0004 23.1341 18.951 22.3522 17.6566 22.3522L15.3123 22.3523V18.3941H12.3432C12.3432 20.323 10.2445 21.8867 7.65565 21.8867C5.06678 21.8867 2.96808 20.323 2.96808 18.3941H0V29.803H15.3123V25.8449H17.6566Z" fill="#345FB4"/>
</svg>
