<svg width="2" height="3" viewBox="0 0 2 3" fill="none" xmlns="http://www.w3.org/2000/svg">
<path fill-rule="evenodd" clip-rule="evenodd" d="M0.0999413 0.634924C0.106986 0.644555 0.19005 0.755155 0.153948 0.70346L0.241708 0.823672C0.300117 0.903819 0.357499 0.983985 0.413707 1.06413C0.524215 1.22443 0.630026 1.38913 0.730995 1.55824C0.94027 1.90208 1.13017 2.25554 1.31039 2.615C1.41517 2.79069 1.64147 2.85005 1.81905 2.74844C1.99193 2.64168 2.05063 2.41789 1.95245 2.23989C1.58659 1.48549 1.14338 0.771133 0.630026 0.108306C0.484737 -0.0361205 0.249927 -0.0361021 0.104638 0.108325C-0.0349281 0.256127 -0.0349281 0.487122 0.104638 0.634906" fill="#003849"/>
</svg>
