<svg width="32" height="30" viewBox="0 0 32 30" fill="none" xmlns="http://www.w3.org/2000/svg">
<path fill-rule="evenodd" clip-rule="evenodd" d="M31.7978 14.1174V28.4707C31.5128 29.2119 30.722 29.7913 29.7101 30H2.08767C1.04013 29.7635 0.244336 29.1356 0 28.3527V14.2353C0.701615 12.8639 1.25946 12.5894 3.34104 12.5887H5.57652V11.8967C5.57652 10.4482 5.56132 8.99966 5.57652 7.55185C5.55882 4.42898 8.19358 1.62744 12.1829 0.527208C13.0339 0.318969 13.8989 0.143051 14.7745 0H17.0232C17.1104 0.0413763 17.2052 0.0736081 17.3047 0.0956091C21.7229 0.460209 25.2801 2.92042 26.0309 6.13084C26.2733 7.62401 26.3633 9.12841 26.3002 10.6314C26.3265 11.2693 26.3002 11.9071 26.3002 12.5902C27.1203 12.5902 27.8401 12.6221 28.5519 12.5835C30.0168 12.3872 31.4379 13.0587 31.7978 14.1174ZM9.57702 12.5472H22.3257C22.3257 10.8984 22.3338 9.2926 22.3257 7.6868C22.3002 5.42831 20.0926 3.49992 17.061 3.08833C14.0189 2.69819 11.0287 3.95017 9.94352 6.06842C9.75187 6.38938 9.63483 6.73161 9.59729 7.08082C9.55879 8.89658 9.57702 10.7122 9.57702 12.5472ZM14.4591 23.1935C14.4591 24.9891 14.4591 24.9891 16.6734 24.8994C16.6997 24.8994 16.727 24.8994 16.7534 24.8994C17.1907 24.9128 17.3699 24.7711 17.3547 24.4402C17.3284 23.8728 17.3659 23.304 17.3426 22.7344C17.2129 22.1432 17.5264 21.5465 18.1637 21.1716C18.7988 20.7525 19.1596 20.1547 19.1553 19.5284C19.1511 18.9022 18.7822 18.307 18.1414 17.8925C17.5336 17.4557 16.7111 17.2166 15.8597 17.2293C15.0084 17.242 14.1999 17.5054 13.6168 17.9601C13.0085 18.3854 12.6708 18.9779 12.6856 19.594C12.7004 20.2099 13.0664 20.7933 13.6948 21.2027C14.2905 21.5271 14.5868 22.0694 14.4612 22.6053C14.443 22.8011 14.4571 22.9977 14.4571 23.1935H14.4591Z" fill="#345FB4"/>
</svg>
