<svg width="1" height="1" viewBox="0 0 1 1" fill="none" xmlns="http://www.w3.org/2000/svg">
<path fill-rule="evenodd" clip-rule="evenodd" d="M0.470101 0.946836L0.845565 0.729115C0.881147 0.705063 0.911416 0.670248 0.933655 0.627847C0.960959 0.590251 0.980109 0.54448 0.989251 0.494937C1.00161 0.444443 1.00334 0.390825 0.994317 0.33924C0.992463 0.287385 0.979614 0.237099 0.956882 0.193665C0.915864 0.105807 0.849024 0.0413627 0.770571 0.013926L0.686558 0C0.631208 -4.34583e-05 0.5766 0.0183008 0.528663 0.053164L0.154312 0.270885C0.118606 0.295067 0.088337 0.329853 0.0660983 0.372153C0.0122313 0.452044 -0.0103781 0.55787 0.00457129 0.66076C0.00630096 0.71261 0.01915 0.762896 0.0418829 0.80633C0.0827774 0.894459 0.149617 0.959004 0.228194 0.986074L0.311218 1C0.366568 1.00023 0.421176 0.981868 0.469113 0.946836" fill="#003849"/>
</svg>
