<svg width="375" height="813" viewBox="0 0 375 813" fill="none" xmlns="http://www.w3.org/2000/svg">
<rect width="375" height="813" fill="url(#paint0_linear_7908_3659)"/>
<g opacity="0.35">
<circle cx="314.418" cy="86.262" r="5.61" fill="white" fill-opacity="0.2"/>
<path fill-rule="evenodd" clip-rule="evenodd" d="M314.419 92.836C314.168 92.8362 313.926 92.7365 313.748 92.5587C313.57 92.3809 313.47 92.1396 313.47 91.888V80.636C313.47 80.3844 313.57 80.1431 313.748 79.9653C313.926 79.7875 314.168 79.6877 314.419 79.688C314.943 79.688 315.367 80.1124 315.367 80.636V91.888C315.367 92.4115 314.943 92.836 314.419 92.836Z" fill="white" fill-opacity="0.298039"/>
<path fill-rule="evenodd" clip-rule="evenodd" d="M320.992 86.262C320.992 86.5136 320.893 86.755 320.715 86.933C320.537 87.111 320.296 87.211 320.044 87.211L308.792 87.211C308.541 87.211 308.299 87.111 308.122 86.933C307.944 86.755 307.844 86.5136 307.844 86.262V86.262C307.844 85.7384 308.269 85.314 308.792 85.314H320.044C320.568 85.314 320.992 85.7384 320.992 86.262Z" fill="white" fill-opacity="0.298039"/>
<path fill-rule="evenodd" clip-rule="evenodd" d="M318.398 86.262C318.398 86.7861 317.974 87.211 317.449 87.211L311.387 87.211C310.863 87.211 310.438 86.7861 310.438 86.262V86.262C310.439 85.7383 310.864 85.314 311.387 85.314H317.449C317.701 85.3137 317.942 85.4135 318.12 85.5913C318.298 85.7691 318.398 86.0104 318.398 86.262V86.262Z" fill="white"/>
<path fill-rule="evenodd" clip-rule="evenodd" d="M314.419 90.242C314.167 90.2422 313.926 90.1423 313.748 89.9643C313.57 89.7863 313.47 89.5448 313.47 89.293V83.231C313.47 82.7069 313.895 82.282 314.419 82.282C314.943 82.2825 315.367 82.7073 315.367 83.231V89.293C315.367 89.5446 315.268 89.786 315.09 89.964C314.912 90.142 314.671 90.242 314.419 90.242Z" fill="white"/>
<circle cx="59.4992" cy="126.474" r="5.61" fill="white" fill-opacity="0.2"/>
<path fill-rule="evenodd" clip-rule="evenodd" d="M59.502 133.048C58.9784 133.048 58.554 132.624 58.554 132.1V120.848C58.554 120.324 58.9784 119.9 59.502 119.9C59.7535 119.9 59.9949 120 60.1729 120.177C60.3509 120.355 60.4509 120.596 60.4509 120.848V132.1C60.4509 132.352 60.3509 132.593 60.1729 132.771C59.9949 132.949 59.7535 133.048 59.502 133.048Z" fill="white" fill-opacity="0.298039"/>
<path fill-rule="evenodd" clip-rule="evenodd" d="M66.0731 126.474C66.0733 126.726 65.9734 126.967 65.7954 127.145C65.6174 127.323 65.3759 127.423 65.1241 127.423L53.873 127.423C53.6215 127.423 53.3802 127.323 53.2023 127.145C53.0245 126.967 52.9248 126.726 52.925 126.474V126.474C52.925 125.95 53.3495 125.526 53.873 125.526H65.124C65.3756 125.526 65.617 125.625 65.795 125.803C65.973 125.981 66.0731 126.222 66.0731 126.474Z" fill="white" fill-opacity="0.298039"/>
<path fill-rule="evenodd" clip-rule="evenodd" d="M63.479 126.474C63.4792 126.726 63.3795 126.967 63.2017 127.145C63.0239 127.323 62.7826 127.423 62.531 127.423L56.469 127.423C55.9449 127.423 55.52 126.998 55.52 126.474V126.474C55.5205 125.95 55.9452 125.526 56.4689 125.526H62.531C63.0546 125.526 63.479 125.95 63.479 126.474Z" fill="white"/>
<path fill-rule="evenodd" clip-rule="evenodd" d="M59.502 130.454C58.9782 130.453 58.554 130.029 58.554 129.505V123.443C58.5537 123.191 58.6534 122.95 58.8313 122.772C59.0091 122.594 59.2504 122.494 59.502 122.494C59.7537 122.494 59.9952 122.594 60.1733 122.772C60.3513 122.95 60.4512 123.191 60.4509 123.443V129.505C60.4509 130.029 60.0261 130.454 59.502 130.454Z" fill="white"/>
<path fill-rule="evenodd" clip-rule="evenodd" d="M33.546 78.0191C33.5457 77.1846 34.2224 76.5074 35.0574 76.5071C35.8925 76.5068 36.5696 77.1835 36.5699 78.0185C36.5702 78.8536 35.8935 79.5308 35.0585 79.5311C34.6573 79.5312 34.2726 79.372 33.989 79.0884C33.7053 78.8048 33.5459 78.4202 33.5459 78.0191H33.546Z" fill="#FFEDB2"/>
<path fill-rule="evenodd" clip-rule="evenodd" d="M95.063 135.929C95.0635 135.094 95.7407 134.418 96.5757 134.418C97.4106 134.418 98.0872 135.095 98.0869 135.93C98.0867 136.765 97.4098 137.442 96.5748 137.442C96.1737 137.442 95.7891 137.282 95.5055 136.999C95.2219 136.715 95.0629 136.33 95.0631 135.929H95.063Z" fill="#FFEDB2"/>
<path fill-rule="evenodd" clip-rule="evenodd" d="M348.394 124.269C348.394 123.657 348.763 123.106 349.328 122.872C349.893 122.638 350.543 122.768 350.976 123.2C351.408 123.633 351.537 124.283 351.303 124.848C351.068 125.413 350.517 125.781 349.905 125.781C349.071 125.781 348.394 125.104 348.394 124.269H348.394Z" fill="#FFEDB2"/>
<path fill-rule="evenodd" clip-rule="evenodd" d="M247.441 79.6881C247.441 79.077 247.809 78.5256 248.374 78.2914C248.939 78.0571 249.589 78.1863 250.022 78.6186C250.454 79.0509 250.584 79.7012 250.35 80.2662C250.116 80.8313 249.565 81.1999 248.953 81.2001C248.552 81.2002 248.168 81.0409 247.884 80.7574C247.6 80.4738 247.441 80.0892 247.441 79.6881Z" fill="#FFEDB2"/>
<path fill-rule="evenodd" clip-rule="evenodd" d="M241.12 118.51C241.12 117.898 241.488 117.346 242.053 117.112C242.619 116.877 243.27 117.006 243.703 117.439C244.135 117.871 244.265 118.522 244.031 119.088C243.797 119.653 243.245 120.022 242.633 120.022C241.798 120.022 241.121 119.345 241.12 118.51H241.12Z" fill="#FFEDB2"/>
<path fill-rule="evenodd" clip-rule="evenodd" d="M332.026 76.503C332.026 75.8911 332.394 75.3394 332.96 75.1052C333.525 74.871 334.176 75.0005 334.609 75.4332C335.041 75.8659 335.171 76.5167 334.937 77.0821C334.702 77.6474 334.151 78.0161 333.539 78.016C332.703 78.016 332.026 77.3386 332.026 76.503Z" fill="#FFEDB2"/>
<path fill-rule="evenodd" clip-rule="evenodd" d="M162.36 89.7821C162.36 89.1701 162.728 88.6184 163.294 88.3842C163.859 88.1501 164.51 88.2795 164.943 88.7122C165.375 89.145 165.505 89.7958 165.271 90.3611C165.036 90.9265 164.485 91.2951 163.873 91.2951C163.471 91.2953 163.086 91.136 162.803 90.8522C162.519 90.5684 162.36 90.1834 162.36 89.7821Z" fill="#FFEDB2"/>
<path fill-rule="evenodd" clip-rule="evenodd" d="M18 107.979C18.0002 107.143 18.6774 106.467 19.5125 106.467C20.3475 106.467 21.0242 107.144 21.024 107.98C21.0237 108.815 20.3465 109.491 19.5115 109.491C18.6766 109.491 18 108.814 18 107.979Z" fill="#FFEDB2"/>
</g>
<path fill-rule="evenodd" clip-rule="evenodd" d="M29 223H346C362.016 223 375 233.941 375 247.436V812H0V247.436C1.90735e-06 233.941 12.9837 223 29 223Z" fill="white"/>
<path d="M16 137C16 128.716 22.7157 122 31 122H244C252.284 122 259 128.716 259 137V155C259 163.284 252.284 170 244 170H31C22.7157 170 16 163.284 16 155V137Z" fill="white"/>
<path d="M16.5 137C16.5 128.992 22.9919 122.5 31 122.5H244C252.008 122.5 258.5 128.992 258.5 137V155C258.5 163.008 252.008 169.5 244 169.5H31C22.9919 169.5 16.5 163.008 16.5 155V137Z" stroke="#FDFDFF" stroke-opacity="0.96"/>
<g filter="url(#filter0_d_7908_3659)">
<path d="M303 132C303 123.716 309.716 117 318 117H341C349.284 117 356 123.716 356 132V150C356 158.284 349.284 165 341 165H318C309.716 165 303 158.284 303 150V132Z" fill="white" fill-opacity="0.01" shape-rendering="crispEdges"/>
<path d="M303.5 132C303.5 123.992 309.992 117.5 318 117.5H341C349.008 117.5 355.5 123.992 355.5 132V150C355.5 158.008 349.008 164.5 341 164.5H318C309.992 164.5 303.5 158.008 303.5 150V132Z" stroke="white" stroke-opacity="0.01" shape-rendering="crispEdges"/>
</g>
<g clip-path="url(#clip0_7908_3659)">
<path d="M189.376 503.705C194.64 503.705 198.907 498.896 198.907 492.964C198.907 487.032 194.64 482.222 189.376 482.222C184.113 482.222 179.846 487.032 179.846 492.964C179.846 498.896 184.113 503.705 189.376 503.705Z" fill="#CCCAF1"/>
<path d="M246.31 503.102C251.642 501.297 257.31 499.415 261.539 495.125C265.317 491.291 267.868 485.437 266.303 479.687C264.741 473.95 260.062 470.124 255.231 468.221C252.491 467.141 249.624 466.543 246.759 466.072C243.644 465.561 240.515 465.142 237.388 464.739C224.726 463.107 212.016 462.109 199.258 461.747C192.963 461.569 186.669 461.573 180.373 461.676C174.75 461.768 168.828 461.766 163.612 459.072C159.556 456.978 155.875 453.167 154.744 448.16C153.44 442.379 155.846 436.492 159.298 432.306C161.118 430.099 163.244 428.242 165.438 426.534C167.818 424.681 170.281 422.96 172.797 421.353C177.753 418.19 182.935 415.497 188.288 413.304C190.928 412.222 193.608 411.288 196.311 410.427C198.594 409.7 200.883 408.971 203.089 407.98C207.354 406.065 211.41 402.82 212.494 397.5C213.522 392.458 211.789 386.985 208.751 383.24C205.237 378.906 199.938 377.007 194.858 376.699C189.154 376.354 183.583 377.963 178.222 380.005C172.504 382.183 166.91 384.687 161.072 386.451C155.282 388.198 149.381 389.434 143.421 390.149C140.503 390.499 137.498 390.894 134.563 390.626C132.103 390.401 129.656 389.586 127.843 387.618C126.289 385.931 125.363 383.613 125.681 381.166C125.739 380.722 126.338 380.911 126.28 381.352C125.893 384.331 127.689 387.075 129.903 388.481C132.461 390.106 135.574 390.108 138.422 389.922C144.598 389.502 150.732 388.503 156.761 386.934C162.685 385.41 168.397 383.23 174.103 380.901C179.522 378.689 185.062 376.53 190.851 376.051C195.874 375.636 201.159 376.461 205.535 379.419C209.381 382.02 212.209 386.356 213.11 391.333C213.991 396.195 212.771 401.09 209.505 404.483C206.124 407.997 201.487 409.499 197.166 410.882C191.686 412.637 186.323 414.688 181.132 417.351C175.871 420.043 170.824 423.241 166.05 426.908C161.441 430.458 156.892 434.925 155.434 441.258C154.755 444.208 154.881 447.337 156.017 450.123C157.027 452.601 158.691 454.685 160.629 456.292C165.253 460.127 171.082 460.915 176.668 460.993C182.941 461.081 189.215 460.843 195.491 460.959C208.281 461.195 221.044 462.073 233.782 463.591C236.974 463.972 240.161 464.393 243.345 464.854C246.208 465.268 249.082 465.68 251.897 466.417C256.903 467.726 261.774 470.244 264.885 475.028C266.266 477.102 267.122 479.559 267.361 482.138C267.578 484.829 266.994 487.525 265.914 489.919C263.525 495.217 259.05 498.587 254.297 500.801C251.752 501.987 249.111 502.886 246.476 503.778C246.092 503.908 245.928 503.232 246.31 503.102Z" fill="#F2F2F2"/>
<path d="M126.083 386.833C128.829 386.833 131.055 384.324 131.055 381.229C131.055 378.134 128.829 375.625 126.083 375.625C123.337 375.625 121.11 378.134 121.11 381.229C121.11 384.324 123.337 386.833 126.083 386.833Z" fill="#F2F2F2"/>
<path d="M160.578 397.458C163.324 397.458 165.551 394.949 165.551 391.854C165.551 388.759 163.324 386.25 160.578 386.25C157.832 386.25 155.606 388.759 155.606 391.854C155.606 394.949 157.832 397.458 160.578 397.458Z" fill="#F2F2F2"/>
<path d="M189.791 376.209C192.537 376.209 194.763 373.699 194.763 370.604C194.763 367.509 192.537 365 189.791 365C187.045 365 184.818 367.509 184.818 370.604C184.818 373.699 187.045 376.209 189.791 376.209Z" fill="#F2F2F2"/>
<path d="M208.023 400.027C210.769 400.027 212.995 397.518 212.995 394.422C212.995 391.327 210.769 388.818 208.023 388.818C205.276 388.818 203.05 391.327 203.05 394.422C203.05 397.518 205.276 400.027 208.023 400.027Z" fill="#F2F2F2"/>
<path d="M183.368 427.581C186.114 427.581 188.34 425.072 188.34 421.977C188.34 418.882 186.114 416.372 183.368 416.372C180.622 416.372 178.396 418.882 178.396 421.977C178.396 425.072 180.622 427.581 183.368 427.581Z" fill="#F2F2F2"/>
<path d="M152.084 440.891C154.83 440.891 157.056 438.382 157.056 435.287C157.056 432.192 154.83 429.682 152.084 429.682C149.338 429.682 147.111 432.192 147.111 435.287C147.111 438.382 149.338 440.891 152.084 440.891Z" fill="#F2F2F2"/>
<path d="M185.233 461.673C187.979 461.673 190.205 459.164 190.205 456.069C190.205 452.974 187.979 450.465 185.233 450.465C182.486 450.465 180.26 452.974 180.26 456.069C180.26 459.164 182.486 461.673 185.233 461.673Z" fill="#F2F2F2"/>
<path d="M220.868 473.349C223.614 473.349 225.84 470.84 225.84 467.745C225.84 464.65 223.614 462.141 220.868 462.141C218.122 462.141 215.896 464.65 215.896 467.745C215.896 470.84 218.122 473.349 220.868 473.349Z" fill="#F2F2F2"/>
<path d="M262.511 470.78C265.257 470.78 267.483 468.271 267.483 465.176C267.483 462.081 265.257 459.572 262.511 459.572C259.765 459.572 257.539 462.081 257.539 465.176C257.539 468.271 259.765 470.78 262.511 470.78Z" fill="#F2F2F2"/>
<path d="M274.754 504H100.247C100.182 504 100.119 503.97 100.073 503.918C100.027 503.866 100.001 503.796 100.001 503.722C100.001 503.648 100.027 503.578 100.073 503.526C100.119 503.474 100.182 503.444 100.247 503.444H274.754C274.819 503.444 274.882 503.473 274.928 503.525C274.974 503.578 275 503.648 275 503.722C275 503.796 274.974 503.866 274.928 503.919C274.882 503.971 274.819 504 274.754 504Z" fill="#3F3D56"/>
<path d="M230.202 428.747C233.635 428.747 236.418 425.611 236.418 421.742C236.418 417.873 233.635 414.737 230.202 414.737C226.77 414.737 223.987 417.873 223.987 421.742C223.987 425.611 226.77 428.747 230.202 428.747Z" fill="#2F2E41" fill-opacity="0.23"/>
<path d="M218.717 500.933H216.177L214.968 489.891H218.717L218.717 500.933Z" fill="#A0616A"/>
<path d="M214.363 500.115H219.261V503.592H211.278C211.278 503.135 211.358 502.683 211.513 502.261C211.668 501.84 211.895 501.456 212.182 501.134C212.468 500.811 212.808 500.555 213.182 500.38C213.556 500.205 213.958 500.115 214.363 500.115Z" fill="#2F2E41" fill-opacity="0.23"/>
<path d="M238.399 500.933H235.859L234.65 489.891H238.399L238.399 500.933Z" fill="#A0616A"/>
<path d="M234.045 500.115H238.943V503.592H230.96C230.96 503.135 231.04 502.683 231.195 502.261C231.35 501.84 231.577 501.456 231.864 501.134C232.15 500.811 232.49 500.555 232.864 500.38C233.239 500.205 233.64 500.115 234.045 500.115Z" fill="#2F2E41" fill-opacity="0.23"/>
<path d="M229.258 428.788C232.068 428.788 234.346 426.221 234.346 423.053C234.346 419.886 232.068 417.318 229.258 417.318C226.447 417.318 224.169 419.886 224.169 423.053C224.169 426.221 226.447 428.788 229.258 428.788Z" fill="#A0616A"/>
<path d="M232.29 447.29L234.567 441.394C235.12 440.011 235.279 438.469 235.021 436.98C234.763 435.491 234.101 434.129 233.127 433.081C232.927 432.858 232.715 432.65 232.491 432.458C231.368 431.467 229.983 430.927 228.557 430.924C227.598 430.928 226.651 431.165 225.781 431.62C225.706 431.657 225.634 431.697 225.559 431.736C225.416 431.813 225.275 431.897 225.138 431.984C224.246 432.561 223.487 433.366 222.922 434.335C222.357 435.304 222.002 436.408 221.886 437.56L220.881 447.05C220.628 447.795 211.612 474.695 214.765 495.233C214.798 495.452 214.893 495.653 215.036 495.808C215.178 495.962 215.361 496.061 215.556 496.09L218.753 496.58C218.987 496.616 219.223 496.551 219.416 496.398C219.609 496.245 219.743 496.015 219.791 495.756L225.155 466.938C225.188 466.759 225.274 466.598 225.398 466.48C225.523 466.362 225.678 466.295 225.841 466.289C226.003 466.283 226.162 466.338 226.293 466.446C226.425 466.554 226.52 466.708 226.564 466.884L234.142 497.189C234.196 497.41 234.313 497.604 234.474 497.742C234.636 497.88 234.833 497.955 235.035 497.955C235.096 497.955 235.156 497.949 235.216 497.937L239.121 497.089C239.348 497.041 239.551 496.899 239.69 496.692C239.829 496.484 239.895 496.225 239.873 495.966C239.299 488.753 236.249 452.622 232.29 447.29Z" fill="#2F2E41" fill-opacity="0.23"/>
<path d="M209.482 427.826C209.447 428.167 209.478 428.513 209.574 428.838C209.67 429.164 209.829 429.462 210.038 429.712C210.247 429.961 210.502 430.156 210.786 430.282C211.069 430.408 211.373 430.463 211.677 430.442L214.522 438.146L216.673 434.552L213.642 427.787C213.578 427.213 213.328 426.687 212.942 426.307C212.556 425.926 212.06 425.719 211.547 425.724C211.034 425.729 210.541 425.945 210.16 426.333C209.78 426.72 209.538 427.252 209.482 427.826L209.482 427.826Z" fill="#A0616A"/>
<path d="M228.975 455.048C229.278 455.007 229.569 454.892 229.827 454.711C230.086 454.53 230.306 454.287 230.473 454C230.639 453.712 230.748 453.387 230.791 453.047C230.834 452.707 230.81 452.361 230.721 452.033L236.706 447.12L233.103 445.599L227.972 450.497C227.492 450.702 227.096 451.098 226.858 451.61C226.62 452.121 226.557 452.714 226.68 453.275C226.804 453.836 227.106 454.326 227.529 454.653C227.952 454.98 228.467 455.12 228.975 455.048Z" fill="#A0616A"/>
<path d="M219.22 443.282C218.99 443.282 218.762 443.257 218.536 443.206C217.992 443.09 217.482 442.824 217.05 442.432C216.618 442.041 216.279 441.535 216.061 440.961L212.076 435.484C211.992 435.369 211.931 435.234 211.896 435.089C211.862 434.944 211.856 434.793 211.877 434.646C211.899 434.498 211.949 434.357 212.023 434.233C212.097 434.108 212.193 434.003 212.306 433.924L215.141 431.946C215.246 431.873 215.363 431.824 215.484 431.802C215.606 431.78 215.73 431.786 215.85 431.818C215.969 431.85 216.082 431.909 216.182 431.991C216.281 432.073 216.365 432.176 216.429 432.294L219.238 437.51L224.617 433.029C225.045 432.776 225.54 432.705 226.01 432.829C226.481 432.953 226.897 433.264 227.181 433.705C227.465 434.146 227.599 434.687 227.559 435.231C227.518 435.774 227.305 436.282 226.96 436.663L221.591 442.183C220.96 442.887 220.108 443.283 219.22 443.282Z" fill="#2F2E41" fill-opacity="0.23"/>
<path d="M233.753 451.519C233.746 451.519 233.739 451.519 233.731 451.519C233.601 451.515 233.472 451.48 233.354 451.417C233.236 451.354 233.131 451.264 233.045 451.152L230.525 447.838C230.439 447.725 230.375 447.593 230.338 447.45C230.301 447.307 230.291 447.157 230.309 447.01C230.327 446.863 230.373 446.722 230.443 446.596C230.513 446.47 230.606 446.362 230.715 446.279L235.435 442.733L231.159 436.939C230.911 436.472 230.819 435.919 230.902 435.382C230.985 434.845 231.237 434.36 231.611 434.015C231.985 433.669 232.457 433.488 232.941 433.502C233.424 433.517 233.887 433.727 234.244 434.094L239.441 439.818C239.85 440.239 240.162 440.766 240.351 441.353C240.539 441.94 240.599 442.57 240.524 443.189C240.449 443.807 240.242 444.396 239.921 444.905C239.599 445.414 239.173 445.827 238.679 446.109L234.432 451.189C234.345 451.293 234.239 451.376 234.123 451.433C234.006 451.489 233.88 451.519 233.753 451.519Z" fill="#2F2E41" fill-opacity="0.23"/>
<path d="M227.964 439.306C227.923 439.306 227.883 439.304 227.843 439.298C227.667 439.274 227.501 439.193 227.365 439.066C227.229 438.939 227.128 438.771 227.074 438.581L225.18 432.036C225.132 431.871 225.14 431.691 225.2 431.531C225.261 431.372 225.371 431.242 225.51 431.166L225.572 431.134C225.627 431.104 225.683 431.074 225.739 431.046C226.622 430.584 227.584 430.343 228.557 430.34C229.821 430.343 231.057 430.761 232.113 431.544C232.254 431.65 232.353 431.815 232.388 432.002C232.423 432.19 232.391 432.386 232.299 432.547L228.746 438.821C228.663 438.97 228.547 439.092 228.411 439.177C228.274 439.262 228.12 439.307 227.964 439.306Z" fill="#E6E6E6"/>
<path d="M235.103 418.615C236.226 418.615 237.136 417.588 237.136 416.322C237.136 415.056 236.226 414.03 235.103 414.03C233.979 414.03 233.069 415.056 233.069 416.322C233.069 417.588 233.979 418.615 235.103 418.615Z" fill="#2F2E41" fill-opacity="0.23"/>
<path d="M228.13 413.803C226.702 413.803 225.332 414.442 224.321 415.581C223.311 416.72 222.744 418.264 222.744 419.874V422.443H225.547L226.887 419.874L227.289 422.443H235.796L233.517 419.874C233.517 418.264 232.949 416.72 231.939 415.581C230.929 414.442 229.559 413.803 228.13 413.803Z" fill="#2F2E41" fill-opacity="0.23"/>
<path d="M236.148 414.752C236.373 413.96 236.839 413.282 237.463 412.838C238.088 412.394 238.831 412.212 239.562 412.325C240.859 412.569 241.883 413.743 242.494 415.055C243.105 416.366 243.386 417.834 243.797 419.241C244.207 420.648 244.79 422.063 245.826 422.974C246.862 423.884 248.452 424.131 249.47 423.195C249.354 424.171 248.968 425.081 248.368 425.797C247.767 426.513 246.982 426.998 246.123 427.183C245.265 427.369 244.377 427.245 243.584 426.83C242.791 426.416 242.134 425.73 241.706 424.871C241.169 423.795 241.03 422.532 240.871 421.31C240.711 420.088 240.505 418.823 239.863 417.821C239.222 416.819 238.022 416.165 237.004 416.621L236.148 414.752Z" fill="#2F2E41" fill-opacity="0.23"/>
<path d="M170.016 418.249C168.162 418.249 166.384 417.419 165.073 415.941C163.762 414.463 163.025 412.459 163.025 410.369C163.025 408.944 163.026 407.854 163.028 407.699C163.087 402.818 164.177 398.022 166.21 393.71C162.871 398.862 161.035 405.056 160.956 411.436C160.954 411.591 160.953 412.68 160.953 414.106C160.953 416.195 161.69 418.2 163.001 419.677C164.312 421.155 166.09 421.985 167.944 421.986C169.468 421.985 170.95 421.424 172.164 420.387C173.379 419.351 174.261 417.896 174.675 416.243C173.395 417.537 171.736 418.252 170.016 418.249Z" fill="#3F3D56" fill-opacity="0.29"/>
<path d="M188.829 397.484C190.973 397.599 193.059 398.299 194.91 399.524C196.76 400.748 198.32 402.461 199.454 404.514C200.588 406.567 201.263 408.9 201.421 411.312C201.579 413.724 201.215 416.144 200.36 418.362C201.596 416.727 202.505 414.81 203.024 412.742C203.542 410.675 203.66 408.506 203.367 406.383C203.075 404.26 202.38 402.233 201.33 400.44C200.279 398.647 198.898 397.13 197.281 395.993C195.663 394.857 193.847 394.126 191.957 393.852C190.066 393.578 188.145 393.767 186.325 394.405C184.505 395.044 182.828 396.117 181.41 397.552C179.991 398.987 178.863 400.75 178.104 402.721C179.417 400.98 181.066 399.603 182.926 398.695C184.785 397.787 186.805 397.373 188.829 397.484Z" fill="#3F3D56" fill-opacity="0.27"/>
<path d="M190.98 467.287C189.088 467.287 187.272 466.45 185.924 464.955C184.575 463.46 183.803 461.427 183.772 459.295C183.684 453.118 183.639 445.506 183.639 444.636C183.637 442.52 183.908 440.415 184.441 438.386L184.439 438.385C184.754 437.366 185.134 436.375 185.577 435.419C184.218 437.461 183.136 439.72 182.367 442.121L182.369 442.122C181.836 444.151 181.566 446.256 181.567 448.372C181.567 449.242 181.612 456.854 181.7 463.032C181.731 465.163 182.504 467.196 183.852 468.691C185.201 470.186 187.016 471.023 188.908 471.023C190.467 471.023 191.985 470.452 193.233 469.398C194.48 468.343 195.391 466.861 195.828 465.174C194.503 466.536 192.773 467.29 190.98 467.287Z" fill="#3F3D56" fill-opacity="0.27"/>
<path d="M126.217 501.04L128.757 501.04L129.965 489.997L126.216 489.998L126.217 501.04Z" fill="#FFB8B8"/>
<path d="M133.655 503.698L125.672 503.698L125.672 500.222L130.571 500.222C131.389 500.222 132.173 500.588 132.752 501.24C133.33 501.892 133.655 502.776 133.655 503.698L133.655 503.698Z" fill="#2F2E41" fill-opacity="0.23"/>
<path d="M117.101 501.04L119.641 501.04L120.849 489.997L117.1 489.998L117.101 501.04Z" fill="#FFB8B8"/>
<path d="M124.539 503.698L116.556 503.698L116.556 500.222L121.455 500.222C122.273 500.222 123.057 500.588 123.636 501.24C124.214 501.892 124.539 502.776 124.539 503.698L124.539 503.698Z" fill="#2F2E41" fill-opacity="0.23"/>
<path d="M119.32 497.644L116.839 497.497C116.711 497.489 116.586 497.453 116.471 497.391C116.355 497.328 116.252 497.24 116.167 497.132C116.082 497.024 116.016 496.899 115.975 496.762C115.933 496.626 115.916 496.481 115.924 496.337L118.889 459.333L132.545 463.487L133.86 463.082L129.746 495.84C129.711 496.086 129.602 496.312 129.438 496.48C129.274 496.647 129.064 496.746 128.843 496.761L126.169 496.902C126.035 496.91 125.901 496.887 125.776 496.834C125.65 496.781 125.536 496.7 125.44 496.594C125.344 496.489 125.268 496.363 125.218 496.223C125.167 496.083 125.143 495.933 125.147 495.782L125.632 476.121C125.634 476.03 125.606 475.941 125.553 475.873C125.5 475.804 125.426 475.76 125.346 475.749C125.266 475.739 125.185 475.762 125.12 475.816C125.054 475.869 125.009 475.948 124.993 476.037L120.319 496.776C120.275 497.022 120.157 497.243 119.984 497.401C119.812 497.56 119.595 497.646 119.373 497.646C119.355 497.646 119.338 497.645 119.32 497.644Z" fill="#2F2E41" fill-opacity="0.23"/>
<path d="M126.673 429.057C129.483 429.057 131.761 426.489 131.761 423.321C131.761 420.154 129.483 417.586 126.673 417.586C123.862 417.586 121.584 420.154 121.584 423.321C121.584 426.489 123.862 429.057 126.673 429.057Z" fill="#FFB8B8"/>
<path d="M118.201 440.171L118.76 453.777L118.963 458.727C118.971 458.943 119.036 459.151 119.149 459.325C119.262 459.498 119.419 459.63 119.6 459.702L132.721 465.06C132.827 465.104 132.94 465.127 133.053 465.125C133.182 465.126 133.31 465.097 133.429 465.041C133.549 464.985 133.656 464.902 133.747 464.798C133.837 464.693 133.907 464.57 133.954 464.434C134.001 464.298 134.023 464.153 134.019 464.007L133.481 439.543C133.446 437.536 132.79 435.606 131.628 434.085C130.465 432.564 128.868 431.548 127.112 431.212C126.985 431.19 126.856 431.168 126.726 431.149C125.638 430.997 124.532 431.115 123.488 431.496C122.444 431.877 121.487 432.511 120.684 433.354C119.852 434.216 119.199 435.273 118.77 436.451C118.341 437.629 118.147 438.899 118.201 440.171L118.201 440.171Z" fill="#CCCCCC"/>
<path d="M138.99 462.345C138.679 462.236 138.396 462.048 138.162 461.794C137.928 461.54 137.75 461.227 137.641 460.882C137.533 460.537 137.498 460.168 137.539 459.804C137.58 459.441 137.696 459.093 137.878 458.789L133.428 452.12L137.268 451.853L140.905 458.227C141.294 458.566 141.565 459.049 141.67 459.591C141.775 460.133 141.707 460.699 141.479 461.19C141.25 461.682 140.876 462.067 140.421 462.278C139.965 462.489 139.459 462.513 138.99 462.345H138.99Z" fill="#FFB8B8"/>
<path d="M135.861 457.583C135.743 457.529 135.636 457.449 135.546 457.348C135.455 457.247 135.384 457.127 135.335 456.994L128.631 438.992C128.499 438.64 128.431 438.261 128.429 437.879C128.427 437.497 128.492 437.118 128.62 436.764C128.749 436.41 128.937 436.088 129.176 435.816C129.415 435.544 129.699 435.328 130.012 435.18C130.324 435.032 130.66 434.955 130.999 434.953C131.339 434.952 131.675 435.025 131.989 435.17C132.303 435.315 132.588 435.528 132.829 435.797C133.07 436.067 133.262 436.387 133.393 436.739L140.097 454.742C140.196 455.009 140.197 455.309 140.1 455.577C140.003 455.845 139.815 456.058 139.579 456.171L136.602 457.579C136.485 457.634 136.359 457.664 136.232 457.664C136.105 457.665 135.979 457.637 135.861 457.583L135.861 457.583Z" fill="#CCCCCC"/>
<path d="M125.037 456.948L131.476 443.052C131.6 442.784 131.813 442.584 132.068 442.493C132.324 442.403 132.6 442.431 132.838 442.57L142.184 448.071C142.421 448.211 142.599 448.452 142.68 448.739C142.76 449.027 142.735 449.339 142.612 449.607L136.173 463.503C136.048 463.77 135.835 463.971 135.58 464.061C135.324 464.151 135.048 464.124 134.81 463.985L125.464 458.483C125.227 458.343 125.049 458.103 124.969 457.815C124.889 457.527 124.913 457.215 125.037 456.948Z" fill="#3F3D56" fill-opacity="0.35"/>
<path d="M129.355 450.599C129.24 450.256 129.056 449.948 128.818 449.7C128.579 449.451 128.292 449.269 127.979 449.168C127.667 449.067 127.338 449.049 127.019 449.117C126.699 449.185 126.398 449.335 126.14 449.557L119.97 444.945L119.96 449.281L125.82 452.996C126.144 453.414 126.587 453.691 127.074 453.777C127.56 453.863 128.057 453.753 128.479 453.467C128.901 453.181 129.22 452.737 129.38 452.213C129.54 451.688 129.531 451.117 129.355 450.599Z" fill="#FFB8B8"/>
<path d="M121.555 451.574L116.513 447.072C115.967 446.866 115.475 446.513 115.077 446.045C114.679 445.577 114.387 445.007 114.228 444.383C114.069 443.76 114.046 443.103 114.161 442.468C114.277 441.832 114.528 441.238 114.892 440.736L119.47 433.974C119.788 433.536 120.236 433.241 120.731 433.144C121.226 433.047 121.735 433.154 122.166 433.446C122.596 433.737 122.919 434.193 123.076 434.731C123.233 435.269 123.213 435.853 123.019 436.375L119.397 443.054L124.72 445.899C124.844 445.966 124.954 446.061 125.042 446.178C125.131 446.296 125.197 446.433 125.235 446.582C125.273 446.73 125.283 446.886 125.264 447.039C125.245 447.191 125.197 447.338 125.124 447.469L122.975 451.301C122.902 451.431 122.806 451.541 122.693 451.626C122.58 451.711 122.453 451.769 122.319 451.794C122.313 451.795 122.308 451.796 122.303 451.797C122.171 451.82 122.037 451.811 121.908 451.773C121.78 451.735 121.659 451.667 121.555 451.574Z" fill="#CCCCCC"/>
<path d="M122.828 427.162C122.806 427.09 122.799 427.013 122.808 426.938C122.816 426.862 122.84 426.79 122.877 426.726C122.914 426.663 122.964 426.61 123.022 426.571C123.08 426.532 123.145 426.509 123.213 426.503C123.35 426.512 123.485 426.552 123.609 426.621C123.733 426.689 123.843 426.786 123.933 426.904C124.117 427.143 124.331 427.351 124.569 427.52C124.815 427.66 125.149 427.64 125.289 427.373C125.421 427.123 125.331 426.787 125.251 426.497C125.048 425.757 124.934 424.989 124.913 424.215C124.89 423.351 124.999 422.449 125.423 421.775C125.971 420.906 126.95 420.575 127.877 420.599C128.804 420.623 129.716 420.946 130.634 421.15C130.951 421.22 131.324 421.256 131.536 420.979C131.761 420.685 131.678 420.208 131.582 419.811C131.334 418.779 131.07 417.713 130.491 416.88C129.866 416.014 128.974 415.447 127.993 415.294C127.051 415.163 126.095 415.285 125.204 415.651C123.751 416.167 122.473 417.171 121.54 418.527C120.578 419.971 120.163 421.784 120.384 423.571C120.601 425.128 121.333 426.534 122.433 427.507L122.828 427.162Z" fill="#2F2E41" fill-opacity="0.23"/>
<path d="M187.276 501.086C185.923 500.421 184.724 499.411 183.776 498.135C182.828 496.859 182.156 495.352 181.813 493.733C181.47 492.114 181.466 490.428 181.8 488.807C182.134 487.186 182.798 485.674 183.74 484.392C182.648 485.29 181.739 486.44 181.072 487.764C180.405 489.089 179.995 490.558 179.87 492.075C179.746 493.592 179.908 495.121 180.348 496.561C180.788 498.002 181.494 499.32 182.421 500.429C183.347 501.538 184.472 502.412 185.721 502.994C186.97 503.576 188.314 503.851 189.665 503.802C191.016 503.753 192.342 503.381 193.555 502.71C194.769 502.04 195.842 501.086 196.703 499.912C195.359 501.019 193.782 501.709 192.128 501.915C190.475 502.121 188.802 501.835 187.276 501.086Z" fill="#3F3D56"/>
</g>
<defs>
<filter id="filter0_d_7908_3659" x="299" y="117" width="61" height="56" filterUnits="userSpaceOnUse" color-interpolation-filters="sRGB">
<feFlood flood-opacity="0" result="BackgroundImageFix"/>
<feColorMatrix in="SourceAlpha" type="matrix" values="0 0 0 0 0 0 0 0 0 0 0 0 0 0 0 0 0 0 127 0" result="hardAlpha"/>
<feOffset dy="4"/>
<feGaussianBlur stdDeviation="2"/>
<feComposite in2="hardAlpha" operator="out"/>
<feColorMatrix type="matrix" values="0 0 0 0 0 0 0 0 0 0 0 0 0 0 0 0 0 0 0.25 0"/>
<feBlend mode="normal" in2="BackgroundImageFix" result="effect1_dropShadow_7908_3659"/>
<feBlend mode="normal" in="SourceGraphic" in2="effect1_dropShadow_7908_3659" result="shape"/>
</filter>
<linearGradient id="paint0_linear_7908_3659" x1="584.062" y1="392.272" x2="-49.594" y2="112.208" gradientUnits="userSpaceOnUse">
<stop stop-color="#2855AE"/>
<stop offset="1" stop-color="#7292CF"/>
</linearGradient>
<clipPath id="clip0_7908_3659">
<rect width="175" height="139" fill="white" transform="translate(100 365)"/>
</clipPath>
</defs>
</svg>
