<svg width="17" height="21" viewBox="0 0 17 21" fill="none" xmlns="http://www.w3.org/2000/svg">
<path fill-rule="evenodd" clip-rule="evenodd" d="M1.62559 20.9797C5.56316 19.7877 8.52956 16.5319 9.35079 12.5007C9.65524 10.9387 9.39036 9.31943 8.60416 7.9359C7.85604 6.57134 6.71157 5.46579 5.32201 4.76521C4.12797 4.13634 2.67324 4.28468 1.63071 5.1416C0.416636 6.17668 -0.517144 8.21 0.320499 9.72375C1.18374 11.2845 3.28665 11.6609 4.90881 11.6108C7.04137 11.5506 9.06356 10.6494 10.5342 9.10393C11.7073 7.82851 12.1247 6.0785 12.6729 4.48293C12.927 3.62754 13.318 2.81894 13.8307 2.08855C14.3982 1.30224 15.2581 0.777338 16.2169 0.632087C16.3915 0.632087 16.5329 0.490581 16.5329 0.316036C16.5329 0.14149 16.3914 -1.56067e-05 16.2169 0C14.9356 0.169208 13.798 0.90472 13.1178 2.00365C12.4477 3.17606 11.935 4.4316 11.5928 5.7379C11.2125 7.14754 10.4183 8.41084 9.31302 9.36474C7.62256 10.6986 5.44293 11.2472 3.32242 10.8723C1.67266 10.5655 0.188591 9.41691 0.780772 7.58406C1.24204 6.16134 2.45512 4.7867 4.07316 5.02706C5.41696 5.34219 6.59833 6.1396 7.39321 7.26801C8.31687 8.35589 8.83071 9.73273 8.84557 11.1598C8.80667 15.3952 5.39667 19.1744 1.46297 20.3721C1.07536 20.4898 1.24104 21.1004 1.63177 20.9858" fill="#003849"/>
</svg>
