<svg width="181" height="56" viewBox="0 0 181 56" fill="none" xmlns="http://www.w3.org/2000/svg">
<path fill-rule="evenodd" clip-rule="evenodd" d="M175.086 55.7711C179.371 48.4967 183.41 39.2712 179.264 36.2165C167.664 27.5992 167.664 56.1018 155.732 41.8515C149.436 34.56 135.847 -5.54324 121.596 6.05742C109.333 16.0006 133.195 37.2117 123.584 46.1637C114.967 54.4493 109.333 27.2725 101.709 28.5983C92.7633 29.9242 92.7633 50.8045 82.8182 47.4895C71.2176 43.8438 88.4522 17.9928 74.8643 15.0095C59.6189 11.3637 59.2842 37.2147 51.0016 42.5179C49.3441 40.8614 49.0133 38.8722 48.35 36.2205C46.3617 29.2608 40.0643 -5.53922 28.133 0.758164C13.8816 8.38037 30.7845 30.9133 29.7894 40.8644C28.4637 55.7781 8.91008 26.9448 4.60093 26.6131C-8.06424 25.7497 8.77941 48.1469 14.9401 55.7792L175.086 55.7711Z" fill="#90CCD6"/>
</svg>
