<svg width="17" height="26" viewBox="0 0 17 26" fill="none" xmlns="http://www.w3.org/2000/svg">
<path fill-rule="evenodd" clip-rule="evenodd" d="M0.853257 0.21338C0.0862051 2.54707 -0.433317 5.4114 0.503235 7.76944C1.39408 10.0128 3.60297 10.7251 5.82399 10.8732C6.73317 10.8443 7.64129 10.9569 8.51585 11.2071C9.45847 11.5886 9.47167 12.591 9.31845 13.4677C9.02621 15.1449 8.08768 16.5329 7.53063 18.1137C7.00869 19.655 7.2577 21.3532 8.20033 22.6796C10.0845 25.5947 13.65 25.4029 16.701 25.7499C17.1018 25.7956 17.0977 25.1675 16.701 25.1229C14.0132 24.8185 10.6608 25.0549 8.88823 22.5812C8.32697 21.8418 7.97255 20.9663 7.86139 20.0446C7.83395 19.2337 8.00828 18.4287 8.36877 17.7018C9.08975 16.3527 9.62525 14.9124 9.96072 13.42C10.1702 12.6084 9.98939 11.7455 9.47167 11.0863C8.90582 10.6189 8.19655 10.3603 7.46269 10.3537C5.47192 10.1437 3.13726 10.3436 1.71574 8.62884C-0.0862671 6.45142 0.662516 2.81493 1.46307 0.383844C1.5899 -0.000708313 0.984175 -0.165079 0.85431 0.21744" fill="#003849"/>
</svg>
