<svg width="13" height="12" viewBox="0 0 13 12" fill="none" xmlns="http://www.w3.org/2000/svg">
<path fill-rule="evenodd" clip-rule="evenodd" d="M0.0971559 7.60242C1.28805 8.70784 2.27188 10.0042 3.42855 11.1408C3.91991 11.6241 4.56608 12.1598 5.14595 11.5226C5.75268 10.8108 6.3209 10.0671 6.84826 9.29471C7.78388 8.01142 8.69834 6.71407 9.60279 5.40867C10.7377 3.77131 11.8528 2.12055 12.9482 0.456396C13.1682 0.120751 12.6306 -0.190781 12.4115 0.142855C10.3424 3.29631 8.20691 6.4146 5.96797 9.45048C5.62928 9.90973 5.2896 10.368 4.93189 10.8122C4.66354 11.1428 4.61129 11.3216 4.22039 11.0232C3.65371 10.5302 3.13487 9.98479 2.67081 9.39421C1.98746 8.62343 1.291 7.86571 0.53632 7.16327C0.243871 6.89094 -0.197256 7.33008 0.0971559 7.60343" fill="#003849"/>
</svg>
