<svg width="48" height="53" viewBox="0 0 48 53" fill="none" xmlns="http://www.w3.org/2000/svg">
<path fill-rule="evenodd" clip-rule="evenodd" d="M0.00605284 10.9C2.13653 17.1936 4.28998 23.4794 6.46628 29.7574C8.46384 35.5255 10.4715 41.2935 12.5459 47.0332C13.2401 48.9559 13.9293 50.8786 14.6873 52.7739C14.7156 52.8657 14.7837 52.94 14.8727 52.9762C14.9616 53.0125 15.0622 53.0069 15.1467 52.9611C18.7228 51.3572 22.4538 50.0862 26.1403 48.7646C30.8388 47.0808 35.5442 45.4111 40.1921 43.5896C42.7118 42.6019 45.2153 41.5657 47.6804 40.4526C47.8023 40.3806 47.8611 40.236 47.8242 40.0994C44.5232 29.9133 41.1939 19.7494 37.2311 9.79801C35.9551 6.59525 34.6396 3.40764 33.3099 0.228139C33.2605 0.0644195 33.0914 -0.0317311 32.9255 0.00955792C23.0712 2.87131 13.3253 6.08117 3.61169 9.38616C2.48537 9.76868 1.36214 10.1643 0.227784 10.5195C-0.15478 10.6399 0.0081528 11.2441 0.394793 11.1267C3.04902 10.2939 5.6699 9.34669 8.30499 8.45822C13.2136 6.80472 18.1383 5.19945 23.0793 3.64242C26.4072 2.60013 29.7466 1.59156 33.0974 0.616725L32.712 0.398144C36.8013 10.1765 40.5777 20.0388 43.908 30.1025C45.0279 33.4871 46.134 36.8764 47.2262 40.2704L47.3699 39.9173C38.5548 43.9286 29.3068 46.8683 20.2501 50.2572C18.4285 50.9383 16.6142 51.6355 14.8412 52.4299L15.3016 52.6171C13.6532 48.4944 12.2203 44.2797 10.7479 40.0944C8.5135 33.757 6.31027 27.4091 4.13792 21.0507C2.96008 17.6169 1.78892 14.1811 0.624554 10.7432C0.495962 10.3637 -0.109198 10.5266 0.0172938 10.9091" fill="#003849"/>
</svg>
